<?xml version="1.0" standalone="no"?>
 <!DOCTYPE svg PUBLIC "-//W3C//DTD SVG 1.1//EN" 
 "http://www.w3.org/Graphics/SVG/1.1/DTD/svg11.dtd"> 
<svg
  xmlns:svg="http://www.w3.org/2000/svg"
  xmlns="http://www.w3.org/2000/svg"
  xmlns:xlink="http://www.w3.org/1999/xlink"
  version="1.1"
  width="14.0970mm" height="17.0942mm" viewBox="0.0000 0.0000 14.0970 17.0942">
<title>SVG Image created as ME6206A33XG-Edge_Cuts.svg date 2025/05/20 07:41:28 </title>
  <desc>Image generated by PCBNEW </desc>
<g style="fill:#000000; fill-opacity:1.0000;stroke:#000000; stroke-opacity:1.0000;
stroke-linecap:round; stroke-linejoin:round;"
 transform="translate(0 0) scale(1 1)">
<path style="fill:none; 
stroke:#D0D2CD; stroke-width:0.0500; stroke-opacity:1; 
stroke-linecap:round; stroke-linejoin:round;fill:none"
d="M 0.0500,0.0500
14.0500,0.0500
14.0500,17.0500
0.0500,17.0500
Z" /> 
<path style="fill:#4D7FC4; fill-opacity:1.0000; stroke:none;fill-rule:evenodd;"
d="M 3.4000,12.3000
3.3043,12.2810
3.2232,12.2268
3.1690,12.1457
3.1500,12.0500
3.1500,10.0500
3.1690,9.9543
3.2232,9.8732
3.3043,9.8190
3.4000,9.8000
4.7000,9.8000
4.7957,9.8190
4.8768,9.8732
4.9310,9.9543
4.9500,10.0500
4.9500,12.0500
4.9310,12.1457
4.8768,12.2268
4.7957,12.2810
4.7000,12.3000
Z" /> 
<path style="fill:#4D7FC4; fill-opacity:1.0000; stroke:none;fill-rule:evenodd;"
d="M 3.4000,8.3000
3.3043,8.2810
3.2232,8.2268
3.1690,8.1457
3.1500,8.0500
3.1500,6.0500
3.1690,5.9543
3.2232,5.8732
3.3043,5.8190
3.4000,5.8000
4.7000,5.8000
4.7957,5.8190
4.8768,5.8732
4.9310,5.9543
4.9500,6.0500
4.9500,8.0500
4.9310,8.1457
4.8768,8.2268
4.7957,8.2810
4.7000,8.3000
Z" /> 
<path style="fill:#4D7FC4; fill-opacity:1.0000; stroke:none;fill-rule:evenodd;"
d="M 9.9000,4.4000
8.2000,4.4000
8.2000,2.7000
9.9000,2.7000
Z" /> 
</g>
<g style="fill:#4D7FC4; fill-opacity:1.0000; stroke:none;">
<circle cx="6.5100" cy="3.5500" r="0.8500" /> 
<circle cx="3.9700" cy="3.5500" r="0.8500" /> 
<path style="fill:#4D7FC4; fill-opacity:1.0000; stroke:none;fill-rule:evenodd;"
d="M 8.7500,10.0000
8.6543,9.9810
8.5732,9.9268
8.5190,9.8457
8.5000,9.7500
8.5000,9.1500
8.5190,9.0543
8.5732,8.9732
8.6543,8.9190
8.7500,8.9000
9.3500,8.9000
9.4457,8.9190
9.5268,8.9732
9.5810,9.0543
9.6000,9.1500
9.6000,9.7500
9.5810,9.8457
9.5268,9.9268
9.4457,9.9810
9.3500,10.0000
Z" /> 
<path style="fill:#4D7FC4; fill-opacity:1.0000; stroke:none;fill-rule:evenodd;"
d="M 8.7500,7.2000
8.6543,7.1810
8.5732,7.1268
8.5190,7.0457
8.5000,6.9500
8.5000,6.3500
8.5190,6.2543
8.5732,6.1732
8.6543,6.1190
8.7500,6.1000
9.3500,6.1000
9.4457,6.1190
9.5268,6.1732
9.5810,6.2543
9.6000,6.3500
9.6000,6.9500
9.5810,7.0457
9.5268,7.1268
9.4457,7.1810
9.3500,7.2000
Z" /> 
</g>
<g style="fill:none; 
stroke:#4D7FC4; stroke-width:1.5000; stroke-opacity:1; 
stroke-linecap:round; stroke-linejoin:round;">
<path d="M3.9700 3.5500
L3.9700 6.9700
" />
<path d="M3.9700 6.9700
L4.0500 7.0500
" />
<path d="M6.5100 3.5500
L6.5100 8.5900
" />
<path d="M9.0500 9.4500
L7.3700 9.4500
" />
<path d="M7.3700 9.4500
L6.5100 8.5900
" />
<path d="M6.5100 8.5900
L4.0500 11.0500
" />
<path d="M9.0500 3.5500
L9.0500 6.6500
" />
<path style="fill:#4D7FC4; fill-opacity:1.0000; stroke:none;fill-rule:evenodd;"
d="M 13.4925,0.5702
13.5383,0.6230
13.5495,0.6745
13.5495,16.4255
13.5298,16.4925
13.4770,16.5383
13.4255,16.5495
0.6745,16.5495
0.6075,16.5298
0.5617,16.4770
0.5505,16.4255
0.5505,12.1000
2.6500,12.1000
2.6605,12.2027
2.7156,12.3691
2.7156,12.3691
2.8077,12.5183
2.9317,12.6423
3.0809,12.7344
3.0809,12.7344
3.2473,12.7895
3.2473,12.7895
3.3500,12.8000
3.8000,12.8000
4.3000,12.8000
4.7500,12.8000
4.7500,12.8000
4.8527,12.7895
5.0191,12.7344
5.0191,12.7344
5.1683,12.6423
5.2923,12.5183
5.3844,12.3691
5.3844,12.3691
5.4395,12.2027
5.4395,12.2027
5.4500,12.1000
5.4500,12.1000
5.4500,11.3000
4.3000,11.3000
4.3000,12.8000
3.8000,12.8000
3.8000,12.8000
3.8000,11.3000
2.6500,11.3000
2.6500,12.1000
0.5505,12.1000
0.5505,10.0000
2.6500,10.0000
2.6500,10.8000
3.8000,10.8000
4.3000,10.8000
5.4500,10.8000
5.4500,10.0000
5.4500,10.0000
5.4395,9.8973
5.4073,9.8000
8.0000,9.8000
8.0105,9.9027
8.0656,10.0691
8.0656,10.0691
8.1577,10.2183
8.2817,10.3423
8.4309,10.4344
8.4309,10.4344
8.5973,10.4895
8.5973,10.4895
8.7000,10.5000
9.3000,10.5000
9.4000,10.5000
9.4000,10.5000
9.5027,10.4895
9.6691,10.4344
9.6691,10.4344
9.8183,10.3423
9.9423,10.2183
10.0344,10.0691
10.0344,10.0691
10.0895,9.9027
10.0895,9.9027
10.1000,9.8000
10.1000,9.8000
10.1000,9.7000
9.3000,9.7000
9.3000,10.5000
8.7000,10.5000
8.8000,10.5000
8.8000,9.7000
8.0000,9.7000
8.0000,9.8000
5.4073,9.8000
5.3844,9.7309
5.3844,9.7309
5.3738,9.7137
5.3738,9.7137
5.2923,9.5817
5.2923,9.5817
5.1683,9.4577
5.0191,9.3656
5.0191,9.3656
4.8527,9.3105
4.8527,9.3105
4.7500,9.3000
4.3000,9.3000
4.3000,10.8000
3.8000,10.8000
3.8000,9.3000
3.3500,9.3000
3.3500,9.3000
3.2473,9.3105
3.0809,9.3656
3.0809,9.3656
2.9317,9.4577
2.8077,9.5817
2.7156,9.7309
2.7156,9.7309
2.6605,9.8973
2.6605,9.8973
2.6500,10.0000
0.5505,10.0000
0.5505,9.1000
8.0000,9.1000
8.0000,9.2000
8.8000,9.2000
9.3000,9.2000
10.1000,9.2000
10.1000,9.1000
10.1000,9.1000
10.0895,8.9973
10.0344,8.8309
10.0344,8.8309
9.9423,8.6817
9.8183,8.5577
9.6691,8.4656
9.6691,8.4656
9.5027,8.4105
9.5027,8.4105
9.4000,8.4000
9.3000,8.4000
9.3000,9.2000
8.8000,9.2000
8.8000,8.4000
8.7000,8.4000
8.7000,8.4000
8.5973,8.4105
8.4309,8.4656
8.4309,8.4656
8.2817,8.5577
8.1577,8.6817
8.0656,8.8309
8.0656,8.8309
8.0105,8.9973
8.0105,8.9973
8.0000,9.1000
0.5505,9.1000
0.5505,3.4437
2.6195,3.4437
2.6195,3.6563
2.6308,3.7274
2.6315,3.7493
2.6322,3.7494
2.6322,3.7538
2.7036,5.0499
2.7036,5.0643
2.6457,6.0145
2.6455,6.0725
2.6455,6.0725
2.6471,6.0804
2.6495,6.1046
2.6495,8.1000
2.6495,8.1000
2.6600,8.2028
2.6600,8.2028
2.7152,8.3693
2.7152,8.3693
2.7501,8.4259
2.8073,8.5187
2.9313,8.6427
3.0807,8.7348
3.2472,8.7900
3.3500,8.8005
4.7500,8.8005
4.8528,8.7900
5.0193,8.7348
5.1687,8.6427
5.2927,8.5187
5.3848,8.3693
5.4400,8.2028
5.4505,8.1000
5.4505,6.0000
5.4400,5.8972
5.3936,5.7571
5.3894,5.7407
5.3125,5.3249
5.2449,4.9588
5.2430,4.9294
5.2459,4.8772
5.2663,4.5078
5.2896,4.4420
5.3449,4.3992
5.4145,4.3931
5.4763,4.4255
5.4778,4.4270
5.6305,4.5797
5.6305,4.5797
5.8024,4.7046
5.9918,4.8011
6.1939,4.8668
6.2600,4.8772
6.2600,3.9830
6.3170,4.0159
6.4442,4.0500
6.5758,4.0500
6.7030,4.0159
6.7600,3.9830
6.7600,4.8772
6.8261,4.8668
6.8261,4.8668
7.0282,4.8011
7.2176,4.7046
7.3895,4.5797
7.4973,4.4719
7.5586,4.4384
7.6283,4.4434
7.6842,4.4853
7.7081,4.5451
7.7967,5.2987
7.7978,5.3063
7.7982,5.3091
7.7983,5.3094
7.7995,5.3269
7.7995,6.7484
7.8303,6.9428
7.8911,7.1300
7.9805,7.3054
8.0962,7.4646
8.2354,7.6038
8.3946,7.7195
8.4775,7.7617
8.5700,7.8089
8.5700,7.8089
8.5700,7.8089
8.6703,7.8415
8.7572,7.8697
8.9516,7.9005
8.9516,7.9005
9.1484,7.9005
9.3428,7.8697
9.5300,7.8089
9.7054,7.7195
9.8646,7.6038
10.0038,7.4646
10.1195,7.3054
10.2089,7.1300
10.2697,6.9428
10.3005,6.7484
10.3005,5.3249
10.3027,5.3016
10.3033,5.2987
10.3033,5.2987
10.4014,4.4647
10.4040,4.4353
10.4040,4.4339
10.4021,4.3505
10.4021,4.3505
10.4017,4.3476
10.4005,4.3307
10.4005,2.6521
10.4005,2.6521
10.3941,2.5925
10.3438,2.4577
10.3438,2.4577
10.2575,2.3425
10.2575,2.3425
10.1423,2.2562
10.1423,2.2562
10.0075,2.2059
10.0075,2.2059
9.9479,2.1995
9.9479,2.1995
9.9479,2.1995
9.9479,2.1995
8.1521,2.1995
8.1521,2.1995
8.0925,2.2059
7.9577,2.2562
7.9577,2.2562
7.8425,2.3425
7.8425,2.3425
7.7562,2.4577
7.7562,2.4577
7.7070,2.5896
7.6651,2.6455
7.5997,2.6699
7.5314,2.6551
7.5031,2.6339
7.3895,2.5203
7.3895,2.5203
7.2176,2.3954
7.0282,2.2989
6.8261,2.2332
6.7600,2.2228
6.7600,3.1170
6.7030,3.0841
6.5758,3.0500
6.4442,3.0500
6.3170,3.0841
6.2600,3.1170
6.2600,2.2228
6.2600,2.2228
6.1939,2.2332
5.9918,2.2989
5.8024,2.3954
5.6305,2.5203
5.6305,2.5203
5.4803,2.6705
5.4803,2.6705
5.3554,2.8424
5.3508,2.8515
5.3028,2.9023
5.2350,2.9191
5.1688,2.8965
5.1298,2.8515
5.1251,2.8422
5.1250,2.8422
5.1250,2.8422
5.0001,2.6702
4.8498,2.5199
4.6778,2.3950
4.4884,2.2984
4.4884,2.2984
4.4884,2.2984
4.2862,2.2328
4.2862,2.2328
4.2862,2.2328
4.1250,2.2072
4.0763,2.1995
3.8637,2.1995
3.8150,2.2072
3.6538,2.2328
3.4516,2.2984
3.2622,2.3950
3.0902,2.5199
2.9399,2.6702
2.8150,2.8422
2.7184,3.0316
2.6528,3.2338
2.6195,3.4437
0.5505,3.4437
0.5505,0.6745
0.5702,0.6075
0.6230,0.5617
0.6745,0.5505
13.4255,0.5505
Z" /> 
<path style="fill:#4D7FC4; fill-opacity:1.0000; stroke:none;fill-rule:evenodd;"
d="M 4.7185,4.9034
4.7218,4.9096
4.9076,5.9157
4.9058,5.9245
4.9055,5.9249
4.0586,7.0397
4.0508,7.0442
4.0422,7.0420
4.0405,7.0405
4.0399,7.0397
3.1533,6.0536
3.1503,6.0452
3.2193,4.9110
3.2233,4.9029
3.2310,4.9000
4.7103,4.9000
Z" /> 
<path style="fill:#4D7FC4; fill-opacity:1.0000; stroke:none;fill-rule:evenodd;"
d="M 3.2200,5.2337
4.7200,5.2337
4.8037,3.7158
3.9700,3.5490
3.1363,3.7158
Z" /> 
<path style="fill:#4D7FC4; fill-opacity:1.0000; stroke:none;fill-rule:evenodd;"
d="M 8.3000,5.2500
9.8000,5.2500
9.9000,4.4000
9.0500,3.5490
8.2000,4.4000
Z" /> 
<path style="fill:#02FFEE; fill-opacity:0.4000; stroke:none;fill-rule:evenodd;"
d="M 3.4000,12.3000
3.3043,12.2810
3.2232,12.2268
3.1690,12.1457
3.1500,12.0500
3.1500,10.0500
3.1690,9.9543
3.2232,9.8732
3.3043,9.8190
3.4000,9.8000
4.7000,9.8000
4.7957,9.8190
4.8768,9.8732
4.9310,9.9543
4.9500,10.0500
4.9500,12.0500
4.9310,12.1457
4.8768,12.2268
4.7957,12.2810
4.7000,12.3000
Z" /> 
<path style="fill:#02FFEE; fill-opacity:0.4000; stroke:none;fill-rule:evenodd;"
d="M 3.4000,8.3000
3.3043,8.2810
3.2232,8.2268
3.1690,8.1457
3.1500,8.0500
3.1500,6.0500
3.1690,5.9543
3.2232,5.8732
3.3043,5.8190
3.4000,5.8000
4.7000,5.8000
4.7957,5.8190
4.8768,5.8732
4.9310,5.9543
4.9500,6.0500
4.9500,8.0500
4.9310,8.1457
4.8768,8.2268
4.7957,8.2810
4.7000,8.3000
Z" /> 
<path style="fill:#02FFEE; fill-opacity:0.4000; stroke:none;fill-rule:evenodd;"
d="M 9.9000,4.4000
8.2000,4.4000
8.2000,2.7000
9.9000,2.7000
Z" /> 
</g>
<g style="fill:#02FFEE; fill-opacity:0.4000; stroke:none;">
<circle cx="6.5100" cy="3.5500" r="0.8500" /> 
<circle cx="3.9700" cy="3.5500" r="0.8500" /> 
<path style="fill:#02FFEE; fill-opacity:0.4000; stroke:none;fill-rule:evenodd;"
d="M 8.7500,10.0000
8.6543,9.9810
8.5732,9.9268
8.5190,9.8457
8.5000,9.7500
8.5000,9.1500
8.5190,9.0543
8.5732,8.9732
8.6543,8.9190
8.7500,8.9000
9.3500,8.9000
9.4457,8.9190
9.5268,8.9732
9.5810,9.0543
9.6000,9.1500
9.6000,9.7500
9.5810,9.8457
9.5268,9.9268
9.4457,9.9810
9.3500,10.0000
Z" /> 
<path style="fill:#02FFEE; fill-opacity:0.4000; stroke:none;fill-rule:evenodd;"
d="M 8.7500,7.2000
8.6543,7.1810
8.5732,7.1268
8.5190,7.0457
8.5000,6.9500
8.5000,6.3500
8.5190,6.2543
8.5732,6.1732
8.6543,6.1190
8.7500,6.1000
9.3500,6.1000
9.4457,6.1190
9.5268,6.1732
9.5810,6.2543
9.6000,6.3500
9.6000,6.9500
9.5810,7.0457
9.5268,7.1268
9.4457,7.1810
9.3500,7.2000
Z" /> 
<path style="fill:#00C2C2; fill-opacity:0.9000; stroke:none;fill-rule:evenodd;"
d="M 3.4000,12.3000
3.3043,12.2810
3.2232,12.2268
3.1690,12.1457
3.1500,12.0500
3.1500,10.0500
3.1690,9.9543
3.2232,9.8732
3.3043,9.8190
3.4000,9.8000
4.7000,9.8000
4.7957,9.8190
4.8768,9.8732
4.9310,9.9543
4.9500,10.0500
4.9500,12.0500
4.9310,12.1457
4.8768,12.2268
4.7957,12.2810
4.7000,12.3000
Z" /> 
<path style="fill:#00C2C2; fill-opacity:0.9000; stroke:none;fill-rule:evenodd;"
d="M 3.4000,8.3000
3.3043,8.2810
3.2232,8.2268
3.1690,8.1457
3.1500,8.0500
3.1500,6.0500
3.1690,5.9543
3.2232,5.8732
3.3043,5.8190
3.4000,5.8000
4.7000,5.8000
4.7957,5.8190
4.8768,5.8732
4.9310,5.9543
4.9500,6.0500
4.9500,8.0500
4.9310,8.1457
4.8768,8.2268
4.7957,8.2810
4.7000,8.3000
Z" /> 
<path style="fill:#00C2C2; fill-opacity:0.9000; stroke:none;fill-rule:evenodd;"
d="M 8.7500,10.0000
8.6543,9.9810
8.5732,9.9268
8.5190,9.8457
8.5000,9.7500
8.5000,9.1500
8.5190,9.0543
8.5732,8.9732
8.6543,8.9190
8.7500,8.9000
9.3500,8.9000
9.4457,8.9190
9.5268,8.9732
9.5810,9.0543
9.6000,9.1500
9.6000,9.7500
9.5810,9.8457
9.5268,9.9268
9.4457,9.9810
9.3500,10.0000
Z" /> 
<path style="fill:#00C2C2; fill-opacity:0.9000; stroke:none;fill-rule:evenodd;"
d="M 8.7500,7.2000
8.6543,7.1810
8.5732,7.1268
8.5190,7.0457
8.5000,6.9500
8.5000,6.3500
8.5190,6.2543
8.5732,6.1732
8.6543,6.1190
8.7500,6.1000
9.3500,6.1000
9.4457,6.1190
9.5268,6.1732
9.5810,6.2543
9.6000,6.3500
9.6000,6.9500
9.5810,7.0457
9.5268,7.1268
9.4457,7.1810
9.3500,7.2000
Z" /> 
</g>
<g style="fill:none; 
stroke:#E8B2A7; stroke-width:0.1200; stroke-opacity:1; 
stroke-linecap:round; stroke-linejoin:round;">
<g transform="rotate(-90.000000 4.0500 9.0500)">
<text x="4.0500" y="9.4000"
transform="scale(-1 1) translate(-8.100000 0)"
textLength="1.5867" font-size="0.9333" lengthAdjust="spacingAndGlyphs"
text-anchor="middle" opacity="0" stroke-opacity="0">D1</text>
</g>
<g class="stroked-text"><desc>D1</desc>
<path d="M4.3676 8.5333
L3.6676 8.5333
" />
<path d="M3.6676 8.5333
L3.6676 8.7000
" />
<path d="M3.6676 8.7000
L3.7009 8.8000
" />
<path d="M3.7009 8.8000
L3.7676 8.8667
" />
<path d="M3.7676 8.8667
L3.8343 8.9000
" />
<path d="M3.8343 8.9000
L3.9676 8.9333
" />
<path d="M3.9676 8.9333
L4.0676 8.9333
" />
<path d="M4.0676 8.9333
L4.2009 8.9000
" />
<path d="M4.2009 8.9000
L4.2676 8.8667
" />
<path d="M4.2676 8.8667
L4.3343 8.8000
" />
<path d="M4.3343 8.8000
L4.3676 8.7000
" />
<path d="M4.3676 8.7000
L4.3676 8.5333
" />
<path d="M4.3676 9.6000
L4.3676 9.2000
" />
<path d="M4.3676 9.4000
L3.6676 9.4000
" />
<path d="M3.6676 9.4000
L3.7676 9.3333
" />
<path d="M3.7676 9.3333
L3.8343 9.2667
" />
<path d="M3.8343 9.2667
L3.8676 9.2000
" />
</g><g transform="rotate(-90.000000 7.0500 9.0500)">
<text x="7.0500" y="9.4000"
transform="scale(-1 1) translate(-14.100000 0)"
textLength="5.7867" font-size="0.9333" lengthAdjust="spacingAndGlyphs"
text-anchor="middle" opacity="0" stroke-opacity="0">SMAJ6.0CA</text>
</g>
<g class="stroked-text"><desc>SMAJ6.0CA</desc>
<path d="M7.3343 6.4000
L7.3676 6.5000
" />
<path d="M7.3676 6.5000
L7.3676 6.6667
" />
<path d="M7.3676 6.6667
L7.3343 6.7333
" />
<path d="M7.3343 6.7333
L7.3009 6.7667
" />
<path d="M7.3009 6.7667
L7.2343 6.8000
" />
<path d="M7.2343 6.8000
L7.1676 6.8000
" />
<path d="M7.1676 6.8000
L7.1009 6.7667
" />
<path d="M7.1009 6.7667
L7.0676 6.7333
" />
<path d="M7.0676 6.7333
L7.0343 6.6667
" />
<path d="M7.0343 6.6667
L7.0009 6.5333
" />
<path d="M7.0009 6.5333
L6.9676 6.4667
" />
<path d="M6.9676 6.4667
L6.9343 6.4333
" />
<path d="M6.9343 6.4333
L6.8676 6.4000
" />
<path d="M6.8676 6.4000
L6.8009 6.4000
" />
<path d="M6.8009 6.4000
L6.7343 6.4333
" />
<path d="M6.7343 6.4333
L6.7009 6.4667
" />
<path d="M6.7009 6.4667
L6.6676 6.5333
" />
<path d="M6.6676 6.5333
L6.6676 6.7000
" />
<path d="M6.6676 6.7000
L6.7009 6.8000
" />
<path d="M7.3676 7.1000
L6.6676 7.1000
" />
<path d="M6.6676 7.1000
L7.1676 7.3333
" />
<path d="M7.1676 7.3333
L6.6676 7.5667
" />
<path d="M6.6676 7.5667
L7.3676 7.5667
" />
<path d="M7.1676 7.8667
L7.1676 8.2000
" />
<path d="M7.3676 7.8000
L6.6676 8.0333
" />
<path d="M6.6676 8.0333
L7.3676 8.2667
" />
<path d="M6.6676 8.7000
L7.1676 8.7000
" />
<path d="M7.1676 8.7000
L7.2676 8.6667
" />
<path d="M7.2676 8.6667
L7.3343 8.6000
" />
<path d="M7.3343 8.6000
L7.3676 8.5000
" />
<path d="M7.3676 8.5000
L7.3676 8.4333
" />
<path d="M6.6676 9.3333
L6.6676 9.2000
" />
<path d="M6.6676 9.2000
L6.7009 9.1333
" />
<path d="M6.7009 9.1333
L6.7343 9.1000
" />
<path d="M6.7343 9.1000
L6.8343 9.0333
" />
<path d="M6.8343 9.0333
L6.9676 9.0000
" />
<path d="M6.9676 9.0000
L7.2343 9.0000
" />
<path d="M7.2343 9.0000
L7.3009 9.0333
" />
<path d="M7.3009 9.0333
L7.3343 9.0667
" />
<path d="M7.3343 9.0667
L7.3676 9.1333
" />
<path d="M7.3676 9.1333
L7.3676 9.2667
" />
<path d="M7.3676 9.2667
L7.3343 9.3333
" />
<path d="M7.3343 9.3333
L7.3009 9.3667
" />
<path d="M7.3009 9.3667
L7.2343 9.4000
" />
<path d="M7.2343 9.4000
L7.0676 9.4000
" />
<path d="M7.0676 9.4000
L7.0009 9.3667
" />
<path d="M7.0009 9.3667
L6.9676 9.3333
" />
<path d="M6.9676 9.3333
L6.9343 9.2667
" />
<path d="M6.9343 9.2667
L6.9343 9.1333
" />
<path d="M6.9343 9.1333
L6.9676 9.0667
" />
<path d="M6.9676 9.0667
L7.0009 9.0333
" />
<path d="M7.0009 9.0333
L7.0676 9.0000
" />
<path d="M7.3009 9.7000
L7.3343 9.7333
" />
<path d="M7.3343 9.7333
L7.3676 9.7000
" />
<path d="M7.3676 9.7000
L7.3343 9.6667
" />
<path d="M7.3343 9.6667
L7.3009 9.7000
" />
<path d="M7.3009 9.7000
L7.3676 9.7000
" />
<path d="M6.6676 10.1667
L6.6676 10.2333
" />
<path d="M6.6676 10.2333
L6.7009 10.3000
" />
<path d="M6.7009 10.3000
L6.7343 10.3333
" />
<path d="M6.7343 10.3333
L6.8009 10.3667
" />
<path d="M6.8009 10.3667
L6.9343 10.4000
" />
<path d="M6.9343 10.4000
L7.1009 10.4000
" />
<path d="M7.1009 10.4000
L7.2343 10.3667
" />
<path d="M7.2343 10.3667
L7.3009 10.3333
" />
<path d="M7.3009 10.3333
L7.3343 10.3000
" />
<path d="M7.3343 10.3000
L7.3676 10.2333
" />
<path d="M7.3676 10.2333
L7.3676 10.1667
" />
<path d="M7.3676 10.1667
L7.3343 10.1000
" />
<path d="M7.3343 10.1000
L7.3009 10.0667
" />
<path d="M7.3009 10.0667
L7.2343 10.0333
" />
<path d="M7.2343 10.0333
L7.1009 10.0000
" />
<path d="M7.1009 10.0000
L6.9343 10.0000
" />
<path d="M6.9343 10.0000
L6.8009 10.0333
" />
<path d="M6.8009 10.0333
L6.7343 10.0667
" />
<path d="M6.7343 10.0667
L6.7009 10.1000
" />
<path d="M6.7009 10.1000
L6.6676 10.1667
" />
<path d="M7.3009 11.1000
L7.3343 11.0667
" />
<path d="M7.3343 11.0667
L7.3676 10.9667
" />
<path d="M7.3676 10.9667
L7.3676 10.9000
" />
<path d="M7.3676 10.9000
L7.3343 10.8000
" />
<path d="M7.3343 10.8000
L7.2676 10.7333
" />
<path d="M7.2676 10.7333
L7.2009 10.7000
" />
<path d="M7.2009 10.7000
L7.0676 10.6667
" />
<path d="M7.0676 10.6667
L6.9676 10.6667
" />
<path d="M6.9676 10.6667
L6.8343 10.7000
" />
<path d="M6.8343 10.7000
L6.7676 10.7333
" />
<path d="M6.7676 10.7333
L6.7009 10.8000
" />
<path d="M6.7009 10.8000
L6.6676 10.9000
" />
<path d="M6.6676 10.9000
L6.6676 10.9667
" />
<path d="M6.6676 10.9667
L6.7009 11.0667
" />
<path d="M6.7009 11.0667
L6.7343 11.1000
" />
<path d="M7.1676 11.3667
L7.1676 11.7000
" />
<path d="M7.3676 11.3000
L6.6676 11.5333
" />
<path d="M6.6676 11.5333
L7.3676 11.7667
" />
</g><g transform="rotate(-90.000000 9.0500 8.0500)">
<text x="9.0500" y="8.4000"
transform="scale(-1 1) translate(-18.100000 0)"
textLength="1.5867" font-size="0.9333" lengthAdjust="spacingAndGlyphs"
text-anchor="middle" opacity="0" stroke-opacity="0">D2</text>
</g>
<g class="stroked-text"><desc>D2</desc>
<path d="M9.3676 7.5333
L8.6676 7.5333
" />
<path d="M8.6676 7.5333
L8.6676 7.7000
" />
<path d="M8.6676 7.7000
L8.7009 7.8000
" />
<path d="M8.7009 7.8000
L8.7676 7.8667
" />
<path d="M8.7676 7.8667
L8.8343 7.9000
" />
<path d="M8.8343 7.9000
L8.9676 7.9333
" />
<path d="M8.9676 7.9333
L9.0676 7.9333
" />
<path d="M9.0676 7.9333
L9.2009 7.9000
" />
<path d="M9.2009 7.9000
L9.2676 7.8667
" />
<path d="M9.2676 7.8667
L9.3343 7.8000
" />
<path d="M9.3343 7.8000
L9.3676 7.7000
" />
<path d="M9.3676 7.7000
L9.3676 7.5333
" />
<path d="M8.7343 8.2000
L8.7009 8.2333
" />
<path d="M8.7009 8.2333
L8.6676 8.3000
" />
<path d="M8.6676 8.3000
L8.6676 8.4667
" />
<path d="M8.6676 8.4667
L8.7009 8.5333
" />
<path d="M8.7009 8.5333
L8.7343 8.5667
" />
<path d="M8.7343 8.5667
L8.8009 8.6000
" />
<path d="M8.8009 8.6000
L8.8676 8.6000
" />
<path d="M8.8676 8.6000
L8.9676 8.5667
" />
<path d="M8.9676 8.5667
L9.3676 8.1667
" />
<path d="M9.3676 8.1667
L9.3676 8.6000
" />
</g><g transform="rotate(-90.000000 11.0500 8.0500)">
<text x="11.0500" y="8.4000"
transform="scale(-1 1) translate(-22.100000 0)"
textLength="5.2533" font-size="0.9333" lengthAdjust="spacingAndGlyphs"
text-anchor="middle" opacity="0" stroke-opacity="0">SMF3.3CA</text>
</g>
<g class="stroked-text"><desc>SMF3.3CA</desc>
<path d="M11.3343 5.6667
L11.3676 5.7667
" />
<path d="M11.3676 5.7667
L11.3676 5.9333
" />
<path d="M11.3676 5.9333
L11.3343 6.0000
" />
<path d="M11.3343 6.0000
L11.3009 6.0333
" />
<path d="M11.3009 6.0333
L11.2343 6.0667
" />
<path d="M11.2343 6.0667
L11.1676 6.0667
" />
<path d="M11.1676 6.0667
L11.1009 6.0333
" />
<path d="M11.1009 6.0333
L11.0676 6.0000
" />
<path d="M11.0676 6.0000
L11.0343 5.9333
" />
<path d="M11.0343 5.9333
L11.0009 5.8000
" />
<path d="M11.0009 5.8000
L10.9676 5.7333
" />
<path d="M10.9676 5.7333
L10.9343 5.7000
" />
<path d="M10.9343 5.7000
L10.8676 5.6667
" />
<path d="M10.8676 5.6667
L10.8009 5.6667
" />
<path d="M10.8009 5.6667
L10.7343 5.7000
" />
<path d="M10.7343 5.7000
L10.7009 5.7333
" />
<path d="M10.7009 5.7333
L10.6676 5.8000
" />
<path d="M10.6676 5.8000
L10.6676 5.9667
" />
<path d="M10.6676 5.9667
L10.7009 6.0667
" />
<path d="M11.3676 6.3667
L10.6676 6.3667
" />
<path d="M10.6676 6.3667
L11.1676 6.6000
" />
<path d="M11.1676 6.6000
L10.6676 6.8333
" />
<path d="M10.6676 6.8333
L11.3676 6.8333
" />
<path d="M11.0009 7.4000
L11.0009 7.1667
" />
<path d="M11.3676 7.1667
L10.6676 7.1667
" />
<path d="M10.6676 7.1667
L10.6676 7.5000
" />
<path d="M10.6676 7.7000
L10.6676 8.1333
" />
<path d="M10.6676 8.1333
L10.9343 7.9000
" />
<path d="M10.9343 7.9000
L10.9343 8.0000
" />
<path d="M10.9343 8.0000
L10.9676 8.0667
" />
<path d="M10.9676 8.0667
L11.0009 8.1000
" />
<path d="M11.0009 8.1000
L11.0676 8.1333
" />
<path d="M11.0676 8.1333
L11.2343 8.1333
" />
<path d="M11.2343 8.1333
L11.3009 8.1000
" />
<path d="M11.3009 8.1000
L11.3343 8.0667
" />
<path d="M11.3343 8.0667
L11.3676 8.0000
" />
<path d="M11.3676 8.0000
L11.3676 7.8000
" />
<path d="M11.3676 7.8000
L11.3343 7.7333
" />
<path d="M11.3343 7.7333
L11.3009 7.7000
" />
<path d="M11.3009 8.4333
L11.3343 8.4667
" />
<path d="M11.3343 8.4667
L11.3676 8.4333
" />
<path d="M11.3676 8.4333
L11.3343 8.4000
" />
<path d="M11.3343 8.4000
L11.3009 8.4333
" />
<path d="M11.3009 8.4333
L11.3676 8.4333
" />
<path d="M10.6676 8.7000
L10.6676 9.1333
" />
<path d="M10.6676 9.1333
L10.9343 8.9000
" />
<path d="M10.9343 8.9000
L10.9343 9.0000
" />
<path d="M10.9343 9.0000
L10.9676 9.0667
" />
<path d="M10.9676 9.0667
L11.0009 9.1000
" />
<path d="M11.0009 9.1000
L11.0676 9.1333
" />
<path d="M11.0676 9.1333
L11.2343 9.1333
" />
<path d="M11.2343 9.1333
L11.3009 9.1000
" />
<path d="M11.3009 9.1000
L11.3343 9.0667
" />
<path d="M11.3343 9.0667
L11.3676 9.0000
" />
<path d="M11.3676 9.0000
L11.3676 8.8000
" />
<path d="M11.3676 8.8000
L11.3343 8.7333
" />
<path d="M11.3343 8.7333
L11.3009 8.7000
" />
<path d="M11.3009 9.8333
L11.3343 9.8000
" />
<path d="M11.3343 9.8000
L11.3676 9.7000
" />
<path d="M11.3676 9.7000
L11.3676 9.6333
" />
<path d="M11.3676 9.6333
L11.3343 9.5333
" />
<path d="M11.3343 9.5333
L11.2676 9.4667
" />
<path d="M11.2676 9.4667
L11.2009 9.4333
" />
<path d="M11.2009 9.4333
L11.0676 9.4000
" />
<path d="M11.0676 9.4000
L10.9676 9.4000
" />
<path d="M10.9676 9.4000
L10.8343 9.4333
" />
<path d="M10.8343 9.4333
L10.7676 9.4667
" />
<path d="M10.7676 9.4667
L10.7009 9.5333
" />
<path d="M10.7009 9.5333
L10.6676 9.6333
" />
<path d="M10.6676 9.6333
L10.6676 9.7000
" />
<path d="M10.6676 9.7000
L10.7009 9.8000
" />
<path d="M10.7009 9.8000
L10.7343 9.8333
" />
<path d="M11.1676 10.1000
L11.1676 10.4333
" />
<path d="M11.3676 10.0333
L10.6676 10.2667
" />
<path d="M10.6676 10.2667
L11.3676 10.5000
" />
</g><path d="M2.2500 5.4500
L5.8500 5.4500
" />
<path d="M2.2500 12.6500
L2.2500 5.4500
" />
<path d="M5.8500 5.4500
L5.8500 12.6500
" />
<path d="M5.8500 12.6500
L2.2500 12.6500
" />
<path d="M2.6400 4.8800
L2.6400 2.2200
" />
<path d="M7.7800 2.2200
L2.6400 2.2200
" />
<path d="M7.7800 4.8800
L2.6400 4.8800
" />
<path d="M7.7800 4.8800
L7.7800 2.2200
" />
<path d="M9.0500 4.8800
L10.3800 4.8800
" />
<path d="M10.3800 4.8800
L10.3800 3.5500
" />
<path d="M7.8500 5.7500
L10.2500 5.7500
" />
<path d="M7.8500 10.3500
L7.8500 5.7500
" />
<path d="M10.2500 5.7500
L10.2500 10.3500
" />
<path d="M10.2500 10.3500
L7.8500 10.3500
" />
<path style="fill:#E8B2A7; fill-opacity:1.0000; 
stroke:#E8B2A7; stroke-width:0.1000; stroke-opacity:1; 
stroke-linecap:round; stroke-linejoin:round;fill-rule:evenodd;"
d="M 7.8500,9.4500
7.5500,9.4500
7.5500,8.6500
7.8500,8.6500
Z" /> 
<path style="fill:#E8B2A7; fill-opacity:1.0000; 
stroke:#E8B2A7; stroke-width:0.1000; stroke-opacity:1; 
stroke-linecap:round; stroke-linejoin:round;fill-rule:evenodd;"
d="M 10.5500,9.4500
10.2500,9.4500
10.2500,8.6500
10.5500,8.6500
Z" /> 
<path style="fill:#C83434; fill-opacity:1.0000; stroke:none;fill-rule:evenodd;"
d="M 2.0000,6.4000
2.0190,6.3043
2.0732,6.2232
2.1543,6.1690
2.2500,6.1500
2.9000,6.1500
2.9957,6.1690
3.0768,6.2232
3.1310,6.3043
3.1500,6.4000
3.1500,7.7000
3.1310,7.7957
3.0768,7.8768
2.9957,7.9310
2.9000,7.9500
2.2500,7.9500
2.1543,7.9310
2.0732,7.8768
2.0190,7.7957
2.0000,7.7000
Z" /> 
<path style="fill:#C83434; fill-opacity:1.0000; stroke:none;fill-rule:evenodd;"
d="M 4.9500,6.4000
4.9690,6.3043
5.0232,6.2232
5.1043,6.1690
5.2000,6.1500
5.8500,6.1500
5.9457,6.1690
6.0268,6.2232
6.0810,6.3043
6.1000,6.4000
6.1000,7.7000
6.0810,7.7957
6.0268,7.8768
5.9457,7.9310
5.8500,7.9500
5.2000,7.9500
5.1043,7.9310
5.0232,7.8768
4.9690,7.7957
4.9500,7.7000
Z" /> 
<path style="fill:#C83434; fill-opacity:1.0000; stroke:none;fill-rule:evenodd;"
d="M 12.1000,7.7000
12.0810,7.7957
12.0268,7.8768
11.9457,7.9310
11.8500,7.9500
11.2000,7.9500
11.1043,7.9310
11.0232,7.8768
10.9690,7.7957
10.9500,7.7000
10.9500,6.4000
10.9690,6.3043
11.0232,6.2232
11.1043,6.1690
11.2000,6.1500
11.8500,6.1500
11.9457,6.1690
12.0268,6.2232
12.0810,6.3043
12.1000,6.4000
Z" /> 
<path style="fill:#C83434; fill-opacity:1.0000; stroke:none;fill-rule:evenodd;"
d="M 9.1500,7.7000
9.1310,7.7957
9.0768,7.8768
8.9957,7.9310
8.9000,7.9500
8.2500,7.9500
8.1543,7.9310
8.0732,7.8768
8.0190,7.7957
8.0000,7.7000
8.0000,6.4000
8.0190,6.3043
8.0732,6.2232
8.1543,6.1690
8.2500,6.1500
8.9000,6.1500
8.9957,6.1690
9.0768,6.2232
9.1310,6.3043
9.1500,6.4000
Z" /> 
<path style="fill:#C83434; fill-opacity:1.0000; stroke:none;fill-rule:evenodd;"
d="M 2.0000,9.4000
2.0190,9.3043
2.0732,9.2232
2.1543,9.1690
2.2500,9.1500
2.9000,9.1500
2.9957,9.1690
3.0768,9.2232
3.1310,9.3043
3.1500,9.4000
3.1500,10.7000
3.1310,10.7957
3.0768,10.8768
2.9957,10.9310
2.9000,10.9500
2.2500,10.9500
2.1543,10.9310
2.0732,10.8768
2.0190,10.7957
2.0000,10.7000
Z" /> 
<path style="fill:#C83434; fill-opacity:1.0000; stroke:none;fill-rule:evenodd;"
d="M 4.9500,9.4000
4.9690,9.3043
5.0232,9.2232
5.1043,9.1690
5.2000,9.1500
5.8500,9.1500
5.9457,9.1690
6.0268,9.2232
6.0810,9.3043
6.1000,9.4000
6.1000,10.7000
6.0810,10.7957
6.0268,10.8768
5.9457,10.9310
5.8500,10.9500
5.2000,10.9500
5.1043,10.9310
5.0232,10.8768
4.9690,10.7957
4.9500,10.7000
Z" /> 
<path style="fill:#C83434; fill-opacity:1.0000; stroke:none;fill-rule:evenodd;"
d="M 12.1000,10.7000
12.0810,10.7957
12.0268,10.8768
11.9457,10.9310
11.8500,10.9500
11.2000,10.9500
11.1043,10.9310
11.0232,10.8768
10.9690,10.7957
10.9500,10.7000
10.9500,9.4000
10.9690,9.3043
11.0232,9.2232
11.1043,9.1690
11.2000,9.1500
11.8500,9.1500
11.9457,9.1690
12.0268,9.2232
12.0810,9.3043
12.1000,9.4000
Z" /> 
<path style="fill:#C83434; fill-opacity:1.0000; stroke:none;fill-rule:evenodd;"
d="M 9.1500,10.7000
9.1310,10.7957
9.0768,10.8768
8.9957,10.9310
8.9000,10.9500
8.2500,10.9500
8.1543,10.9310
8.0732,10.8768
8.0190,10.7957
8.0000,10.7000
8.0000,9.4000
8.0190,9.3043
8.0732,9.2232
8.1543,9.1690
8.2500,9.1500
8.9000,9.1500
8.9957,9.1690
9.0768,9.2232
9.1310,9.3043
9.1500,9.4000
Z" /> 
<path style="fill:#C83434; fill-opacity:1.0000; stroke:none;fill-rule:evenodd;"
d="M 5.3750,11.9500
5.3864,11.8926
5.4189,11.8439
5.4676,11.8114
5.5250,11.8000
6.7000,11.8000
6.7574,11.8114
6.8061,11.8439
6.8386,11.8926
6.8500,11.9500
6.8500,12.2500
6.8386,12.3074
6.8061,12.3561
6.7574,12.3886
6.7000,12.4000
5.5250,12.4000
5.4676,12.3886
5.4189,12.3561
5.3864,12.3074
5.3750,12.2500
Z" /> 
<path style="fill:#C83434; fill-opacity:1.0000; stroke:none;fill-rule:evenodd;"
d="M 5.3750,13.8500
5.3864,13.7926
5.4189,13.7439
5.4676,13.7114
5.5250,13.7000
6.7000,13.7000
6.7574,13.7114
6.8061,13.7439
6.8386,13.7926
6.8500,13.8500
6.8500,14.1500
6.8386,14.2074
6.8061,14.2561
6.7574,14.2886
6.7000,14.3000
5.5250,14.3000
5.4676,14.2886
5.4189,14.2561
5.3864,14.2074
5.3750,14.1500
Z" /> 
<path style="fill:#C83434; fill-opacity:1.0000; stroke:none;fill-rule:evenodd;"
d="M 7.2500,12.9000
7.2614,12.8426
7.2939,12.7939
7.3426,12.7614
7.4000,12.7500
8.5750,12.7500
8.6324,12.7614
8.6811,12.7939
8.7136,12.8426
8.7250,12.9000
8.7250,13.2000
8.7136,13.2574
8.6811,13.3061
8.6324,13.3386
8.5750,13.3500
7.4000,13.3500
7.3426,13.3386
7.2939,13.3061
7.2614,13.2574
7.2500,13.2000
Z" /> 
<path style="fill:#C83434; fill-opacity:1.0000; stroke:none;fill-rule:evenodd;"
d="M 9.9000,4.4000
8.2000,4.4000
8.2000,2.7000
9.9000,2.7000
Z" /> 
</g>
<g style="fill:#C83434; fill-opacity:1.0000; stroke:none;">
<circle cx="6.5100" cy="3.5500" r="0.8500" /> 
<circle cx="3.9700" cy="3.5500" r="0.8500" /> 
</g>
<g style="fill:none; 
stroke:#C83434; stroke-width:1.5000; stroke-opacity:1; 
stroke-linecap:round; stroke-linejoin:round;">
<path d="M2.5750 7.0500
L2.5750 4.9450
" />
</g>
<g style="fill:none; 
stroke:#C83434; stroke-width:0.5000; stroke-opacity:1; 
stroke-linecap:round; stroke-linejoin:round;">
<path d="M3.4900 13.0500
L2.5750 12.1350
" />
<path d="M7.9875 13.0500
L3.4900 13.0500
" />
<path d="M2.5750 12.1350
L2.5750 10.0500
" />
</g>
<g style="fill:none; 
stroke:#C83434; stroke-width:1.5000; stroke-opacity:1; 
stroke-linecap:round; stroke-linejoin:round;">
<path d="M2.5750 10.0500
L2.5750 7.0500
" />
<path d="M2.5750 4.9450
L3.9700 3.5500
" />
<path d="M8.5750 10.0500
L8.5750 7.0500
" />
<path d="M5.5250 10.0500
L5.5250 7.0500
" />
</g>
<g style="fill:none; 
stroke:#C83434; stroke-width:0.5000; stroke-opacity:1; 
stroke-linecap:round; stroke-linejoin:round;">
<path d="M6.1125 10.6375
L5.5250 10.0500
" />
</g>
<g style="fill:none; 
stroke:#C83434; stroke-width:1.5000; stroke-opacity:1; 
stroke-linecap:round; stroke-linejoin:round;">
<path d="M5.5250 4.5350
L6.5100 3.5500
" />
<path d="M5.5250 7.0500
L5.5250 4.5350
" />
<path d="M8.5750 10.0500
L5.5250 10.0500
" />
<path d="M6.5100 4.9850
L8.5750 7.0500
" />
</g>
<g style="fill:none; 
stroke:#C83434; stroke-width:0.5000; stroke-opacity:1; 
stroke-linecap:round; stroke-linejoin:round;">
<path d="M6.1125 12.1000
L6.1125 10.6375
" />
</g>
<g style="fill:none; 
stroke:#C83434; stroke-width:1.5000; stroke-opacity:1; 
stroke-linecap:round; stroke-linejoin:round;">
<path d="M6.5100 3.5500
L6.5100 4.9850
" />
<path d="M11.5250 7.0500
L11.5250 6.0250
" />
<path d="M11.5250 10.0500
L11.5250 7.0500
" />
</g>
<g style="fill:none; 
stroke:#C83434; stroke-width:0.5000; stroke-opacity:1; 
stroke-linecap:round; stroke-linejoin:round;">
<path d="M8.7140 14.0000
L11.5250 11.1890
" />
<path d="M6.1125 14.0000
L8.7140 14.0000
" />
</g>
<g style="fill:none; 
stroke:#C83434; stroke-width:1.5000; stroke-opacity:1; 
stroke-linecap:round; stroke-linejoin:round;">
<path d="M11.5250 6.0250
L9.0500 3.5500
" />
</g>
<g style="fill:none; 
stroke:#C83434; stroke-width:0.5000; stroke-opacity:1; 
stroke-linecap:round; stroke-linejoin:round;">
<path d="M11.5250 11.1890
L11.5250 10.0500
" />
<path style="fill:#C83434; fill-opacity:1.0000; stroke:none;fill-rule:evenodd;"
d="M 6.7600,4.8772
6.8261,4.8668
6.8261,4.8668
7.0282,4.8011
7.2176,4.7046
7.3895,4.5797
7.5031,4.4661
7.5645,4.4326
7.6341,4.4376
7.6901,4.4794
7.7070,4.5104
7.7562,4.6423
7.7562,4.6423
7.8425,4.7575
7.8425,4.7575
7.9577,4.8438
7.9577,4.8438
7.9651,4.8466
8.0925,4.8941
8.1521,4.9005
8.4530,4.9005
8.5200,4.9202
8.5353,4.9318
9.1074,5.4403
9.1445,5.4996
9.1436,5.5695
9.1051,5.6278
9.0411,5.6560
9.0124,5.6564
8.9500,5.6500
8.8250,5.6500
8.8250,6.8000
9.6500,6.8000
9.6500,6.3500
9.6500,6.3500
9.6395,6.2473
9.6359,6.2365
9.6335,6.1666
9.6692,6.1066
9.7318,6.0754
9.8012,6.0830
9.8413,6.1098
10.2382,6.5067
10.2717,6.5680
10.2745,6.5943
10.2745,10.1484
10.3053,10.3428
10.3661,10.5300
10.3661,10.5300
10.4360,10.6672
10.4479,10.7036
10.4495,10.7134
10.4495,10.7500
10.4600,10.8528
10.4838,10.9247
10.4854,10.9345
10.4854,10.9345
10.4855,10.9347
10.4882,10.9518
10.4882,10.9518
10.5164,11.0423
10.5176,11.1121
10.4857,11.1669
9.2114,12.4411
9.1501,12.4746
9.0804,12.4696
9.0361,12.4411
8.9769,12.3819
8.9769,12.3819
8.8354,12.2983
8.8354,12.2983
8.6776,12.2524
8.6776,12.2524
8.6407,12.2495
8.6407,12.2495
7.3880,12.2495
7.3407,12.2480
7.3093,12.2515
7.3041,12.2519
7.3041,12.2519
7.2974,12.2524
7.2963,12.2526
7.2878,12.2539
6.9046,12.2964
6.8907,12.2983
6.8738,12.2995
3.8522,12.2995
3.7852,12.2798
3.7645,12.2632
3.3618,11.8605
3.3471,11.8335
3.3305,11.8077
3.3296,11.8015
3.3283,11.7991
3.3255,11.7728
3.3255,11.6636
3.3352,11.6156
3.5945,10.9974
3.6154,10.9374
3.6162,10.9345
3.6191,10.9160
3.6400,10.8528
3.6505,10.7500
3.6505,10.7500
4.4500,10.7500
4.4605,10.8527
4.5156,11.0191
4.5156,11.0191
4.6077,11.1683
4.7317,11.2923
4.8809,11.3844
4.8809,11.3844
4.9217,11.3979
4.9791,11.4377
5.0060,11.5022
4.9936,11.5709
4.9894,11.5787
4.9237,11.6898
4.8779,11.8475
4.8777,11.8500
4.8777,11.8500
7.3473,11.8500
7.3473,11.8500
7.3471,11.8475
7.3013,11.6898
7.2177,11.5484
7.2177,11.5484
7.1016,11.4323
7.1016,11.4323
6.9602,11.3487
6.9602,11.3487
6.8025,11.3029
6.8025,11.3029
6.7656,11.3000
6.5833,11.3000
6.5162,11.2803
6.4705,11.2275
6.4605,11.1584
6.4777,11.1109
6.5344,11.0191
6.5344,11.0191
6.5895,10.8527
6.5895,10.8527
6.6000,10.7500
7.5000,10.7500
7.5105,10.8527
7.5656,11.0191
7.5656,11.0191
7.6577,11.1683
7.7817,11.2923
7.9309,11.3844
7.9309,11.3844
8.0973,11.4395
8.0973,11.4395
8.2000,11.4500
8.3250,11.4500
8.8250,11.4500
8.9500,11.4500
8.9500,11.4500
9.0527,11.4395
9.2191,11.3844
9.2191,11.3844
9.3683,11.2923
9.4923,11.1683
9.5844,11.0191
9.5844,11.0191
9.6395,10.8527
9.6395,10.8527
9.6500,10.7500
9.6500,10.7500
9.6500,10.3000
8.8250,10.3000
8.8250,11.4500
8.3250,11.4500
8.3250,11.4500
8.3250,10.3000
7.5000,10.3000
7.5000,10.7500
6.6000,10.7500
6.6000,10.7500
6.6000,10.3000
4.4500,10.3000
4.4500,10.7500
3.6505,10.7500
3.6505,10.7139
3.6520,10.7044
3.6583,10.6909
3.6640,10.6672
3.7339,10.5300
3.7947,10.3428
3.8015,10.3000
3.8127,10.2292
3.8255,10.1484
3.8255,9.3500
4.4500,9.3500
4.4500,9.8000
5.2750,9.8000
5.2750,8.6500
5.2627,8.6377
5.2292,8.5764
5.2342,8.5067
5.2627,8.4623
5.2750,8.4500
5.7750,8.4500
5.7873,8.4623
5.8208,8.5236
5.8158,8.5933
5.7873,8.6377
5.7750,8.6500
5.7750,9.8000
6.6000,9.8000
6.6000,9.3500
6.6000,9.3500
7.5000,9.3500
7.5000,9.8000
8.3250,9.8000
8.3250,8.6500
8.3127,8.6377
8.2792,8.5764
8.2842,8.5067
8.3127,8.4623
8.3250,8.4500
8.8250,8.4500
8.8373,8.4623
8.8708,8.5236
8.8658,8.5933
8.8373,8.6377
8.8250,8.6500
8.8250,9.8000
9.6500,9.8000
9.6500,9.3500
9.6500,9.3500
9.6395,9.2473
9.5844,9.0809
9.5844,9.0809
9.4923,8.9317
9.3683,8.8077
9.2191,8.7156
9.2191,8.7156
9.0745,8.6677
9.0170,8.6279
8.9902,8.5634
9.0025,8.4946
9.0500,8.4434
9.0745,8.4323
9.2191,8.3844
9.2191,8.3844
9.3683,8.2923
9.4923,8.1683
9.5844,8.0191
9.5844,8.0191
9.6395,7.8527
9.6395,7.8527
9.6500,7.7500
9.6500,7.7500
9.6500,7.3000
8.8250,7.3000
8.8250,8.4500
8.3250,8.4500
8.3250,7.3000
7.5000,7.3000
7.5000,7.7500
7.5105,7.8527
7.5656,8.0191
7.5656,8.0191
7.6577,8.1683
7.7817,8.2923
7.9309,8.3844
7.9309,8.3844
8.0755,8.4323
8.1330,8.4721
8.1598,8.5366
8.1475,8.6054
8.0999,8.6566
8.0755,8.6677
7.9309,8.7156
7.9309,8.7156
7.7817,8.8077
7.6577,8.9317
7.5656,9.0809
7.5656,9.0809
7.5105,9.2473
7.5105,9.2473
7.5000,9.3500
6.6000,9.3500
6.6000,9.3500
6.5895,9.2473
6.5344,9.0809
6.5344,9.0809
6.4423,8.9317
6.3183,8.8077
6.1691,8.7156
6.1691,8.7156
6.0245,8.6677
5.9670,8.6279
5.9402,8.5634
5.9525,8.4946
6.0000,8.4434
6.0245,8.4323
6.1691,8.3844
6.1691,8.3844
6.3183,8.2923
6.4423,8.1683
6.5344,8.0191
6.5344,8.0191
6.5895,7.8527
6.5895,7.8527
6.6000,7.7500
6.6000,7.7500
6.6000,7.3000
5.7750,7.3000
5.7750,8.4500
5.2750,8.4500
5.2750,7.3000
4.4500,7.3000
4.4500,7.7500
4.4605,7.8527
4.5156,8.0191
4.5156,8.0191
4.6077,8.1683
4.7317,8.2923
4.8809,8.3844
4.8809,8.3844
5.0255,8.4323
5.0830,8.4721
5.1098,8.5366
5.0975,8.6054
5.0499,8.6566
5.0255,8.6677
4.8809,8.7156
4.8809,8.7156
4.7317,8.8077
4.6077,8.9317
4.5156,9.0809
4.5156,9.0809
4.4605,9.2473
4.4605,9.2473
4.4500,9.3500
3.8255,9.3500
3.8255,6.3500
4.4500,6.3500
4.4500,6.8000
5.2750,6.8000
5.7750,6.8000
6.6000,6.8000
6.6000,6.3500
6.6000,6.3500
7.5000,6.3500
7.5000,6.8000
8.3250,6.8000
8.3250,5.6500
8.2000,5.6500
8.2000,5.6500
8.0973,5.6605
7.9309,5.7156
7.9309,5.7156
7.7817,5.8077
7.6577,5.9317
7.5656,6.0809
7.5656,6.0809
7.5105,6.2473
7.5105,6.2473
7.5000,6.3500
6.6000,6.3500
6.6000,6.3500
6.5895,6.2473
6.5344,6.0809
6.5344,6.0809
6.4423,5.9317
6.3183,5.8077
6.1691,5.7156
6.1691,5.7156
6.0027,5.6605
6.0027,5.6605
5.9000,5.6500
5.7750,5.6500
5.7750,6.8000
5.2750,6.8000
5.2750,5.6500
5.1500,5.6500
5.1500,5.6500
5.0473,5.6605
4.8809,5.7156
4.8809,5.7156
4.7317,5.8077
4.6077,5.9317
4.5156,6.0809
4.5156,6.0809
4.4605,6.2473
4.4605,6.2473
4.4500,6.3500
3.8255,6.3500
3.8255,5.5430
3.8452,5.4760
3.8668,5.4506
4.7719,4.6401
4.7719,4.6401
4.7719,4.6401
4.7833,4.6295
4.7948,4.6201
4.8498,4.5801
5.0001,4.4298
5.0001,4.4298
5.0001,4.4298
5.1020,4.2896
5.1251,4.2578
5.1298,4.2485
5.1778,4.1977
5.2456,4.1809
5.3117,4.2034
5.3508,4.2485
5.3554,4.2576
5.4803,4.4295
5.4803,4.4295
5.6305,4.5797
5.6305,4.5797
5.8024,4.7046
5.9918,4.8011
6.1939,4.8668
6.2600,4.8772
6.2600,3.9830
6.3170,4.0159
6.4442,4.0500
6.5758,4.0500
6.7030,4.0159
6.7600,3.9830
Z" /> 
<path style="fill:#C83434; fill-opacity:1.0000; stroke:none;fill-rule:evenodd;"
d="M 13.4925,0.5702
13.5383,0.6230
13.5495,0.6745
13.5495,16.4255
13.5298,16.4925
13.4770,16.5383
13.4255,16.5495
0.6745,16.5495
0.6075,16.5298
0.5617,16.4770
0.5505,16.4255
0.5505,4.8466
1.3245,4.8466
1.3245,10.1484
1.3553,10.3428
1.4161,10.5300
1.4161,10.5300
1.4860,10.6672
1.4995,10.7234
1.4995,10.7500
1.4995,10.7500
1.5100,10.8528
1.5100,10.8528
1.5453,10.9593
1.5476,10.9671
1.5555,10.9974
1.5555,10.9974
1.5647,11.0193
1.7961,11.5709
1.8148,11.6156
1.8245,11.6636
1.8245,12.2089
1.8245,12.2089
1.8245,12.2089
1.8533,12.3539
1.8533,12.3539
1.9099,12.4905
1.9150,12.4981
1.9150,12.4981
1.9920,12.6134
1.9921,12.6134
2.9070,13.5284
2.9070,13.5284
3.0116,13.6330
3.0116,13.6330
3.1345,13.7151
3.1345,13.7151
3.2711,13.7717
3.2711,13.7717
3.2711,13.7717
3.2711,13.7717
3.4161,13.8005
3.4161,13.8005
4.7505,13.8005
4.8175,13.8202
4.8633,13.8730
4.8745,13.9245
4.8745,14.2157
4.8774,14.2526
4.8774,14.2526
4.9233,14.4104
4.9233,14.4104
5.0069,14.5519
5.0069,14.5519
5.1231,14.6681
5.1231,14.6681
5.1231,14.6681
5.2646,14.7517
5.3062,14.7638
5.4224,14.7976
5.4224,14.7976
5.4224,14.7976
5.4593,14.8005
6.7120,14.8005
6.7593,14.8020
6.7907,14.7985
6.8026,14.7976
6.8026,14.7976
6.8037,14.7974
6.8123,14.7961
7.1954,14.7536
7.2093,14.7517
7.2262,14.7505
8.7879,14.7505
8.8854,14.7311
8.9329,14.7217
9.0694,14.6651
9.1187,14.6322
9.1924,14.5830
12.1080,11.6674
12.1901,11.5444
12.2467,11.4079
12.2474,11.4040
12.2518,11.3940
12.2522,11.3866
12.2687,11.3554
12.2980,11.3149
12.3140,11.2983
12.3135,11.2978
12.3311,11.2803
12.4427,11.1687
12.5348,11.0193
12.5900,10.8528
12.6005,10.7500
12.6005,10.7234
12.6140,10.6672
12.6839,10.5300
12.7447,10.3428
12.7515,10.3000
12.7755,10.1484
12.7755,5.9266
12.7447,5.7322
12.6839,5.5450
12.5945,5.3696
12.4788,5.2104
12.3396,5.0712
11.4239,4.1554
11.4081,4.1361
11.4019,4.1266
10.4318,3.0353
10.4020,2.9722
10.4005,2.9530
10.4005,2.6521
10.4005,2.6521
10.3941,2.5925
10.3438,2.4577
10.3438,2.4577
10.2575,2.3425
10.2575,2.3425
10.1423,2.2562
10.1423,2.2562
10.0075,2.2059
10.0075,2.2059
9.9479,2.1995
9.9479,2.1995
9.9479,2.1995
9.9479,2.1995
8.1521,2.1995
8.1521,2.1995
8.0925,2.2059
7.9577,2.2562
7.9577,2.2562
7.8425,2.3425
7.8425,2.3425
7.7562,2.4577
7.7562,2.4577
7.7070,2.5896
7.6651,2.6455
7.5997,2.6699
7.5314,2.6551
7.5031,2.6339
7.3895,2.5203
7.3895,2.5203
7.2176,2.3954
7.0282,2.2989
6.8261,2.2332
6.7600,2.2228
6.7600,3.1170
6.7030,3.0841
6.5758,3.0500
6.4442,3.0500
6.3170,3.0841
6.2600,3.1170
6.2600,2.2228
6.2600,2.2228
6.1939,2.2332
5.9918,2.2989
5.8024,2.3954
5.6305,2.5203
5.6305,2.5203
5.4803,2.6705
5.4803,2.6705
5.3554,2.8424
5.3508,2.8515
5.3028,2.9023
5.2350,2.9191
5.1688,2.8965
5.1298,2.8515
5.1251,2.8422
5.1250,2.8422
5.1250,2.8422
5.0001,2.6702
4.8498,2.5199
4.6778,2.3950
4.4884,2.2984
4.4884,2.2984
4.4884,2.2984
4.2862,2.2328
4.2862,2.2328
4.2862,2.2328
4.1250,2.2072
4.0763,2.1995
3.8637,2.1995
3.8150,2.2072
3.6538,2.2328
3.4516,2.2984
3.2622,2.3950
3.0902,2.5199
2.9399,2.6702
2.9399,2.6702
2.8976,2.7285
2.8826,2.7445
2.8831,2.7450
2.8799,2.7481
1.8800,3.8647
1.8511,3.8996
1.8432,3.9083
1.6212,4.1304
1.5055,4.2896
1.4157,4.4659
1.4146,4.4696
1.3553,4.6522
1.3553,4.6522
1.3245,4.8466
0.5505,4.8466
0.5505,0.6745
0.5702,0.6075
0.6230,0.5617
0.6745,0.5505
13.4255,0.5505
Z" /> 
<path style="fill:#C83434; fill-opacity:1.0000; stroke:none;fill-rule:evenodd;"
d="M 6.9500,12.8000
6.9500,13.3000
7.4000,13.3500
7.9885,13.0500
7.4000,12.7500
Z" /> 
<path style="fill:#C83434; fill-opacity:1.0000; stroke:none;fill-rule:evenodd;"
d="M 2.3250,11.5250
2.8250,11.5250
3.1310,10.7957
2.5750,10.0490
2.0190,10.7957
Z" /> 
<path style="fill:#C83434; fill-opacity:1.0000; stroke:none;fill-rule:evenodd;"
d="M 2.2491,4.2102
3.3098,5.2709
4.4422,4.2567
3.9707,3.5493
3.2633,3.0778
Z" /> 
<path style="fill:#C83434; fill-opacity:1.0000; stroke:none;fill-rule:evenodd;"
d="M 7.1500,14.2500
7.1500,13.7500
6.7000,13.7000
6.1115,14.0000
6.7000,14.3000
Z" /> 
<path style="fill:#C83434; fill-opacity:1.0000; stroke:none;fill-rule:evenodd;"
d="M 9.9707,5.5314
11.0314,4.4707
9.9000,3.1979
9.0493,3.5493
8.6979,4.4000
Z" /> 
<path style="fill:#C83434; fill-opacity:1.0000; stroke:none;fill-rule:evenodd;"
d="M 11.1106,11.2498
11.4642,11.6033
11.9581,10.9226
11.5257,10.0493
10.9690,10.7957
Z" /> 
<path style="fill:#D864FF; fill-opacity:0.4000; stroke:none;fill-rule:evenodd;"
d="M 2.0000,6.4000
2.0190,6.3043
2.0732,6.2232
2.1543,6.1690
2.2500,6.1500
2.9000,6.1500
2.9957,6.1690
3.0768,6.2232
3.1310,6.3043
3.1500,6.4000
3.1500,7.7000
3.1310,7.7957
3.0768,7.8768
2.9957,7.9310
2.9000,7.9500
2.2500,7.9500
2.1543,7.9310
2.0732,7.8768
2.0190,7.7957
2.0000,7.7000
Z" /> 
<path style="fill:#D864FF; fill-opacity:0.4000; stroke:none;fill-rule:evenodd;"
d="M 4.9500,6.4000
4.9690,6.3043
5.0232,6.2232
5.1043,6.1690
5.2000,6.1500
5.8500,6.1500
5.9457,6.1690
6.0268,6.2232
6.0810,6.3043
6.1000,6.4000
6.1000,7.7000
6.0810,7.7957
6.0268,7.8768
5.9457,7.9310
5.8500,7.9500
5.2000,7.9500
5.1043,7.9310
5.0232,7.8768
4.9690,7.7957
4.9500,7.7000
Z" /> 
<path style="fill:#D864FF; fill-opacity:0.4000; stroke:none;fill-rule:evenodd;"
d="M 12.1000,7.7000
12.0810,7.7957
12.0268,7.8768
11.9457,7.9310
11.8500,7.9500
11.2000,7.9500
11.1043,7.9310
11.0232,7.8768
10.9690,7.7957
10.9500,7.7000
10.9500,6.4000
10.9690,6.3043
11.0232,6.2232
11.1043,6.1690
11.2000,6.1500
11.8500,6.1500
11.9457,6.1690
12.0268,6.2232
12.0810,6.3043
12.1000,6.4000
Z" /> 
<path style="fill:#D864FF; fill-opacity:0.4000; stroke:none;fill-rule:evenodd;"
d="M 9.1500,7.7000
9.1310,7.7957
9.0768,7.8768
8.9957,7.9310
8.9000,7.9500
8.2500,7.9500
8.1543,7.9310
8.0732,7.8768
8.0190,7.7957
8.0000,7.7000
8.0000,6.4000
8.0190,6.3043
8.0732,6.2232
8.1543,6.1690
8.2500,6.1500
8.9000,6.1500
8.9957,6.1690
9.0768,6.2232
9.1310,6.3043
9.1500,6.4000
Z" /> 
<path style="fill:#D864FF; fill-opacity:0.4000; stroke:none;fill-rule:evenodd;"
d="M 2.0000,9.4000
2.0190,9.3043
2.0732,9.2232
2.1543,9.1690
2.2500,9.1500
2.9000,9.1500
2.9957,9.1690
3.0768,9.2232
3.1310,9.3043
3.1500,9.4000
3.1500,10.7000
3.1310,10.7957
3.0768,10.8768
2.9957,10.9310
2.9000,10.9500
2.2500,10.9500
2.1543,10.9310
2.0732,10.8768
2.0190,10.7957
2.0000,10.7000
Z" /> 
<path style="fill:#D864FF; fill-opacity:0.4000; stroke:none;fill-rule:evenodd;"
d="M 4.9500,9.4000
4.9690,9.3043
5.0232,9.2232
5.1043,9.1690
5.2000,9.1500
5.8500,9.1500
5.9457,9.1690
6.0268,9.2232
6.0810,9.3043
6.1000,9.4000
6.1000,10.7000
6.0810,10.7957
6.0268,10.8768
5.9457,10.9310
5.8500,10.9500
5.2000,10.9500
5.1043,10.9310
5.0232,10.8768
4.9690,10.7957
4.9500,10.7000
Z" /> 
<path style="fill:#D864FF; fill-opacity:0.4000; stroke:none;fill-rule:evenodd;"
d="M 12.1000,10.7000
12.0810,10.7957
12.0268,10.8768
11.9457,10.9310
11.8500,10.9500
11.2000,10.9500
11.1043,10.9310
11.0232,10.8768
10.9690,10.7957
10.9500,10.7000
10.9500,9.4000
10.9690,9.3043
11.0232,9.2232
11.1043,9.1690
11.2000,9.1500
11.8500,9.1500
11.9457,9.1690
12.0268,9.2232
12.0810,9.3043
12.1000,9.4000
Z" /> 
<path style="fill:#D864FF; fill-opacity:0.4000; stroke:none;fill-rule:evenodd;"
d="M 9.1500,10.7000
9.1310,10.7957
9.0768,10.8768
8.9957,10.9310
8.9000,10.9500
8.2500,10.9500
8.1543,10.9310
8.0732,10.8768
8.0190,10.7957
8.0000,10.7000
8.0000,9.4000
8.0190,9.3043
8.0732,9.2232
8.1543,9.1690
8.2500,9.1500
8.9000,9.1500
8.9957,9.1690
9.0768,9.2232
9.1310,9.3043
9.1500,9.4000
Z" /> 
<path style="fill:#D864FF; fill-opacity:0.4000; stroke:none;fill-rule:evenodd;"
d="M 5.3750,11.9500
5.3864,11.8926
5.4189,11.8439
5.4676,11.8114
5.5250,11.8000
6.7000,11.8000
6.7574,11.8114
6.8061,11.8439
6.8386,11.8926
6.8500,11.9500
6.8500,12.2500
6.8386,12.3074
6.8061,12.3561
6.7574,12.3886
6.7000,12.4000
5.5250,12.4000
5.4676,12.3886
5.4189,12.3561
5.3864,12.3074
5.3750,12.2500
Z" /> 
<path style="fill:#D864FF; fill-opacity:0.4000; stroke:none;fill-rule:evenodd;"
d="M 5.3750,13.8500
5.3864,13.7926
5.4189,13.7439
5.4676,13.7114
5.5250,13.7000
6.7000,13.7000
6.7574,13.7114
6.8061,13.7439
6.8386,13.7926
6.8500,13.8500
6.8500,14.1500
6.8386,14.2074
6.8061,14.2561
6.7574,14.2886
6.7000,14.3000
5.5250,14.3000
5.4676,14.2886
5.4189,14.2561
5.3864,14.2074
5.3750,14.1500
Z" /> 
<path style="fill:#D864FF; fill-opacity:0.4000; stroke:none;fill-rule:evenodd;"
d="M 7.2500,12.9000
7.2614,12.8426
7.2939,12.7939
7.3426,12.7614
7.4000,12.7500
8.5750,12.7500
8.6324,12.7614
8.6811,12.7939
8.7136,12.8426
8.7250,12.9000
8.7250,13.2000
8.7136,13.2574
8.6811,13.3061
8.6324,13.3386
8.5750,13.3500
7.4000,13.3500
7.3426,13.3386
7.2939,13.3061
7.2614,13.2574
7.2500,13.2000
Z" /> 
<path style="fill:#D864FF; fill-opacity:0.4000; stroke:none;fill-rule:evenodd;"
d="M 9.9000,4.4000
8.2000,4.4000
8.2000,2.7000
9.9000,2.7000
Z" /> 
</g>
<g style="fill:#D864FF; fill-opacity:0.4000; stroke:none;">
<circle cx="6.5100" cy="3.5500" r="0.8500" /> 
<circle cx="3.9700" cy="3.5500" r="0.8500" /> 
<path style="fill:#B4A09A; fill-opacity:0.9000; stroke:none;fill-rule:evenodd;"
d="M 2.0000,6.4000
2.0190,6.3043
2.0732,6.2232
2.1543,6.1690
2.2500,6.1500
2.9000,6.1500
2.9957,6.1690
3.0768,6.2232
3.1310,6.3043
3.1500,6.4000
3.1500,7.7000
3.1310,7.7957
3.0768,7.8768
2.9957,7.9310
2.9000,7.9500
2.2500,7.9500
2.1543,7.9310
2.0732,7.8768
2.0190,7.7957
2.0000,7.7000
Z" /> 
<path style="fill:#B4A09A; fill-opacity:0.9000; stroke:none;fill-rule:evenodd;"
d="M 4.9500,6.4000
4.9690,6.3043
5.0232,6.2232
5.1043,6.1690
5.2000,6.1500
5.8500,6.1500
5.9457,6.1690
6.0268,6.2232
6.0810,6.3043
6.1000,6.4000
6.1000,7.7000
6.0810,7.7957
6.0268,7.8768
5.9457,7.9310
5.8500,7.9500
5.2000,7.9500
5.1043,7.9310
5.0232,7.8768
4.9690,7.7957
4.9500,7.7000
Z" /> 
<path style="fill:#B4A09A; fill-opacity:0.9000; stroke:none;fill-rule:evenodd;"
d="M 12.1000,7.7000
12.0810,7.7957
12.0268,7.8768
11.9457,7.9310
11.8500,7.9500
11.2000,7.9500
11.1043,7.9310
11.0232,7.8768
10.9690,7.7957
10.9500,7.7000
10.9500,6.4000
10.9690,6.3043
11.0232,6.2232
11.1043,6.1690
11.2000,6.1500
11.8500,6.1500
11.9457,6.1690
12.0268,6.2232
12.0810,6.3043
12.1000,6.4000
Z" /> 
<path style="fill:#B4A09A; fill-opacity:0.9000; stroke:none;fill-rule:evenodd;"
d="M 9.1500,7.7000
9.1310,7.7957
9.0768,7.8768
8.9957,7.9310
8.9000,7.9500
8.2500,7.9500
8.1543,7.9310
8.0732,7.8768
8.0190,7.7957
8.0000,7.7000
8.0000,6.4000
8.0190,6.3043
8.0732,6.2232
8.1543,6.1690
8.2500,6.1500
8.9000,6.1500
8.9957,6.1690
9.0768,6.2232
9.1310,6.3043
9.1500,6.4000
Z" /> 
<path style="fill:#B4A09A; fill-opacity:0.9000; stroke:none;fill-rule:evenodd;"
d="M 2.0000,9.4000
2.0190,9.3043
2.0732,9.2232
2.1543,9.1690
2.2500,9.1500
2.9000,9.1500
2.9957,9.1690
3.0768,9.2232
3.1310,9.3043
3.1500,9.4000
3.1500,10.7000
3.1310,10.7957
3.0768,10.8768
2.9957,10.9310
2.9000,10.9500
2.2500,10.9500
2.1543,10.9310
2.0732,10.8768
2.0190,10.7957
2.0000,10.7000
Z" /> 
<path style="fill:#B4A09A; fill-opacity:0.9000; stroke:none;fill-rule:evenodd;"
d="M 4.9500,9.4000
4.9690,9.3043
5.0232,9.2232
5.1043,9.1690
5.2000,9.1500
5.8500,9.1500
5.9457,9.1690
6.0268,9.2232
6.0810,9.3043
6.1000,9.4000
6.1000,10.7000
6.0810,10.7957
6.0268,10.8768
5.9457,10.9310
5.8500,10.9500
5.2000,10.9500
5.1043,10.9310
5.0232,10.8768
4.9690,10.7957
4.9500,10.7000
Z" /> 
<path style="fill:#B4A09A; fill-opacity:0.9000; stroke:none;fill-rule:evenodd;"
d="M 12.1000,10.7000
12.0810,10.7957
12.0268,10.8768
11.9457,10.9310
11.8500,10.9500
11.2000,10.9500
11.1043,10.9310
11.0232,10.8768
10.9690,10.7957
10.9500,10.7000
10.9500,9.4000
10.9690,9.3043
11.0232,9.2232
11.1043,9.1690
11.2000,9.1500
11.8500,9.1500
11.9457,9.1690
12.0268,9.2232
12.0810,9.3043
12.1000,9.4000
Z" /> 
<path style="fill:#B4A09A; fill-opacity:0.9000; stroke:none;fill-rule:evenodd;"
d="M 9.1500,10.7000
9.1310,10.7957
9.0768,10.8768
8.9957,10.9310
8.9000,10.9500
8.2500,10.9500
8.1543,10.9310
8.0732,10.8768
8.0190,10.7957
8.0000,10.7000
8.0000,9.4000
8.0190,9.3043
8.0732,9.2232
8.1543,9.1690
8.2500,9.1500
8.9000,9.1500
8.9957,9.1690
9.0768,9.2232
9.1310,9.3043
9.1500,9.4000
Z" /> 
<path style="fill:#B4A09A; fill-opacity:0.9000; stroke:none;fill-rule:evenodd;"
d="M 5.3750,11.9500
5.3864,11.8926
5.4189,11.8439
5.4676,11.8114
5.5250,11.8000
6.7000,11.8000
6.7574,11.8114
6.8061,11.8439
6.8386,11.8926
6.8500,11.9500
6.8500,12.2500
6.8386,12.3074
6.8061,12.3561
6.7574,12.3886
6.7000,12.4000
5.5250,12.4000
5.4676,12.3886
5.4189,12.3561
5.3864,12.3074
5.3750,12.2500
Z" /> 
<path style="fill:#B4A09A; fill-opacity:0.9000; stroke:none;fill-rule:evenodd;"
d="M 5.3750,13.8500
5.3864,13.7926
5.4189,13.7439
5.4676,13.7114
5.5250,13.7000
6.7000,13.7000
6.7574,13.7114
6.8061,13.7439
6.8386,13.7926
6.8500,13.8500
6.8500,14.1500
6.8386,14.2074
6.8061,14.2561
6.7574,14.2886
6.7000,14.3000
5.5250,14.3000
5.4676,14.2886
5.4189,14.2561
5.3864,14.2074
5.3750,14.1500
Z" /> 
<path style="fill:#B4A09A; fill-opacity:0.9000; stroke:none;fill-rule:evenodd;"
d="M 7.2500,12.9000
7.2614,12.8426
7.2939,12.7939
7.3426,12.7614
7.4000,12.7500
8.5750,12.7500
8.6324,12.7614
8.6811,12.7939
8.7136,12.8426
8.7250,12.9000
8.7250,13.2000
8.7136,13.2574
8.6811,13.3061
8.6324,13.3386
8.5750,13.3500
7.4000,13.3500
7.3426,13.3386
7.2939,13.3061
7.2614,13.2574
7.2500,13.2000
Z" /> 
</g>
<g style="fill:none; 
stroke:#F2EDA1; stroke-width:0.1200; stroke-opacity:1; 
stroke-linecap:round; stroke-linejoin:round;">
<text x="5.5900" y="2.0500"
textLength="2.3533" font-size="0.9333" lengthAdjust="spacingAndGlyphs"
text-anchor="start" opacity="0" stroke-opacity="0">GND</text>
<g class="stroked-text"><desc>GND</desc>
<path d="M6.2023 1.2914
L6.1356 1.2581
" />
<path d="M6.1356 1.2581
L6.0356 1.2581
" />
<path d="M6.0356 1.2581
L5.9356 1.2914
" />
<path d="M5.9356 1.2914
L5.8689 1.3581
" />
<path d="M5.8689 1.3581
L5.8356 1.4248
" />
<path d="M5.8356 1.4248
L5.8023 1.5581
" />
<path d="M5.8023 1.5581
L5.8023 1.6581
" />
<path d="M5.8023 1.6581
L5.8356 1.7914
" />
<path d="M5.8356 1.7914
L5.8689 1.8581
" />
<path d="M5.8689 1.8581
L5.9356 1.9248
" />
<path d="M5.9356 1.9248
L6.0356 1.9581
" />
<path d="M6.0356 1.9581
L6.1023 1.9581
" />
<path d="M6.1023 1.9581
L6.2023 1.9248
" />
<path d="M6.2023 1.9248
L6.2356 1.8914
" />
<path d="M6.2356 1.8914
L6.2356 1.6581
" />
<path d="M6.2356 1.6581
L6.1023 1.6581
" />
<path d="M6.5356 1.9581
L6.5356 1.2581
" />
<path d="M6.5356 1.2581
L6.9356 1.9581
" />
<path d="M6.9356 1.9581
L6.9356 1.2581
" />
<path d="M7.2689 1.9581
L7.2689 1.2581
" />
<path d="M7.2689 1.2581
L7.4356 1.2581
" />
<path d="M7.4356 1.2581
L7.5356 1.2914
" />
<path d="M7.5356 1.2914
L7.6023 1.3581
" />
<path d="M7.6023 1.3581
L7.6356 1.4248
" />
<path d="M7.6356 1.4248
L7.6689 1.5581
" />
<path d="M7.6689 1.5581
L7.6689 1.6581
" />
<path d="M7.6689 1.6581
L7.6356 1.7914
" />
<path d="M7.6356 1.7914
L7.6023 1.8581
" />
<path d="M7.6023 1.8581
L7.5356 1.9248
" />
<path d="M7.5356 1.9248
L7.4356 1.9581
" />
<path d="M7.4356 1.9581
L7.2689 1.9581
" />
</g><text x="3.0500" y="2.0500"
textLength="1.4867" font-size="0.9333" lengthAdjust="spacingAndGlyphs"
text-anchor="start" opacity="0" stroke-opacity="0">6V</text>
<g class="stroked-text"><desc>6V</desc>
<path d="M3.5956 1.2581
L3.4623 1.2581
" />
<path d="M3.4623 1.2581
L3.3956 1.2914
" />
<path d="M3.3956 1.2914
L3.3623 1.3248
" />
<path d="M3.3623 1.3248
L3.2956 1.4248
" />
<path d="M3.2956 1.4248
L3.2623 1.5581
" />
<path d="M3.2623 1.5581
L3.2623 1.8248
" />
<path d="M3.2623 1.8248
L3.2956 1.8914
" />
<path d="M3.2956 1.8914
L3.3289 1.9248
" />
<path d="M3.3289 1.9248
L3.3956 1.9581
" />
<path d="M3.3956 1.9581
L3.5289 1.9581
" />
<path d="M3.5289 1.9581
L3.5956 1.9248
" />
<path d="M3.5956 1.9248
L3.6289 1.8914
" />
<path d="M3.6289 1.8914
L3.6623 1.8248
" />
<path d="M3.6623 1.8248
L3.6623 1.6581
" />
<path d="M3.6623 1.6581
L3.6289 1.5914
" />
<path d="M3.6289 1.5914
L3.5956 1.5581
" />
<path d="M3.5956 1.5581
L3.5289 1.5248
" />
<path d="M3.5289 1.5248
L3.3956 1.5248
" />
<path d="M3.3956 1.5248
L3.3289 1.5581
" />
<path d="M3.3289 1.5581
L3.2956 1.5914
" />
<path d="M3.2956 1.5914
L3.2623 1.6581
" />
<path d="M3.8623 1.2581
L4.0956 1.9581
" />
<path d="M4.0956 1.9581
L4.3289 1.2581
" />
</g><text x="8.1300" y="2.0500"
textLength="2.1533" font-size="0.9333" lengthAdjust="spacingAndGlyphs"
text-anchor="start" opacity="0" stroke-opacity="0">3V3</text>
<g class="stroked-text"><desc>3V3</desc>
<path d="M8.3089 1.2581
L8.7423 1.2581
" />
<path d="M8.7423 1.2581
L8.5089 1.5248
" />
<path d="M8.5089 1.5248
L8.6089 1.5248
" />
<path d="M8.6089 1.5248
L8.6756 1.5581
" />
<path d="M8.6756 1.5581
L8.7089 1.5914
" />
<path d="M8.7089 1.5914
L8.7423 1.6581
" />
<path d="M8.7423 1.6581
L8.7423 1.8248
" />
<path d="M8.7423 1.8248
L8.7089 1.8914
" />
<path d="M8.7089 1.8914
L8.6756 1.9248
" />
<path d="M8.6756 1.9248
L8.6089 1.9581
" />
<path d="M8.6089 1.9581
L8.4089 1.9581
" />
<path d="M8.4089 1.9581
L8.3423 1.9248
" />
<path d="M8.3423 1.9248
L8.3089 1.8914
" />
<path d="M8.9423 1.2581
L9.1756 1.9581
" />
<path d="M9.1756 1.9581
L9.4089 1.2581
" />
<path d="M9.5756 1.2581
L10.0089 1.2581
" />
<path d="M10.0089 1.2581
L9.7756 1.5248
" />
<path d="M9.7756 1.5248
L9.8756 1.5248
" />
<path d="M9.8756 1.5248
L9.9423 1.5581
" />
<path d="M9.9423 1.5581
L9.9756 1.5914
" />
<path d="M9.9756 1.5914
L10.0089 1.6581
" />
<path d="M10.0089 1.6581
L10.0089 1.8248
" />
<path d="M10.0089 1.8248
L9.9756 1.8914
" />
<path d="M9.9756 1.8914
L9.9423 1.9248
" />
<path d="M9.9423 1.9248
L9.8756 1.9581
" />
<path d="M9.8756 1.9581
L9.6756 1.9581
" />
<path d="M9.6756 1.9581
L9.6089 1.9248
" />
<path d="M9.6089 1.9248
L9.5756 1.8914
" />
</g><text x="4.0577" y="7.4000"
textLength="1.5867" font-size="0.9333" lengthAdjust="spacingAndGlyphs"
text-anchor="middle" opacity="0" stroke-opacity="0">C1</text>
<g class="stroked-text"><desc>C1</desc>
<path d="M3.9410 7.3009
L3.9077 7.3343
" />
<path d="M3.9077 7.3343
L3.8077 7.3676
" />
<path d="M3.8077 7.3676
L3.7410 7.3676
" />
<path d="M3.7410 7.3676
L3.6410 7.3343
" />
<path d="M3.6410 7.3343
L3.5743 7.2676
" />
<path d="M3.5743 7.2676
L3.5410 7.2009
" />
<path d="M3.5410 7.2009
L3.5077 7.0676
" />
<path d="M3.5077 7.0676
L3.5077 6.9676
" />
<path d="M3.5077 6.9676
L3.5410 6.8343
" />
<path d="M3.5410 6.8343
L3.5743 6.7676
" />
<path d="M3.5743 6.7676
L3.6410 6.7009
" />
<path d="M3.6410 6.7009
L3.7410 6.6676
" />
<path d="M3.7410 6.6676
L3.8077 6.6676
" />
<path d="M3.8077 6.6676
L3.9077 6.7009
" />
<path d="M3.9077 6.7009
L3.9410 6.7343
" />
<path d="M4.6077 7.3676
L4.2077 7.3676
" />
<path d="M4.4077 7.3676
L4.4077 6.6676
" />
<path d="M4.4077 6.6676
L4.3410 6.7676
" />
<path d="M4.3410 6.7676
L4.2743 6.8343
" />
<path d="M4.2743 6.8343
L4.2077 6.8676
" />
</g><text x="4.0500" y="5.4000"
textLength="2.7867" font-size="0.9333" lengthAdjust="spacingAndGlyphs"
text-anchor="middle" opacity="0" stroke-opacity="0">10uF</text>
<g class="stroked-text"><desc>10uF</desc>
<path d="M3.3000 5.3676
L2.9000 5.3676
" />
<path d="M3.1000 5.3676
L3.1000 4.6676
" />
<path d="M3.1000 4.6676
L3.0333 4.7676
" />
<path d="M3.0333 4.7676
L2.9667 4.8343
" />
<path d="M2.9667 4.8343
L2.9000 4.8676
" />
<path d="M3.7333 4.6676
L3.8000 4.6676
" />
<path d="M3.8000 4.6676
L3.8667 4.7009
" />
<path d="M3.8667 4.7009
L3.9000 4.7343
" />
<path d="M3.9000 4.7343
L3.9333 4.8009
" />
<path d="M3.9333 4.8009
L3.9667 4.9343
" />
<path d="M3.9667 4.9343
L3.9667 5.1009
" />
<path d="M3.9667 5.1009
L3.9333 5.2343
" />
<path d="M3.9333 5.2343
L3.9000 5.3009
" />
<path d="M3.9000 5.3009
L3.8667 5.3343
" />
<path d="M3.8667 5.3343
L3.8000 5.3676
" />
<path d="M3.8000 5.3676
L3.7333 5.3676
" />
<path d="M3.7333 5.3676
L3.6667 5.3343
" />
<path d="M3.6667 5.3343
L3.6333 5.3009
" />
<path d="M3.6333 5.3009
L3.6000 5.2343
" />
<path d="M3.6000 5.2343
L3.5667 5.1009
" />
<path d="M3.5667 5.1009
L3.5667 4.9343
" />
<path d="M3.5667 4.9343
L3.6000 4.8009
" />
<path d="M3.6000 4.8009
L3.6333 4.7343
" />
<path d="M3.6333 4.7343
L3.6667 4.7009
" />
<path d="M3.6667 4.7009
L3.7333 4.6676
" />
<path d="M4.5667 4.9009
L4.5667 5.3676
" />
<path d="M4.2667 4.9009
L4.2667 5.2676
" />
<path d="M4.2667 5.2676
L4.3000 5.3343
" />
<path d="M4.3000 5.3343
L4.3667 5.3676
" />
<path d="M4.3667 5.3676
L4.4667 5.3676
" />
<path d="M4.4667 5.3676
L4.5333 5.3343
" />
<path d="M4.5333 5.3343
L4.5667 5.3009
" />
<path d="M5.1333 5.0009
L4.9000 5.0009
" />
<path d="M4.9000 5.3676
L4.9000 4.6676
" />
<path d="M4.9000 4.6676
L5.2333 4.6676
" />
</g><text x="10.0423" y="7.4000"
textLength="1.5867" font-size="0.9333" lengthAdjust="spacingAndGlyphs"
text-anchor="middle" opacity="0" stroke-opacity="0">C4</text>
<g class="stroked-text"><desc>C4</desc>
<path d="M9.9257 7.3009
L9.8923 7.3343
" />
<path d="M9.8923 7.3343
L9.7923 7.3676
" />
<path d="M9.7923 7.3676
L9.7257 7.3676
" />
<path d="M9.7257 7.3676
L9.6257 7.3343
" />
<path d="M9.6257 7.3343
L9.5590 7.2676
" />
<path d="M9.5590 7.2676
L9.5257 7.2009
" />
<path d="M9.5257 7.2009
L9.4923 7.0676
" />
<path d="M9.4923 7.0676
L9.4923 6.9676
" />
<path d="M9.4923 6.9676
L9.5257 6.8343
" />
<path d="M9.5257 6.8343
L9.5590 6.7676
" />
<path d="M9.5590 6.7676
L9.6257 6.7009
" />
<path d="M9.6257 6.7009
L9.7257 6.6676
" />
<path d="M9.7257 6.6676
L9.7923 6.6676
" />
<path d="M9.7923 6.6676
L9.8923 6.7009
" />
<path d="M9.8923 6.7009
L9.9257 6.7343
" />
<path d="M10.5257 6.9009
L10.5257 7.3676
" />
<path d="M10.3590 6.6343
L10.1923 7.1343
" />
<path d="M10.1923 7.1343
L10.6257 7.1343
" />
</g><text x="10.0500" y="5.4000"
textLength="3.4533" font-size="0.9333" lengthAdjust="spacingAndGlyphs"
text-anchor="middle" opacity="0" stroke-opacity="0">100nF</text>
<g class="stroked-text"><desc>100nF</desc>
<path d="M8.9667 5.3676
L8.5667 5.3676
" />
<path d="M8.7667 5.3676
L8.7667 4.6676
" />
<path d="M8.7667 4.6676
L8.7000 4.7676
" />
<path d="M8.7000 4.7676
L8.6333 4.8343
" />
<path d="M8.6333 4.8343
L8.5667 4.8676
" />
<path d="M9.4000 4.6676
L9.4667 4.6676
" />
<path d="M9.4667 4.6676
L9.5333 4.7009
" />
<path d="M9.5333 4.7009
L9.5667 4.7343
" />
<path d="M9.5667 4.7343
L9.6000 4.8009
" />
<path d="M9.6000 4.8009
L9.6333 4.9343
" />
<path d="M9.6333 4.9343
L9.6333 5.1009
" />
<path d="M9.6333 5.1009
L9.6000 5.2343
" />
<path d="M9.6000 5.2343
L9.5667 5.3009
" />
<path d="M9.5667 5.3009
L9.5333 5.3343
" />
<path d="M9.5333 5.3343
L9.4667 5.3676
" />
<path d="M9.4667 5.3676
L9.4000 5.3676
" />
<path d="M9.4000 5.3676
L9.3333 5.3343
" />
<path d="M9.3333 5.3343
L9.3000 5.3009
" />
<path d="M9.3000 5.3009
L9.2667 5.2343
" />
<path d="M9.2667 5.2343
L9.2333 5.1009
" />
<path d="M9.2333 5.1009
L9.2333 4.9343
" />
<path d="M9.2333 4.9343
L9.2667 4.8009
" />
<path d="M9.2667 4.8009
L9.3000 4.7343
" />
<path d="M9.3000 4.7343
L9.3333 4.7009
" />
<path d="M9.3333 4.7009
L9.4000 4.6676
" />
<path d="M10.0667 4.6676
L10.1333 4.6676
" />
<path d="M10.1333 4.6676
L10.2000 4.7009
" />
<path d="M10.2000 4.7009
L10.2333 4.7343
" />
<path d="M10.2333 4.7343
L10.2667 4.8009
" />
<path d="M10.2667 4.8009
L10.3000 4.9343
" />
<path d="M10.3000 4.9343
L10.3000 5.1009
" />
<path d="M10.3000 5.1009
L10.2667 5.2343
" />
<path d="M10.2667 5.2343
L10.2333 5.3009
" />
<path d="M10.2333 5.3009
L10.2000 5.3343
" />
<path d="M10.2000 5.3343
L10.1333 5.3676
" />
<path d="M10.1333 5.3676
L10.0667 5.3676
" />
<path d="M10.0667 5.3676
L10.0000 5.3343
" />
<path d="M10.0000 5.3343
L9.9667 5.3009
" />
<path d="M9.9667 5.3009
L9.9333 5.2343
" />
<path d="M9.9333 5.2343
L9.9000 5.1009
" />
<path d="M9.9000 5.1009
L9.9000 4.9343
" />
<path d="M9.9000 4.9343
L9.9333 4.8009
" />
<path d="M9.9333 4.8009
L9.9667 4.7343
" />
<path d="M9.9667 4.7343
L10.0000 4.7009
" />
<path d="M10.0000 4.7009
L10.0667 4.6676
" />
<path d="M10.6000 4.9009
L10.6000 5.3676
" />
<path d="M10.6000 4.9676
L10.6333 4.9343
" />
<path d="M10.6333 4.9343
L10.7000 4.9009
" />
<path d="M10.7000 4.9009
L10.8000 4.9009
" />
<path d="M10.8000 4.9009
L10.8667 4.9343
" />
<path d="M10.8667 4.9343
L10.9000 5.0009
" />
<path d="M10.9000 5.0009
L10.9000 5.3676
" />
<path d="M11.4667 5.0009
L11.2333 5.0009
" />
<path d="M11.2333 5.3676
L11.2333 4.6676
" />
<path d="M11.2333 4.6676
L11.5667 4.6676
" />
</g><text x="4.0577" y="10.4000"
textLength="1.5867" font-size="0.9333" lengthAdjust="spacingAndGlyphs"
text-anchor="middle" opacity="0" stroke-opacity="0">C2</text>
<g class="stroked-text"><desc>C2</desc>
<path d="M3.9410 10.3009
L3.9077 10.3343
" />
<path d="M3.9077 10.3343
L3.8077 10.3676
" />
<path d="M3.8077 10.3676
L3.7410 10.3676
" />
<path d="M3.7410 10.3676
L3.6410 10.3343
" />
<path d="M3.6410 10.3343
L3.5743 10.2676
" />
<path d="M3.5743 10.2676
L3.5410 10.2009
" />
<path d="M3.5410 10.2009
L3.5077 10.0676
" />
<path d="M3.5077 10.0676
L3.5077 9.9676
" />
<path d="M3.5077 9.9676
L3.5410 9.8343
" />
<path d="M3.5410 9.8343
L3.5743 9.7676
" />
<path d="M3.5743 9.7676
L3.6410 9.7009
" />
<path d="M3.6410 9.7009
L3.7410 9.6676
" />
<path d="M3.7410 9.6676
L3.8077 9.6676
" />
<path d="M3.8077 9.6676
L3.9077 9.7009
" />
<path d="M3.9077 9.7009
L3.9410 9.7343
" />
<path d="M4.2077 9.7343
L4.2410 9.7009
" />
<path d="M4.2410 9.7009
L4.3077 9.6676
" />
<path d="M4.3077 9.6676
L4.4743 9.6676
" />
<path d="M4.4743 9.6676
L4.5410 9.7009
" />
<path d="M4.5410 9.7009
L4.5743 9.7343
" />
<path d="M4.5743 9.7343
L4.6077 9.8009
" />
<path d="M4.6077 9.8009
L4.6077 9.8676
" />
<path d="M4.6077 9.8676
L4.5743 9.9676
" />
<path d="M4.5743 9.9676
L4.1743 10.3676
" />
<path d="M4.1743 10.3676
L4.6077 10.3676
" />
</g><text x="4.0500" y="12.4000"
textLength="3.4533" font-size="0.9333" lengthAdjust="spacingAndGlyphs"
text-anchor="middle" opacity="0" stroke-opacity="0">100nF</text>
<g class="stroked-text"><desc>100nF</desc>
<path d="M2.9667 12.3676
L2.5667 12.3676
" />
<path d="M2.7667 12.3676
L2.7667 11.6676
" />
<path d="M2.7667 11.6676
L2.7000 11.7676
" />
<path d="M2.7000 11.7676
L2.6333 11.8343
" />
<path d="M2.6333 11.8343
L2.5667 11.8676
" />
<path d="M3.4000 11.6676
L3.4667 11.6676
" />
<path d="M3.4667 11.6676
L3.5333 11.7009
" />
<path d="M3.5333 11.7009
L3.5667 11.7343
" />
<path d="M3.5667 11.7343
L3.6000 11.8009
" />
<path d="M3.6000 11.8009
L3.6333 11.9343
" />
<path d="M3.6333 11.9343
L3.6333 12.1009
" />
<path d="M3.6333 12.1009
L3.6000 12.2343
" />
<path d="M3.6000 12.2343
L3.5667 12.3009
" />
<path d="M3.5667 12.3009
L3.5333 12.3343
" />
<path d="M3.5333 12.3343
L3.4667 12.3676
" />
<path d="M3.4667 12.3676
L3.4000 12.3676
" />
<path d="M3.4000 12.3676
L3.3333 12.3343
" />
<path d="M3.3333 12.3343
L3.3000 12.3009
" />
<path d="M3.3000 12.3009
L3.2667 12.2343
" />
<path d="M3.2667 12.2343
L3.2333 12.1009
" />
<path d="M3.2333 12.1009
L3.2333 11.9343
" />
<path d="M3.2333 11.9343
L3.2667 11.8009
" />
<path d="M3.2667 11.8009
L3.3000 11.7343
" />
<path d="M3.3000 11.7343
L3.3333 11.7009
" />
<path d="M3.3333 11.7009
L3.4000 11.6676
" />
<path d="M4.0667 11.6676
L4.1333 11.6676
" />
<path d="M4.1333 11.6676
L4.2000 11.7009
" />
<path d="M4.2000 11.7009
L4.2333 11.7343
" />
<path d="M4.2333 11.7343
L4.2667 11.8009
" />
<path d="M4.2667 11.8009
L4.3000 11.9343
" />
<path d="M4.3000 11.9343
L4.3000 12.1009
" />
<path d="M4.3000 12.1009
L4.2667 12.2343
" />
<path d="M4.2667 12.2343
L4.2333 12.3009
" />
<path d="M4.2333 12.3009
L4.2000 12.3343
" />
<path d="M4.2000 12.3343
L4.1333 12.3676
" />
<path d="M4.1333 12.3676
L4.0667 12.3676
" />
<path d="M4.0667 12.3676
L4.0000 12.3343
" />
<path d="M4.0000 12.3343
L3.9667 12.3009
" />
<path d="M3.9667 12.3009
L3.9333 12.2343
" />
<path d="M3.9333 12.2343
L3.9000 12.1009
" />
<path d="M3.9000 12.1009
L3.9000 11.9343
" />
<path d="M3.9000 11.9343
L3.9333 11.8009
" />
<path d="M3.9333 11.8009
L3.9667 11.7343
" />
<path d="M3.9667 11.7343
L4.0000 11.7009
" />
<path d="M4.0000 11.7009
L4.0667 11.6676
" />
<path d="M4.6000 11.9009
L4.6000 12.3676
" />
<path d="M4.6000 11.9676
L4.6333 11.9343
" />
<path d="M4.6333 11.9343
L4.7000 11.9009
" />
<path d="M4.7000 11.9009
L4.8000 11.9009
" />
<path d="M4.8000 11.9009
L4.8667 11.9343
" />
<path d="M4.8667 11.9343
L4.9000 12.0009
" />
<path d="M4.9000 12.0009
L4.9000 12.3676
" />
<path d="M5.4667 12.0009
L5.2333 12.0009
" />
<path d="M5.2333 12.3676
L5.2333 11.6676
" />
<path d="M5.2333 11.6676
L5.5667 11.6676
" />
</g><text x="10.0500" y="10.4000"
textLength="1.5867" font-size="0.9333" lengthAdjust="spacingAndGlyphs"
text-anchor="middle" opacity="0" stroke-opacity="0">C3</text>
<g class="stroked-text"><desc>C3</desc>
<path d="M9.9333 10.3009
L9.9000 10.3343
" />
<path d="M9.9000 10.3343
L9.8000 10.3676
" />
<path d="M9.8000 10.3676
L9.7333 10.3676
" />
<path d="M9.7333 10.3676
L9.6333 10.3343
" />
<path d="M9.6333 10.3343
L9.5667 10.2676
" />
<path d="M9.5667 10.2676
L9.5333 10.2009
" />
<path d="M9.5333 10.2009
L9.5000 10.0676
" />
<path d="M9.5000 10.0676
L9.5000 9.9676
" />
<path d="M9.5000 9.9676
L9.5333 9.8343
" />
<path d="M9.5333 9.8343
L9.5667 9.7676
" />
<path d="M9.5667 9.7676
L9.6333 9.7009
" />
<path d="M9.6333 9.7009
L9.7333 9.6676
" />
<path d="M9.7333 9.6676
L9.8000 9.6676
" />
<path d="M9.8000 9.6676
L9.9000 9.7009
" />
<path d="M9.9000 9.7009
L9.9333 9.7343
" />
<path d="M10.1667 9.6676
L10.6000 9.6676
" />
<path d="M10.6000 9.6676
L10.3667 9.9343
" />
<path d="M10.3667 9.9343
L10.4667 9.9343
" />
<path d="M10.4667 9.9343
L10.5333 9.9676
" />
<path d="M10.5333 9.9676
L10.5667 10.0009
" />
<path d="M10.5667 10.0009
L10.6000 10.0676
" />
<path d="M10.6000 10.0676
L10.6000 10.2343
" />
<path d="M10.6000 10.2343
L10.5667 10.3009
" />
<path d="M10.5667 10.3009
L10.5333 10.3343
" />
<path d="M10.5333 10.3343
L10.4667 10.3676
" />
<path d="M10.4667 10.3676
L10.2667 10.3676
" />
<path d="M10.2667 10.3676
L10.2000 10.3343
" />
<path d="M10.2000 10.3343
L10.1667 10.3009
" />
</g><text x="10.0500" y="12.4000"
textLength="2.7867" font-size="0.9333" lengthAdjust="spacingAndGlyphs"
text-anchor="middle" opacity="0" stroke-opacity="0">10uF</text>
<g class="stroked-text"><desc>10uF</desc>
<path d="M9.3000 12.3676
L8.9000 12.3676
" />
<path d="M9.1000 12.3676
L9.1000 11.6676
" />
<path d="M9.1000 11.6676
L9.0333 11.7676
" />
<path d="M9.0333 11.7676
L8.9667 11.8343
" />
<path d="M8.9667 11.8343
L8.9000 11.8676
" />
<path d="M9.7333 11.6676
L9.8000 11.6676
" />
<path d="M9.8000 11.6676
L9.8667 11.7009
" />
<path d="M9.8667 11.7009
L9.9000 11.7343
" />
<path d="M9.9000 11.7343
L9.9333 11.8009
" />
<path d="M9.9333 11.8009
L9.9667 11.9343
" />
<path d="M9.9667 11.9343
L9.9667 12.1009
" />
<path d="M9.9667 12.1009
L9.9333 12.2343
" />
<path d="M9.9333 12.2343
L9.9000 12.3009
" />
<path d="M9.9000 12.3009
L9.8667 12.3343
" />
<path d="M9.8667 12.3343
L9.8000 12.3676
" />
<path d="M9.8000 12.3676
L9.7333 12.3676
" />
<path d="M9.7333 12.3676
L9.6667 12.3343
" />
<path d="M9.6667 12.3343
L9.6333 12.3009
" />
<path d="M9.6333 12.3009
L9.6000 12.2343
" />
<path d="M9.6000 12.2343
L9.5667 12.1009
" />
<path d="M9.5667 12.1009
L9.5667 11.9343
" />
<path d="M9.5667 11.9343
L9.6000 11.8009
" />
<path d="M9.6000 11.8009
L9.6333 11.7343
" />
<path d="M9.6333 11.7343
L9.6667 11.7009
" />
<path d="M9.6667 11.7009
L9.7333 11.6676
" />
<path d="M10.5667 11.9009
L10.5667 12.3676
" />
<path d="M10.2667 11.9009
L10.2667 12.2676
" />
<path d="M10.2667 12.2676
L10.3000 12.3343
" />
<path d="M10.3000 12.3343
L10.3667 12.3676
" />
<path d="M10.3667 12.3676
L10.4667 12.3676
" />
<path d="M10.4667 12.3676
L10.5333 12.3343
" />
<path d="M10.5333 12.3343
L10.5667 12.3009
" />
<path d="M11.1333 12.0009
L10.9000 12.0009
" />
<path d="M10.9000 12.3676
L10.9000 11.6676
" />
<path d="M10.9000 11.6676
L11.2333 11.6676
" />
</g><text x="10.0500" y="14.4000"
textLength="1.6200" font-size="0.9333" lengthAdjust="spacingAndGlyphs"
text-anchor="middle" opacity="0" stroke-opacity="0">U1</text>
<g class="stroked-text"><desc>U1</desc>
<path d="M9.5167 13.6676
L9.5167 14.2343
" />
<path d="M9.5167 14.2343
L9.5500 14.3009
" />
<path d="M9.5500 14.3009
L9.5833 14.3343
" />
<path d="M9.5833 14.3343
L9.6500 14.3676
" />
<path d="M9.6500 14.3676
L9.7833 14.3676
" />
<path d="M9.7833 14.3676
L9.8500 14.3343
" />
<path d="M9.8500 14.3343
L9.8833 14.3009
" />
<path d="M9.8833 14.3009
L9.9167 14.2343
" />
<path d="M9.9167 14.2343
L9.9167 13.6676
" />
<path d="M10.6167 14.3676
L10.2167 14.3676
" />
<path d="M10.4167 14.3676
L10.4167 13.6676
" />
<path d="M10.4167 13.6676
L10.3500 13.7676
" />
<path d="M10.3500 13.7676
L10.2833 13.8343
" />
<path d="M10.2833 13.8343
L10.2167 13.8676
" />
</g><text x="7.0500" y="15.8000"
textLength="7.6200" font-size="0.9333" lengthAdjust="spacingAndGlyphs"
text-anchor="middle" opacity="0" stroke-opacity="0">ME6206A33XG</text>
<g class="stroked-text"><desc>ME6206A33XG</desc>
<path d="M3.5167 15.7676
L3.5167 15.0676
" />
<path d="M3.5167 15.0676
L3.7500 15.5676
" />
<path d="M3.7500 15.5676
L3.9833 15.0676
" />
<path d="M3.9833 15.0676
L3.9833 15.7676
" />
<path d="M4.3167 15.4009
L4.5500 15.4009
" />
<path d="M4.6500 15.7676
L4.3167 15.7676
" />
<path d="M4.3167 15.7676
L4.3167 15.0676
" />
<path d="M4.3167 15.0676
L4.6500 15.0676
" />
<path d="M5.2500 15.0676
L5.1167 15.0676
" />
<path d="M5.1167 15.0676
L5.0500 15.1009
" />
<path d="M5.0500 15.1009
L5.0167 15.1343
" />
<path d="M5.0167 15.1343
L4.9500 15.2343
" />
<path d="M4.9500 15.2343
L4.9167 15.3676
" />
<path d="M4.9167 15.3676
L4.9167 15.6343
" />
<path d="M4.9167 15.6343
L4.9500 15.7009
" />
<path d="M4.9500 15.7009
L4.9833 15.7343
" />
<path d="M4.9833 15.7343
L5.0500 15.7676
" />
<path d="M5.0500 15.7676
L5.1833 15.7676
" />
<path d="M5.1833 15.7676
L5.2500 15.7343
" />
<path d="M5.2500 15.7343
L5.2833 15.7009
" />
<path d="M5.2833 15.7009
L5.3167 15.6343
" />
<path d="M5.3167 15.6343
L5.3167 15.4676
" />
<path d="M5.3167 15.4676
L5.2833 15.4009
" />
<path d="M5.2833 15.4009
L5.2500 15.3676
" />
<path d="M5.2500 15.3676
L5.1833 15.3343
" />
<path d="M5.1833 15.3343
L5.0500 15.3343
" />
<path d="M5.0500 15.3343
L4.9833 15.3676
" />
<path d="M4.9833 15.3676
L4.9500 15.4009
" />
<path d="M4.9500 15.4009
L4.9167 15.4676
" />
<path d="M5.5833 15.1343
L5.6167 15.1009
" />
<path d="M5.6167 15.1009
L5.6833 15.0676
" />
<path d="M5.6833 15.0676
L5.8500 15.0676
" />
<path d="M5.8500 15.0676
L5.9167 15.1009
" />
<path d="M5.9167 15.1009
L5.9500 15.1343
" />
<path d="M5.9500 15.1343
L5.9833 15.2009
" />
<path d="M5.9833 15.2009
L5.9833 15.2676
" />
<path d="M5.9833 15.2676
L5.9500 15.3676
" />
<path d="M5.9500 15.3676
L5.5500 15.7676
" />
<path d="M5.5500 15.7676
L5.9833 15.7676
" />
<path d="M6.4167 15.0676
L6.4833 15.0676
" />
<path d="M6.4833 15.0676
L6.5500 15.1009
" />
<path d="M6.5500 15.1009
L6.5833 15.1343
" />
<path d="M6.5833 15.1343
L6.6167 15.2009
" />
<path d="M6.6167 15.2009
L6.6500 15.3343
" />
<path d="M6.6500 15.3343
L6.6500 15.5009
" />
<path d="M6.6500 15.5009
L6.6167 15.6343
" />
<path d="M6.6167 15.6343
L6.5833 15.7009
" />
<path d="M6.5833 15.7009
L6.5500 15.7343
" />
<path d="M6.5500 15.7343
L6.4833 15.7676
" />
<path d="M6.4833 15.7676
L6.4167 15.7676
" />
<path d="M6.4167 15.7676
L6.3500 15.7343
" />
<path d="M6.3500 15.7343
L6.3167 15.7009
" />
<path d="M6.3167 15.7009
L6.2833 15.6343
" />
<path d="M6.2833 15.6343
L6.2500 15.5009
" />
<path d="M6.2500 15.5009
L6.2500 15.3343
" />
<path d="M6.2500 15.3343
L6.2833 15.2009
" />
<path d="M6.2833 15.2009
L6.3167 15.1343
" />
<path d="M6.3167 15.1343
L6.3500 15.1009
" />
<path d="M6.3500 15.1009
L6.4167 15.0676
" />
<path d="M7.2500 15.0676
L7.1167 15.0676
" />
<path d="M7.1167 15.0676
L7.0500 15.1009
" />
<path d="M7.0500 15.1009
L7.0167 15.1343
" />
<path d="M7.0167 15.1343
L6.9500 15.2343
" />
<path d="M6.9500 15.2343
L6.9167 15.3676
" />
<path d="M6.9167 15.3676
L6.9167 15.6343
" />
<path d="M6.9167 15.6343
L6.9500 15.7009
" />
<path d="M6.9500 15.7009
L6.9833 15.7343
" />
<path d="M6.9833 15.7343
L7.0500 15.7676
" />
<path d="M7.0500 15.7676
L7.1833 15.7676
" />
<path d="M7.1833 15.7676
L7.2500 15.7343
" />
<path d="M7.2500 15.7343
L7.2833 15.7009
" />
<path d="M7.2833 15.7009
L7.3167 15.6343
" />
<path d="M7.3167 15.6343
L7.3167 15.4676
" />
<path d="M7.3167 15.4676
L7.2833 15.4009
" />
<path d="M7.2833 15.4009
L7.2500 15.3676
" />
<path d="M7.2500 15.3676
L7.1833 15.3343
" />
<path d="M7.1833 15.3343
L7.0500 15.3343
" />
<path d="M7.0500 15.3343
L6.9833 15.3676
" />
<path d="M6.9833 15.3676
L6.9500 15.4009
" />
<path d="M6.9500 15.4009
L6.9167 15.4676
" />
<path d="M7.5833 15.5676
L7.9167 15.5676
" />
<path d="M7.5167 15.7676
L7.7500 15.0676
" />
<path d="M7.7500 15.0676
L7.9833 15.7676
" />
<path d="M8.1500 15.0676
L8.5833 15.0676
" />
<path d="M8.5833 15.0676
L8.3500 15.3343
" />
<path d="M8.3500 15.3343
L8.4500 15.3343
" />
<path d="M8.4500 15.3343
L8.5167 15.3676
" />
<path d="M8.5167 15.3676
L8.5500 15.4009
" />
<path d="M8.5500 15.4009
L8.5833 15.4676
" />
<path d="M8.5833 15.4676
L8.5833 15.6343
" />
<path d="M8.5833 15.6343
L8.5500 15.7009
" />
<path d="M8.5500 15.7009
L8.5167 15.7343
" />
<path d="M8.5167 15.7343
L8.4500 15.7676
" />
<path d="M8.4500 15.7676
L8.2500 15.7676
" />
<path d="M8.2500 15.7676
L8.1833 15.7343
" />
<path d="M8.1833 15.7343
L8.1500 15.7009
" />
<path d="M8.8167 15.0676
L9.2500 15.0676
" />
<path d="M9.2500 15.0676
L9.0167 15.3343
" />
<path d="M9.0167 15.3343
L9.1167 15.3343
" />
<path d="M9.1167 15.3343
L9.1833 15.3676
" />
<path d="M9.1833 15.3676
L9.2167 15.4009
" />
<path d="M9.2167 15.4009
L9.2500 15.4676
" />
<path d="M9.2500 15.4676
L9.2500 15.6343
" />
<path d="M9.2500 15.6343
L9.2167 15.7009
" />
<path d="M9.2167 15.7009
L9.1833 15.7343
" />
<path d="M9.1833 15.7343
L9.1167 15.7676
" />
<path d="M9.1167 15.7676
L8.9167 15.7676
" />
<path d="M8.9167 15.7676
L8.8500 15.7343
" />
<path d="M8.8500 15.7343
L8.8167 15.7009
" />
<path d="M9.4833 15.0676
L9.9500 15.7676
" />
<path d="M9.9500 15.0676
L9.4833 15.7676
" />
<path d="M10.5833 15.1009
L10.5167 15.0676
" />
<path d="M10.5167 15.0676
L10.4167 15.0676
" />
<path d="M10.4167 15.0676
L10.3167 15.1009
" />
<path d="M10.3167 15.1009
L10.2500 15.1676
" />
<path d="M10.2500 15.1676
L10.2167 15.2343
" />
<path d="M10.2167 15.2343
L10.1833 15.3676
" />
<path d="M10.1833 15.3676
L10.1833 15.4676
" />
<path d="M10.1833 15.4676
L10.2167 15.6009
" />
<path d="M10.2167 15.6009
L10.2500 15.6676
" />
<path d="M10.2500 15.6676
L10.3167 15.7343
" />
<path d="M10.3167 15.7343
L10.4167 15.7676
" />
<path d="M10.4167 15.7676
L10.4833 15.7676
" />
<path d="M10.4833 15.7676
L10.5833 15.7343
" />
<path d="M10.5833 15.7343
L10.6167 15.7009
" />
<path d="M10.6167 15.7009
L10.6167 15.4676
" />
<path d="M10.6167 15.4676
L10.4833 15.4676
" />
</g><path d="M1.9500 8.2500
L6.1500 8.2500
" />
<path d="M6.1500 5.8500
L1.9500 5.8500
" />
<path d="M1.9500 5.8500 A1.9010 1.9010 0.0 0 0 1.9500 8.2500" />
<path d="M6.1500 8.2500 A1.8501 1.8501 0.0 0 0 6.1500 5.8500" />
<path d="M7.9500 8.2500
L12.1500 8.2500
" />
<path d="M12.1500 5.8500
L7.9500 5.8500
" />
<path d="M7.9500 5.8500 A1.8501 1.8501 0.0 0 0 7.9500 8.2500" />
<path d="M12.1500 8.2500 A1.9010 1.9010 0.0 0 0 12.1500 5.8500" />
<path d="M1.9500 11.2500
L6.1500 11.2500
" />
<path d="M6.1500 8.8500
L1.9500 8.8500
" />
<path d="M1.9500 8.8500 A1.9010 1.9010 0.0 0 0 1.9500 11.2500" />
<path d="M6.1500 11.2500 A1.8501 1.8501 0.0 0 0 6.1500 8.8500" />
<path d="M7.9500 11.2500
L12.1500 11.2500
" />
<path d="M12.1500 8.8500
L7.9500 8.8500
" />
<path d="M7.9500 8.8500 A1.8501 1.8501 0.0 0 0 7.9500 11.2500" />
<path d="M12.1500 11.2500 A1.9010 1.9010 0.0 0 0 12.1500 8.8500" />
<path d="M7.0500 11.4900
L6.4000 11.4900
" />
<path d="M7.0500 11.4900
L7.7000 11.4900
" />
<path d="M7.0500 14.6100
L6.4000 14.6100
" />
<path d="M7.0500 14.6100
L7.7000 14.6100
" />
<path style="fill:#F2EDA1; fill-opacity:1.0000; 
stroke:#F2EDA1; stroke-width:0.1200; stroke-opacity:1; 
stroke-linecap:round; stroke-linejoin:round;fill-rule:evenodd;"
d="M 5.8875,11.5400
5.6475,11.2100
6.1275,11.2100
Z" /> 
</g> 
</svg>
