<?xml version="1.0" standalone="no"?>
 <!DOCTYPE svg PUBLIC "-//W3C//DTD SVG 1.1//EN" 
 "http://www.w3.org/Graphics/SVG/1.1/DTD/svg11.dtd"> 
<svg
  xmlns:svg="http://www.w3.org/2000/svg"
  xmlns="http://www.w3.org/2000/svg"
  xmlns:xlink="http://www.w3.org/1999/xlink"
  version="1.1"
  width="297.0022mm" height="210.0072mm" viewBox="0.0000 0.0000 297.0022 210.0072">
<title>SVG Image created as ME6206A33XG-Edge_Cuts.svg date 2025/05/16 15:48:22 </title>
  <desc>Image generated by PCBNEW </desc>
<g style="fill:#000000; fill-opacity:1.0000;stroke:#000000; stroke-opacity:1.0000;
stroke-linecap:round; stroke-linejoin:round;"
 transform="translate(0 0) scale(1 1)">
</g>
<g style="fill:none; 
stroke:#D0D2CD; stroke-width:0.0500; stroke-opacity:1; 
stroke-linecap:round; stroke-linejoin:round;">
<path d="M125.0000 75.0000
L116.0000 75.0000
" />
<path d="M128.0000 62.0000 A3.0000 3.0000 0.0 0 0 125.0000 59.0000" />
<path d="M113.0000 72.0000 A3.0000 3.0000 0.0 0 0 116.0000 75.0000" />
<path d="M116.0000 59.0000 A3.0000 3.0000 0.0 0 0 113.0000 62.0000" />
<path d="M128.0000 62.0000
L128.0000 72.0000
" />
<path d="M125.0000 75.0000 A3.0000 3.0000 0.0 0 0 128.0000 72.0000" />
<path d="M116.0000 59.0000
L125.0000 59.0000
" />
<path d="M113.0000 72.0000
L113.0000 62.0000
" />
<path style="fill:#4D7FC4; fill-opacity:1.0000; stroke:none;fill-rule:evenodd;"
d="M 116.3500,71.2500
116.2543,71.2310
116.1732,71.1768
116.1190,71.0957
116.1000,71.0000
116.1000,69.0000
116.1190,68.9043
116.1732,68.8232
116.2543,68.7690
116.3500,68.7500
117.6500,68.7500
117.7457,68.7690
117.8268,68.8232
117.8810,68.9043
117.9000,69.0000
117.9000,71.0000
117.8810,71.0957
117.8268,71.1768
117.7457,71.2310
117.6500,71.2500
Z" /> 
<path style="fill:#4D7FC4; fill-opacity:1.0000; stroke:none;fill-rule:evenodd;"
d="M 116.3500,67.2500
116.2543,67.2310
116.1732,67.1768
116.1190,67.0957
116.1000,67.0000
116.1000,65.0000
116.1190,64.9043
116.1732,64.8232
116.2543,64.7690
116.3500,64.7500
117.6500,64.7500
117.7457,64.7690
117.8268,64.8232
117.8810,64.9043
117.9000,65.0000
117.9000,67.0000
117.8810,67.0957
117.8268,67.1768
117.7457,67.2310
117.6500,67.2500
Z" /> 
<path style="fill:#4D7FC4; fill-opacity:1.0000; stroke:none;fill-rule:evenodd;"
d="M 122.8500,63.3500
121.1500,63.3500
121.1500,61.6500
122.8500,61.6500
Z" /> 
</g>
<g style="fill:#4D7FC4; fill-opacity:1.0000; stroke:none;">
<circle cx="119.4600" cy="62.5000" r="0.8500" /> 
<circle cx="116.9200" cy="62.5000" r="0.8500" /> 
<path style="fill:#4D7FC4; fill-opacity:1.0000; stroke:none;fill-rule:evenodd;"
d="M 121.7000,68.9500
121.6043,68.9310
121.5232,68.8768
121.4690,68.7957
121.4500,68.7000
121.4500,68.1000
121.4690,68.0043
121.5232,67.9232
121.6043,67.8690
121.7000,67.8500
122.3000,67.8500
122.3957,67.8690
122.4768,67.9232
122.5310,68.0043
122.5500,68.1000
122.5500,68.7000
122.5310,68.7957
122.4768,68.8768
122.3957,68.9310
122.3000,68.9500
Z" /> 
<path style="fill:#4D7FC4; fill-opacity:1.0000; stroke:none;fill-rule:evenodd;"
d="M 121.7000,66.1500
121.6043,66.1310
121.5232,66.0768
121.4690,65.9957
121.4500,65.9000
121.4500,65.3000
121.4690,65.2043
121.5232,65.1232
121.6043,65.0690
121.7000,65.0500
122.3000,65.0500
122.3957,65.0690
122.4768,65.1232
122.5310,65.2043
122.5500,65.3000
122.5500,65.9000
122.5310,65.9957
122.4768,66.0768
122.3957,66.1310
122.3000,66.1500
Z" /> 
</g>
<g style="fill:none; 
stroke:#4D7FC4; stroke-width:1.5000; stroke-opacity:1; 
stroke-linecap:round; stroke-linejoin:round;">
<path d="M116.9200 62.5000
L116.9200 65.9200
" />
<path d="M116.9200 65.9200
L117.0000 66.0000
" />
<path d="M119.4600 62.5000
L119.4600 67.5400
" />
<path d="M122.0000 68.4000
L120.3200 68.4000
" />
<path d="M120.3200 68.4000
L119.4600 67.5400
" />
<path d="M119.4600 67.5400
L117.0000 70.0000
" />
<path d="M122.0000 62.5000
L122.0000 65.6000
" />
<path style="fill:#4D7FC4; fill-opacity:1.0000; stroke:none;fill-rule:evenodd;"
d="M 125.0035,59.2007
125.3065,59.2177
125.3203,59.2193
125.6161,59.2695
125.6296,59.2726
125.9179,59.3557
125.9311,59.3603
126.2082,59.4751
126.2207,59.4811
126.4232,59.5930
126.4833,59.6262
126.4951,59.6336
126.7398,59.8072
126.7507,59.8159
126.9744,60.0158
126.9842,60.0256
127.1841,60.2493
127.1928,60.2602
127.3664,60.5049
127.3738,60.5167
127.5189,60.7792
127.5249,60.7918
127.6397,61.0689
127.6443,61.0821
127.7274,61.3704
127.7305,61.3839
127.7807,61.6797
127.7823,61.6935
127.7993,61.9965
127.7995,62.0035
127.7995,71.9965
127.7993,72.0035
127.7823,72.3065
127.7807,72.3203
127.7305,72.6161
127.7274,72.6296
127.6443,72.9179
127.6397,72.9311
127.5249,73.2082
127.5189,73.2208
127.3738,73.4833
127.3664,73.4951
127.1928,73.7398
127.1841,73.7507
126.9842,73.9744
126.9744,73.9842
126.7507,74.1841
126.7398,74.1928
126.4951,74.3664
126.4833,74.3738
126.2208,74.5189
126.2082,74.5249
125.9311,74.6397
125.9179,74.6443
125.6296,74.7274
125.6161,74.7305
125.3203,74.7807
125.3065,74.7823
125.0035,74.7993
124.9965,74.7995
116.0035,74.7995
115.9965,74.7993
115.6935,74.7823
115.6797,74.7807
115.3839,74.7305
115.3704,74.7274
115.0821,74.6443
115.0689,74.6397
114.7918,74.5249
114.7792,74.5189
114.5167,74.3738
114.5049,74.3664
114.2602,74.1928
114.2493,74.1841
114.0256,73.9842
114.0158,73.9744
113.8159,73.7507
113.8072,73.7398
113.6336,73.4951
113.6262,73.4833
113.4811,73.2208
113.4751,73.2082
113.3603,72.9311
113.3557,72.9179
113.2726,72.6296
113.2695,72.6161
113.2500,72.5014
113.2193,72.3203
113.2177,72.3065
113.2007,72.0035
113.2005,71.9965
113.2005,62.3937
115.5695,62.3937
115.5695,62.6063
115.6028,62.8162
115.6634,63.0030
115.6695,63.0413
115.6695,64.6476
115.6632,64.6866
115.6100,64.8472
115.6100,64.8472
115.5995,64.9500
115.5995,67.0500
115.5995,67.0500
115.6100,67.1528
115.6100,67.1528
115.6652,67.3193
115.6652,67.3193
115.7573,67.4687
115.8813,67.5927
116.0307,67.6848
116.1972,67.7400
116.3000,67.7505
117.7000,67.7505
117.8028,67.7400
117.9693,67.6848
118.1187,67.5927
118.2427,67.4687
118.3348,67.3193
118.3900,67.1528
118.4005,67.0500
118.4005,64.9500
118.3900,64.8472
118.3348,64.6807
118.2427,64.5313
118.2068,64.4955
118.1733,64.4341
118.1705,64.4078
118.1705,63.0413
118.1766,63.0030
118.1947,62.9472
118.2372,62.8162
118.2705,62.6063
118.2705,62.3937
118.2372,62.1838
118.1716,61.9816
118.0751,61.7922
117.9983,61.6866
117.9875,61.6717
117.9875,61.6717
117.9501,61.6202
117.9501,61.6202
117.9320,61.6021
120.6495,61.6021
120.6495,63.3979
120.6495,63.3979
120.6559,63.4575
120.7062,63.5923
120.7248,63.6171
120.7492,63.6826
120.7495,63.6914
120.7495,65.6984
120.7803,65.8928
120.8411,66.0800
120.9305,66.2554
121.0462,66.4146
121.1854,66.5538
121.3446,66.6695
121.4275,66.7117
121.5200,66.7589
121.5200,66.7589
121.5200,66.7589
121.6203,66.7915
121.7072,66.8197
121.9016,66.8505
121.9016,66.8505
122.0984,66.8505
122.2928,66.8197
122.4800,66.7589
122.6554,66.6695
122.8146,66.5538
122.9538,66.4146
123.0695,66.2554
123.1589,66.0800
123.2197,65.8928
123.2505,65.6984
123.2505,63.6914
123.2702,63.6244
123.2752,63.6171
123.2938,63.5923
123.3441,63.4575
123.3505,63.3979
123.3505,61.6021
123.3441,61.5425
123.3277,61.4986
123.2938,61.4077
123.2938,61.4077
123.2075,61.2925
123.2075,61.2925
123.0923,61.2062
123.0923,61.2062
122.9575,61.1559
122.9575,61.1559
122.8979,61.1495
122.8979,61.1495
122.8979,61.1495
122.8979,61.1495
121.1021,61.1495
121.1021,61.1495
121.0425,61.1559
120.9077,61.2062
120.9077,61.2062
120.7925,61.2925
120.7925,61.2925
120.7062,61.4077
120.7062,61.4077
120.6559,61.5425
120.6495,61.6021
120.6495,61.6021
120.6495,61.6021
117.9320,61.6021
117.7998,61.4699
117.7998,61.4699
117.6278,61.3450
117.4384,61.2484
117.4384,61.2484
117.4384,61.2484
117.2362,61.1828
117.2362,61.1828
117.2362,61.1828
117.0750,61.1572
117.0263,61.1495
116.8137,61.1495
116.7650,61.1572
116.6038,61.1828
116.4016,61.2484
116.2122,61.3450
116.0402,61.4699
115.8899,61.6202
115.7650,61.7922
115.6684,61.9816
115.6028,62.1838
115.5695,62.3937
113.2005,62.3937
113.2005,62.0035
113.2007,61.9965
113.2027,61.9601
113.2177,61.6935
113.2193,61.6797
113.2695,61.3839
113.2726,61.3704
113.2951,61.2925
113.3557,61.0821
113.3603,61.0689
113.4503,60.8515
113.4751,60.7918
113.4811,60.7793
113.6262,60.5167
113.6336,60.5049
113.8072,60.2602
113.8159,60.2494
114.0158,60.0256
114.0256,60.0158
114.2494,59.8159
114.2602,59.8072
114.5049,59.6336
114.5167,59.6262
114.7793,59.4811
114.7918,59.4751
115.0689,59.3603
115.0821,59.3557
115.3704,59.2726
115.3839,59.2695
115.6797,59.2193
115.6935,59.2177
115.9965,59.2007
116.0035,59.2005
116.0399,59.2005
124.9601,59.2005
124.9965,59.2005
Z" /> 
<path style="fill:#02FFEE; fill-opacity:0.4000; stroke:none;fill-rule:evenodd;"
d="M 116.3500,71.2500
116.2543,71.2310
116.1732,71.1768
116.1190,71.0957
116.1000,71.0000
116.1000,69.0000
116.1190,68.9043
116.1732,68.8232
116.2543,68.7690
116.3500,68.7500
117.6500,68.7500
117.7457,68.7690
117.8268,68.8232
117.8810,68.9043
117.9000,69.0000
117.9000,71.0000
117.8810,71.0957
117.8268,71.1768
117.7457,71.2310
117.6500,71.2500
Z" /> 
<path style="fill:#02FFEE; fill-opacity:0.4000; stroke:none;fill-rule:evenodd;"
d="M 116.3500,67.2500
116.2543,67.2310
116.1732,67.1768
116.1190,67.0957
116.1000,67.0000
116.1000,65.0000
116.1190,64.9043
116.1732,64.8232
116.2543,64.7690
116.3500,64.7500
117.6500,64.7500
117.7457,64.7690
117.8268,64.8232
117.8810,64.9043
117.9000,65.0000
117.9000,67.0000
117.8810,67.0957
117.8268,67.1768
117.7457,67.2310
117.6500,67.2500
Z" /> 
<path style="fill:#02FFEE; fill-opacity:0.4000; stroke:none;fill-rule:evenodd;"
d="M 122.8500,63.3500
121.1500,63.3500
121.1500,61.6500
122.8500,61.6500
Z" /> 
</g>
<g style="fill:#02FFEE; fill-opacity:0.4000; stroke:none;">
<circle cx="119.4600" cy="62.5000" r="0.8500" /> 
<circle cx="116.9200" cy="62.5000" r="0.8500" /> 
<path style="fill:#02FFEE; fill-opacity:0.4000; stroke:none;fill-rule:evenodd;"
d="M 121.7000,68.9500
121.6043,68.9310
121.5232,68.8768
121.4690,68.7957
121.4500,68.7000
121.4500,68.1000
121.4690,68.0043
121.5232,67.9232
121.6043,67.8690
121.7000,67.8500
122.3000,67.8500
122.3957,67.8690
122.4768,67.9232
122.5310,68.0043
122.5500,68.1000
122.5500,68.7000
122.5310,68.7957
122.4768,68.8768
122.3957,68.9310
122.3000,68.9500
Z" /> 
<path style="fill:#02FFEE; fill-opacity:0.4000; stroke:none;fill-rule:evenodd;"
d="M 121.7000,66.1500
121.6043,66.1310
121.5232,66.0768
121.4690,65.9957
121.4500,65.9000
121.4500,65.3000
121.4690,65.2043
121.5232,65.1232
121.6043,65.0690
121.7000,65.0500
122.3000,65.0500
122.3957,65.0690
122.4768,65.1232
122.5310,65.2043
122.5500,65.3000
122.5500,65.9000
122.5310,65.9957
122.4768,66.0768
122.3957,66.1310
122.3000,66.1500
Z" /> 
<path style="fill:#00C2C2; fill-opacity:0.9020; stroke:none;fill-rule:evenodd;"
d="M 116.3500,71.2500
116.2543,71.2310
116.1732,71.1768
116.1190,71.0957
116.1000,71.0000
116.1000,69.0000
116.1190,68.9043
116.1732,68.8232
116.2543,68.7690
116.3500,68.7500
117.6500,68.7500
117.7457,68.7690
117.8268,68.8232
117.8810,68.9043
117.9000,69.0000
117.9000,71.0000
117.8810,71.0957
117.8268,71.1768
117.7457,71.2310
117.6500,71.2500
Z" /> 
<path style="fill:#00C2C2; fill-opacity:0.9020; stroke:none;fill-rule:evenodd;"
d="M 116.3500,67.2500
116.2543,67.2310
116.1732,67.1768
116.1190,67.0957
116.1000,67.0000
116.1000,65.0000
116.1190,64.9043
116.1732,64.8232
116.2543,64.7690
116.3500,64.7500
117.6500,64.7500
117.7457,64.7690
117.8268,64.8232
117.8810,64.9043
117.9000,65.0000
117.9000,67.0000
117.8810,67.0957
117.8268,67.1768
117.7457,67.2310
117.6500,67.2500
Z" /> 
<path style="fill:#00C2C2; fill-opacity:0.9020; stroke:none;fill-rule:evenodd;"
d="M 121.7000,68.9500
121.6043,68.9310
121.5232,68.8768
121.4690,68.7957
121.4500,68.7000
121.4500,68.1000
121.4690,68.0043
121.5232,67.9232
121.6043,67.8690
121.7000,67.8500
122.3000,67.8500
122.3957,67.8690
122.4768,67.9232
122.5310,68.0043
122.5500,68.1000
122.5500,68.7000
122.5310,68.7957
122.4768,68.8768
122.3957,68.9310
122.3000,68.9500
Z" /> 
<path style="fill:#00C2C2; fill-opacity:0.9020; stroke:none;fill-rule:evenodd;"
d="M 121.7000,66.1500
121.6043,66.1310
121.5232,66.0768
121.4690,65.9957
121.4500,65.9000
121.4500,65.3000
121.4690,65.2043
121.5232,65.1232
121.6043,65.0690
121.7000,65.0500
122.3000,65.0500
122.3957,65.0690
122.4768,65.1232
122.5310,65.2043
122.5500,65.3000
122.5500,65.9000
122.5310,65.9957
122.4768,66.0768
122.3957,66.1310
122.3000,66.1500
Z" /> 
</g>
<g style="fill:none; 
stroke:#E8B2A7; stroke-width:0.1200; stroke-opacity:1; 
stroke-linecap:round; stroke-linejoin:round;">
<g transform="rotate(-90.000000 117.0000 68.0000)">
<text x="117.0000" y="68.3500"
transform="scale(-1 1) translate(-234.000000 0)"
textLength="1.5867" font-size="0.9333" lengthAdjust="spacingAndGlyphs"
text-anchor="middle" opacity="0" stroke-opacity="0">D1</text>
</g>
<g class="stroked-text"><desc>D1</desc>
<path d="M117.3176 67.4833
L116.6176 67.4833
" />
<path d="M116.6176 67.4833
L116.6176 67.6500
" />
<path d="M116.6176 67.6500
L116.6509 67.7500
" />
<path d="M116.6509 67.7500
L116.7176 67.8167
" />
<path d="M116.7176 67.8167
L116.7843 67.8500
" />
<path d="M116.7843 67.8500
L116.9176 67.8833
" />
<path d="M116.9176 67.8833
L117.0176 67.8833
" />
<path d="M117.0176 67.8833
L117.1509 67.8500
" />
<path d="M117.1509 67.8500
L117.2176 67.8167
" />
<path d="M117.2176 67.8167
L117.2843 67.7500
" />
<path d="M117.2843 67.7500
L117.3176 67.6500
" />
<path d="M117.3176 67.6500
L117.3176 67.4833
" />
<path d="M117.3176 68.5500
L117.3176 68.1500
" />
<path d="M117.3176 68.3500
L116.6176 68.3500
" />
<path d="M116.6176 68.3500
L116.7176 68.2833
" />
<path d="M116.7176 68.2833
L116.7843 68.2167
" />
<path d="M116.7843 68.2167
L116.8176 68.1500
" />
</g><g transform="rotate(-90.000000 120.0000 68.0000)">
<text x="120.0000" y="68.3500"
transform="scale(-1 1) translate(-240.000000 0)"
textLength="5.7867" font-size="0.9333" lengthAdjust="spacingAndGlyphs"
text-anchor="middle" opacity="0" stroke-opacity="0">SMAJ6.0CA</text>
</g>
<g class="stroked-text"><desc>SMAJ6.0CA</desc>
<path d="M120.2843 65.3500
L120.3176 65.4500
" />
<path d="M120.3176 65.4500
L120.3176 65.6167
" />
<path d="M120.3176 65.6167
L120.2843 65.6833
" />
<path d="M120.2843 65.6833
L120.2509 65.7167
" />
<path d="M120.2509 65.7167
L120.1843 65.7500
" />
<path d="M120.1843 65.7500
L120.1176 65.7500
" />
<path d="M120.1176 65.7500
L120.0509 65.7167
" />
<path d="M120.0509 65.7167
L120.0176 65.6833
" />
<path d="M120.0176 65.6833
L119.9843 65.6167
" />
<path d="M119.9843 65.6167
L119.9509 65.4833
" />
<path d="M119.9509 65.4833
L119.9176 65.4167
" />
<path d="M119.9176 65.4167
L119.8843 65.3833
" />
<path d="M119.8843 65.3833
L119.8176 65.3500
" />
<path d="M119.8176 65.3500
L119.7509 65.3500
" />
<path d="M119.7509 65.3500
L119.6843 65.3833
" />
<path d="M119.6843 65.3833
L119.6509 65.4167
" />
<path d="M119.6509 65.4167
L119.6176 65.4833
" />
<path d="M119.6176 65.4833
L119.6176 65.6500
" />
<path d="M119.6176 65.6500
L119.6509 65.7500
" />
<path d="M120.3176 66.0500
L119.6176 66.0500
" />
<path d="M119.6176 66.0500
L120.1176 66.2833
" />
<path d="M120.1176 66.2833
L119.6176 66.5167
" />
<path d="M119.6176 66.5167
L120.3176 66.5167
" />
<path d="M120.1176 66.8167
L120.1176 67.1500
" />
<path d="M120.3176 66.7500
L119.6176 66.9833
" />
<path d="M119.6176 66.9833
L120.3176 67.2167
" />
<path d="M119.6176 67.6500
L120.1176 67.6500
" />
<path d="M120.1176 67.6500
L120.2176 67.6167
" />
<path d="M120.2176 67.6167
L120.2843 67.5500
" />
<path d="M120.2843 67.5500
L120.3176 67.4500
" />
<path d="M120.3176 67.4500
L120.3176 67.3833
" />
<path d="M119.6176 68.2833
L119.6176 68.1500
" />
<path d="M119.6176 68.1500
L119.6509 68.0833
" />
<path d="M119.6509 68.0833
L119.6843 68.0500
" />
<path d="M119.6843 68.0500
L119.7843 67.9833
" />
<path d="M119.7843 67.9833
L119.9176 67.9500
" />
<path d="M119.9176 67.9500
L120.1843 67.9500
" />
<path d="M120.1843 67.9500
L120.2509 67.9833
" />
<path d="M120.2509 67.9833
L120.2843 68.0167
" />
<path d="M120.2843 68.0167
L120.3176 68.0833
" />
<path d="M120.3176 68.0833
L120.3176 68.2167
" />
<path d="M120.3176 68.2167
L120.2843 68.2833
" />
<path d="M120.2843 68.2833
L120.2509 68.3167
" />
<path d="M120.2509 68.3167
L120.1843 68.3500
" />
<path d="M120.1843 68.3500
L120.0176 68.3500
" />
<path d="M120.0176 68.3500
L119.9509 68.3167
" />
<path d="M119.9509 68.3167
L119.9176 68.2833
" />
<path d="M119.9176 68.2833
L119.8843 68.2167
" />
<path d="M119.8843 68.2167
L119.8843 68.0833
" />
<path d="M119.8843 68.0833
L119.9176 68.0167
" />
<path d="M119.9176 68.0167
L119.9509 67.9833
" />
<path d="M119.9509 67.9833
L120.0176 67.9500
" />
<path d="M120.2509 68.6500
L120.2843 68.6833
" />
<path d="M120.2843 68.6833
L120.3176 68.6500
" />
<path d="M120.3176 68.6500
L120.2843 68.6167
" />
<path d="M120.2843 68.6167
L120.2509 68.6500
" />
<path d="M120.2509 68.6500
L120.3176 68.6500
" />
<path d="M119.6176 69.1167
L119.6176 69.1833
" />
<path d="M119.6176 69.1833
L119.6509 69.2500
" />
<path d="M119.6509 69.2500
L119.6843 69.2833
" />
<path d="M119.6843 69.2833
L119.7509 69.3167
" />
<path d="M119.7509 69.3167
L119.8843 69.3500
" />
<path d="M119.8843 69.3500
L120.0509 69.3500
" />
<path d="M120.0509 69.3500
L120.1843 69.3167
" />
<path d="M120.1843 69.3167
L120.2509 69.2833
" />
<path d="M120.2509 69.2833
L120.2843 69.2500
" />
<path d="M120.2843 69.2500
L120.3176 69.1833
" />
<path d="M120.3176 69.1833
L120.3176 69.1167
" />
<path d="M120.3176 69.1167
L120.2843 69.0500
" />
<path d="M120.2843 69.0500
L120.2509 69.0167
" />
<path d="M120.2509 69.0167
L120.1843 68.9833
" />
<path d="M120.1843 68.9833
L120.0509 68.9500
" />
<path d="M120.0509 68.9500
L119.8843 68.9500
" />
<path d="M119.8843 68.9500
L119.7509 68.9833
" />
<path d="M119.7509 68.9833
L119.6843 69.0167
" />
<path d="M119.6843 69.0167
L119.6509 69.0500
" />
<path d="M119.6509 69.0500
L119.6176 69.1167
" />
<path d="M120.2509 70.0500
L120.2843 70.0167
" />
<path d="M120.2843 70.0167
L120.3176 69.9167
" />
<path d="M120.3176 69.9167
L120.3176 69.8500
" />
<path d="M120.3176 69.8500
L120.2843 69.7500
" />
<path d="M120.2843 69.7500
L120.2176 69.6833
" />
<path d="M120.2176 69.6833
L120.1509 69.6500
" />
<path d="M120.1509 69.6500
L120.0176 69.6167
" />
<path d="M120.0176 69.6167
L119.9176 69.6167
" />
<path d="M119.9176 69.6167
L119.7843 69.6500
" />
<path d="M119.7843 69.6500
L119.7176 69.6833
" />
<path d="M119.7176 69.6833
L119.6509 69.7500
" />
<path d="M119.6509 69.7500
L119.6176 69.8500
" />
<path d="M119.6176 69.8500
L119.6176 69.9167
" />
<path d="M119.6176 69.9167
L119.6509 70.0167
" />
<path d="M119.6509 70.0167
L119.6843 70.0500
" />
<path d="M120.1176 70.3167
L120.1176 70.6500
" />
<path d="M120.3176 70.2500
L119.6176 70.4833
" />
<path d="M119.6176 70.4833
L120.3176 70.7167
" />
</g><g transform="rotate(-90.000000 122.0000 67.0000)">
<text x="122.0000" y="67.3500"
transform="scale(-1 1) translate(-244.000000 0)"
textLength="1.5867" font-size="0.9333" lengthAdjust="spacingAndGlyphs"
text-anchor="middle" opacity="0" stroke-opacity="0">D2</text>
</g>
<g class="stroked-text"><desc>D2</desc>
<path d="M122.3176 66.4833
L121.6176 66.4833
" />
<path d="M121.6176 66.4833
L121.6176 66.6500
" />
<path d="M121.6176 66.6500
L121.6509 66.7500
" />
<path d="M121.6509 66.7500
L121.7176 66.8167
" />
<path d="M121.7176 66.8167
L121.7843 66.8500
" />
<path d="M121.7843 66.8500
L121.9176 66.8833
" />
<path d="M121.9176 66.8833
L122.0176 66.8833
" />
<path d="M122.0176 66.8833
L122.1509 66.8500
" />
<path d="M122.1509 66.8500
L122.2176 66.8167
" />
<path d="M122.2176 66.8167
L122.2843 66.7500
" />
<path d="M122.2843 66.7500
L122.3176 66.6500
" />
<path d="M122.3176 66.6500
L122.3176 66.4833
" />
<path d="M121.6843 67.1500
L121.6509 67.1833
" />
<path d="M121.6509 67.1833
L121.6176 67.2500
" />
<path d="M121.6176 67.2500
L121.6176 67.4167
" />
<path d="M121.6176 67.4167
L121.6509 67.4833
" />
<path d="M121.6509 67.4833
L121.6843 67.5167
" />
<path d="M121.6843 67.5167
L121.7509 67.5500
" />
<path d="M121.7509 67.5500
L121.8176 67.5500
" />
<path d="M121.8176 67.5500
L121.9176 67.5167
" />
<path d="M121.9176 67.5167
L122.3176 67.1167
" />
<path d="M122.3176 67.1167
L122.3176 67.5500
" />
</g><g transform="rotate(-90.000000 124.0000 67.0000)">
<text x="124.0000" y="67.3500"
transform="scale(-1 1) translate(-248.000000 0)"
textLength="5.2533" font-size="0.9333" lengthAdjust="spacingAndGlyphs"
text-anchor="middle" opacity="0" stroke-opacity="0">SMF3.3CA</text>
</g>
<g class="stroked-text"><desc>SMF3.3CA</desc>
<path d="M124.2843 64.6167
L124.3176 64.7167
" />
<path d="M124.3176 64.7167
L124.3176 64.8833
" />
<path d="M124.3176 64.8833
L124.2843 64.9500
" />
<path d="M124.2843 64.9500
L124.2509 64.9833
" />
<path d="M124.2509 64.9833
L124.1843 65.0167
" />
<path d="M124.1843 65.0167
L124.1176 65.0167
" />
<path d="M124.1176 65.0167
L124.0509 64.9833
" />
<path d="M124.0509 64.9833
L124.0176 64.9500
" />
<path d="M124.0176 64.9500
L123.9843 64.8833
" />
<path d="M123.9843 64.8833
L123.9509 64.7500
" />
<path d="M123.9509 64.7500
L123.9176 64.6833
" />
<path d="M123.9176 64.6833
L123.8843 64.6500
" />
<path d="M123.8843 64.6500
L123.8176 64.6167
" />
<path d="M123.8176 64.6167
L123.7509 64.6167
" />
<path d="M123.7509 64.6167
L123.6843 64.6500
" />
<path d="M123.6843 64.6500
L123.6509 64.6833
" />
<path d="M123.6509 64.6833
L123.6176 64.7500
" />
<path d="M123.6176 64.7500
L123.6176 64.9167
" />
<path d="M123.6176 64.9167
L123.6509 65.0167
" />
<path d="M124.3176 65.3167
L123.6176 65.3167
" />
<path d="M123.6176 65.3167
L124.1176 65.5500
" />
<path d="M124.1176 65.5500
L123.6176 65.7833
" />
<path d="M123.6176 65.7833
L124.3176 65.7833
" />
<path d="M123.9509 66.3500
L123.9509 66.1167
" />
<path d="M124.3176 66.1167
L123.6176 66.1167
" />
<path d="M123.6176 66.1167
L123.6176 66.4500
" />
<path d="M123.6176 66.6500
L123.6176 67.0833
" />
<path d="M123.6176 67.0833
L123.8843 66.8500
" />
<path d="M123.8843 66.8500
L123.8843 66.9500
" />
<path d="M123.8843 66.9500
L123.9176 67.0167
" />
<path d="M123.9176 67.0167
L123.9509 67.0500
" />
<path d="M123.9509 67.0500
L124.0176 67.0833
" />
<path d="M124.0176 67.0833
L124.1843 67.0833
" />
<path d="M124.1843 67.0833
L124.2509 67.0500
" />
<path d="M124.2509 67.0500
L124.2843 67.0167
" />
<path d="M124.2843 67.0167
L124.3176 66.9500
" />
<path d="M124.3176 66.9500
L124.3176 66.7500
" />
<path d="M124.3176 66.7500
L124.2843 66.6833
" />
<path d="M124.2843 66.6833
L124.2509 66.6500
" />
<path d="M124.2509 67.3833
L124.2843 67.4167
" />
<path d="M124.2843 67.4167
L124.3176 67.3833
" />
<path d="M124.3176 67.3833
L124.2843 67.3500
" />
<path d="M124.2843 67.3500
L124.2509 67.3833
" />
<path d="M124.2509 67.3833
L124.3176 67.3833
" />
<path d="M123.6176 67.6500
L123.6176 68.0833
" />
<path d="M123.6176 68.0833
L123.8843 67.8500
" />
<path d="M123.8843 67.8500
L123.8843 67.9500
" />
<path d="M123.8843 67.9500
L123.9176 68.0167
" />
<path d="M123.9176 68.0167
L123.9509 68.0500
" />
<path d="M123.9509 68.0500
L124.0176 68.0833
" />
<path d="M124.0176 68.0833
L124.1843 68.0833
" />
<path d="M124.1843 68.0833
L124.2509 68.0500
" />
<path d="M124.2509 68.0500
L124.2843 68.0167
" />
<path d="M124.2843 68.0167
L124.3176 67.9500
" />
<path d="M124.3176 67.9500
L124.3176 67.7500
" />
<path d="M124.3176 67.7500
L124.2843 67.6833
" />
<path d="M124.2843 67.6833
L124.2509 67.6500
" />
<path d="M124.2509 68.7833
L124.2843 68.7500
" />
<path d="M124.2843 68.7500
L124.3176 68.6500
" />
<path d="M124.3176 68.6500
L124.3176 68.5833
" />
<path d="M124.3176 68.5833
L124.2843 68.4833
" />
<path d="M124.2843 68.4833
L124.2176 68.4167
" />
<path d="M124.2176 68.4167
L124.1509 68.3833
" />
<path d="M124.1509 68.3833
L124.0176 68.3500
" />
<path d="M124.0176 68.3500
L123.9176 68.3500
" />
<path d="M123.9176 68.3500
L123.7843 68.3833
" />
<path d="M123.7843 68.3833
L123.7176 68.4167
" />
<path d="M123.7176 68.4167
L123.6509 68.4833
" />
<path d="M123.6509 68.4833
L123.6176 68.5833
" />
<path d="M123.6176 68.5833
L123.6176 68.6500
" />
<path d="M123.6176 68.6500
L123.6509 68.7500
" />
<path d="M123.6509 68.7500
L123.6843 68.7833
" />
<path d="M124.1176 69.0500
L124.1176 69.3833
" />
<path d="M124.3176 68.9833
L123.6176 69.2167
" />
<path d="M123.6176 69.2167
L124.3176 69.4500
" />
</g><path d="M115.2000 64.4000
L118.8000 64.4000
" />
<path d="M115.2000 71.6000
L115.2000 64.4000
" />
<path d="M118.8000 64.4000
L118.8000 71.6000
" />
<path d="M118.8000 71.6000
L115.2000 71.6000
" />
<path d="M115.5900 63.8300
L115.5900 61.1700
" />
<path d="M120.7300 61.1700
L115.5900 61.1700
" />
<path d="M120.7300 63.8300
L115.5900 63.8300
" />
<path d="M120.7300 63.8300
L120.7300 61.1700
" />
<path d="M122.0000 63.8300
L123.3300 63.8300
" />
<path d="M123.3300 63.8300
L123.3300 62.5000
" />
<path d="M120.8000 64.7000
L123.2000 64.7000
" />
<path d="M120.8000 69.3000
L120.8000 64.7000
" />
<path d="M123.2000 64.7000
L123.2000 69.3000
" />
<path d="M123.2000 69.3000
L120.8000 69.3000
" />
<path style="fill:#E8B2A7; fill-opacity:1.0000; 
stroke:#E8B2A7; stroke-width:0.1000; stroke-opacity:1; 
stroke-linecap:round; stroke-linejoin:round;fill-rule:evenodd;"
d="M 120.8000,68.4000
120.5000,68.4000
120.5000,67.6000
120.8000,67.6000
Z" /> 
<path style="fill:#E8B2A7; fill-opacity:1.0000; 
stroke:#E8B2A7; stroke-width:0.1000; stroke-opacity:1; 
stroke-linecap:round; stroke-linejoin:round;fill-rule:evenodd;"
d="M 123.5000,68.4000
123.2000,68.4000
123.2000,67.6000
123.5000,67.6000
Z" /> 
<path style="fill:#C83434; fill-opacity:1.0000; stroke:none;fill-rule:evenodd;"
d="M 114.9500,65.3500
114.9690,65.2543
115.0232,65.1732
115.1043,65.1190
115.2000,65.1000
115.8500,65.1000
115.9457,65.1190
116.0268,65.1732
116.0810,65.2543
116.1000,65.3500
116.1000,66.6500
116.0810,66.7457
116.0268,66.8268
115.9457,66.8810
115.8500,66.9000
115.2000,66.9000
115.1043,66.8810
115.0232,66.8268
114.9690,66.7457
114.9500,66.6500
Z" /> 
<path style="fill:#C83434; fill-opacity:1.0000; stroke:none;fill-rule:evenodd;"
d="M 117.9000,65.3500
117.9190,65.2543
117.9732,65.1732
118.0543,65.1190
118.1500,65.1000
118.8000,65.1000
118.8957,65.1190
118.9768,65.1732
119.0310,65.2543
119.0500,65.3500
119.0500,66.6500
119.0310,66.7457
118.9768,66.8268
118.8957,66.8810
118.8000,66.9000
118.1500,66.9000
118.0543,66.8810
117.9732,66.8268
117.9190,66.7457
117.9000,66.6500
Z" /> 
<path style="fill:#C83434; fill-opacity:1.0000; stroke:none;fill-rule:evenodd;"
d="M 125.0500,66.6500
125.0310,66.7457
124.9768,66.8268
124.8957,66.8810
124.8000,66.9000
124.1500,66.9000
124.0543,66.8810
123.9732,66.8268
123.9190,66.7457
123.9000,66.6500
123.9000,65.3500
123.9190,65.2543
123.9732,65.1732
124.0543,65.1190
124.1500,65.1000
124.8000,65.1000
124.8957,65.1190
124.9768,65.1732
125.0310,65.2543
125.0500,65.3500
Z" /> 
<path style="fill:#C83434; fill-opacity:1.0000; stroke:none;fill-rule:evenodd;"
d="M 122.1000,66.6500
122.0810,66.7457
122.0268,66.8268
121.9457,66.8810
121.8500,66.9000
121.2000,66.9000
121.1043,66.8810
121.0232,66.8268
120.9690,66.7457
120.9500,66.6500
120.9500,65.3500
120.9690,65.2543
121.0232,65.1732
121.1043,65.1190
121.2000,65.1000
121.8500,65.1000
121.9457,65.1190
122.0268,65.1732
122.0810,65.2543
122.1000,65.3500
Z" /> 
<path style="fill:#C83434; fill-opacity:1.0000; stroke:none;fill-rule:evenodd;"
d="M 114.9500,68.3500
114.9690,68.2543
115.0232,68.1732
115.1043,68.1190
115.2000,68.1000
115.8500,68.1000
115.9457,68.1190
116.0268,68.1732
116.0810,68.2543
116.1000,68.3500
116.1000,69.6500
116.0810,69.7457
116.0268,69.8268
115.9457,69.8810
115.8500,69.9000
115.2000,69.9000
115.1043,69.8810
115.0232,69.8268
114.9690,69.7457
114.9500,69.6500
Z" /> 
<path style="fill:#C83434; fill-opacity:1.0000; stroke:none;fill-rule:evenodd;"
d="M 117.9000,68.3500
117.9190,68.2543
117.9732,68.1732
118.0543,68.1190
118.1500,68.1000
118.8000,68.1000
118.8957,68.1190
118.9768,68.1732
119.0310,68.2543
119.0500,68.3500
119.0500,69.6500
119.0310,69.7457
118.9768,69.8268
118.8957,69.8810
118.8000,69.9000
118.1500,69.9000
118.0543,69.8810
117.9732,69.8268
117.9190,69.7457
117.9000,69.6500
Z" /> 
<path style="fill:#C83434; fill-opacity:1.0000; stroke:none;fill-rule:evenodd;"
d="M 125.0500,69.6500
125.0310,69.7457
124.9768,69.8268
124.8957,69.8810
124.8000,69.9000
124.1500,69.9000
124.0543,69.8810
123.9732,69.8268
123.9190,69.7457
123.9000,69.6500
123.9000,68.3500
123.9190,68.2543
123.9732,68.1732
124.0543,68.1190
124.1500,68.1000
124.8000,68.1000
124.8957,68.1190
124.9768,68.1732
125.0310,68.2543
125.0500,68.3500
Z" /> 
<path style="fill:#C83434; fill-opacity:1.0000; stroke:none;fill-rule:evenodd;"
d="M 122.1000,69.6500
122.0810,69.7457
122.0268,69.8268
121.9457,69.8810
121.8500,69.9000
121.2000,69.9000
121.1043,69.8810
121.0232,69.8268
120.9690,69.7457
120.9500,69.6500
120.9500,68.3500
120.9690,68.2543
121.0232,68.1732
121.1043,68.1190
121.2000,68.1000
121.8500,68.1000
121.9457,68.1190
122.0268,68.1732
122.0810,68.2543
122.1000,68.3500
Z" /> 
<path style="fill:#C83434; fill-opacity:1.0000; stroke:none;fill-rule:evenodd;"
d="M 118.3250,70.9000
118.3364,70.8426
118.3689,70.7939
118.4176,70.7614
118.4750,70.7500
119.6500,70.7500
119.7074,70.7614
119.7561,70.7939
119.7886,70.8426
119.8000,70.9000
119.8000,71.2000
119.7886,71.2574
119.7561,71.3061
119.7074,71.3386
119.6500,71.3500
118.4750,71.3500
118.4176,71.3386
118.3689,71.3061
118.3364,71.2574
118.3250,71.2000
Z" /> 
<path style="fill:#C83434; fill-opacity:1.0000; stroke:none;fill-rule:evenodd;"
d="M 118.3250,72.8000
118.3364,72.7426
118.3689,72.6939
118.4176,72.6614
118.4750,72.6500
119.6500,72.6500
119.7074,72.6614
119.7561,72.6939
119.7886,72.7426
119.8000,72.8000
119.8000,73.1000
119.7886,73.1574
119.7561,73.2061
119.7074,73.2386
119.6500,73.2500
118.4750,73.2500
118.4176,73.2386
118.3689,73.2061
118.3364,73.1574
118.3250,73.1000
Z" /> 
<path style="fill:#C83434; fill-opacity:1.0000; stroke:none;fill-rule:evenodd;"
d="M 120.2000,71.8500
120.2114,71.7926
120.2439,71.7439
120.2926,71.7114
120.3500,71.7000
121.5250,71.7000
121.5824,71.7114
121.6311,71.7439
121.6636,71.7926
121.6750,71.8500
121.6750,72.1500
121.6636,72.2074
121.6311,72.2561
121.5824,72.2886
121.5250,72.3000
120.3500,72.3000
120.2926,72.2886
120.2439,72.2561
120.2114,72.2074
120.2000,72.1500
Z" /> 
<path style="fill:#C83434; fill-opacity:1.0000; stroke:none;fill-rule:evenodd;"
d="M 122.8500,63.3500
121.1500,63.3500
121.1500,61.6500
122.8500,61.6500
Z" /> 
</g>
<g style="fill:#C83434; fill-opacity:1.0000; stroke:none;">
<circle cx="119.4600" cy="62.5000" r="0.8500" /> 
<circle cx="116.9200" cy="62.5000" r="0.8500" /> 
</g>
<g style="fill:none; 
stroke:#C83434; stroke-width:1.5000; stroke-opacity:1; 
stroke-linecap:round; stroke-linejoin:round;">
<path d="M115.5250 66.0000
L115.5250 63.8950
" />
</g>
<g style="fill:none; 
stroke:#C83434; stroke-width:0.5000; stroke-opacity:1; 
stroke-linecap:round; stroke-linejoin:round;">
<path d="M116.4400 72.0000
L115.5250 71.0850
" />
<path d="M120.9375 72.0000
L116.4400 72.0000
" />
<path d="M115.5250 71.0850
L115.5250 69.0000
" />
</g>
<g style="fill:none; 
stroke:#C83434; stroke-width:1.5000; stroke-opacity:1; 
stroke-linecap:round; stroke-linejoin:round;">
<path d="M115.5250 69.0000
L115.5250 66.0000
" />
<path d="M115.5250 63.8950
L116.9200 62.5000
" />
<path d="M121.5250 69.0000
L121.5250 66.0000
" />
<path d="M118.4750 69.0000
L118.4750 66.0000
" />
</g>
<g style="fill:none; 
stroke:#C83434; stroke-width:0.5000; stroke-opacity:1; 
stroke-linecap:round; stroke-linejoin:round;">
<path d="M119.0625 69.5875
L118.4750 69.0000
" />
</g>
<g style="fill:none; 
stroke:#C83434; stroke-width:1.5000; stroke-opacity:1; 
stroke-linecap:round; stroke-linejoin:round;">
<path d="M118.4750 63.4850
L119.4600 62.5000
" />
<path d="M118.4750 66.0000
L118.4750 63.4850
" />
<path d="M121.5250 69.0000
L118.4750 69.0000
" />
<path d="M119.4600 63.9350
L121.5250 66.0000
" />
</g>
<g style="fill:none; 
stroke:#C83434; stroke-width:0.5000; stroke-opacity:1; 
stroke-linecap:round; stroke-linejoin:round;">
<path d="M119.0625 71.0500
L119.0625 69.5875
" />
</g>
<g style="fill:none; 
stroke:#C83434; stroke-width:1.5000; stroke-opacity:1; 
stroke-linecap:round; stroke-linejoin:round;">
<path d="M119.4600 62.5000
L119.4600 63.9350
" />
<path d="M124.4750 66.0000
L124.4750 64.9750
" />
<path d="M124.4750 69.0000
L124.4750 66.0000
" />
</g>
<g style="fill:none; 
stroke:#C83434; stroke-width:0.5000; stroke-opacity:1; 
stroke-linecap:round; stroke-linejoin:round;">
<path d="M121.6640 72.9500
L124.4750 70.1390
" />
<path d="M119.0625 72.9500
L121.6640 72.9500
" />
</g>
<g style="fill:none; 
stroke:#C83434; stroke-width:1.5000; stroke-opacity:1; 
stroke-linecap:round; stroke-linejoin:round;">
<path d="M124.4750 64.9750
L122.0000 62.5000
" />
</g>
<g style="fill:none; 
stroke:#C83434; stroke-width:0.5000; stroke-opacity:1; 
stroke-linecap:round; stroke-linejoin:round;">
<path d="M124.4750 70.1390
L124.4750 69.0000
" />
<path style="fill:#C83434; fill-opacity:1.0000; stroke:none;fill-rule:evenodd;"
d="M 125.0035,59.2007
125.3065,59.2177
125.3203,59.2193
125.6161,59.2695
125.6296,59.2726
125.9179,59.3557
125.9311,59.3603
126.2082,59.4751
126.2207,59.4811
126.4232,59.5930
126.4833,59.6262
126.4951,59.6336
126.7398,59.8072
126.7507,59.8159
126.9744,60.0158
126.9842,60.0256
127.1841,60.2493
127.1928,60.2602
127.3664,60.5049
127.3738,60.5167
127.5189,60.7792
127.5249,60.7918
127.6397,61.0689
127.6443,61.0821
127.7274,61.3704
127.7305,61.3839
127.7807,61.6797
127.7823,61.6935
127.7993,61.9965
127.7995,62.0035
127.7995,71.9965
127.7993,72.0035
127.7823,72.3065
127.7807,72.3203
127.7305,72.6161
127.7274,72.6296
127.6443,72.9179
127.6397,72.9311
127.5249,73.2082
127.5189,73.2208
127.3738,73.4833
127.3664,73.4951
127.1928,73.7398
127.1841,73.7507
126.9842,73.9744
126.9744,73.9842
126.7507,74.1841
126.7398,74.1928
126.4951,74.3664
126.4833,74.3738
126.2208,74.5189
126.2082,74.5249
125.9311,74.6397
125.9179,74.6443
125.6296,74.7274
125.6161,74.7305
125.3203,74.7807
125.3065,74.7823
125.0035,74.7993
124.9965,74.7995
116.0035,74.7995
115.9965,74.7993
115.6935,74.7823
115.6797,74.7807
115.3839,74.7305
115.3704,74.7274
115.0821,74.6443
115.0689,74.6397
114.7918,74.5249
114.7792,74.5189
114.5167,74.3738
114.5049,74.3664
114.2602,74.1928
114.2493,74.1841
114.0256,73.9842
114.0158,73.9744
113.8159,73.7507
113.8072,73.7398
113.7802,73.7017
113.6384,73.5019
113.6336,73.4951
113.6262,73.4833
113.4811,73.2208
113.4751,73.2082
113.4727,73.2026
113.4503,73.1485
113.3603,72.9311
113.3557,72.9179
113.2828,72.6651
113.2726,72.6296
113.2695,72.6161
113.2500,72.5014
113.2193,72.3203
113.2177,72.3065
113.2007,72.0035
113.2005,71.9965
113.2005,63.7966
114.2745,63.7966
114.2745,69.0984
114.3053,69.2928
114.3661,69.4800
114.3661,69.4800
114.4360,69.6172
114.4495,69.6734
114.4495,69.7000
114.4495,69.7000
114.4600,69.8028
114.4600,69.8028
114.5152,69.9693
114.5152,69.9693
114.6073,70.1187
114.7365,70.2478
114.7346,70.2497
114.7678,70.2966
114.7745,70.3369
114.7745,71.1589
114.7745,71.1589
114.7745,71.1589
114.8033,71.3039
114.8033,71.3039
114.8599,71.4405
114.8650,71.4481
114.8650,71.4481
114.9420,71.5634
114.9421,71.5634
115.9616,72.5829
115.9616,72.5830
116.0845,72.6651
116.0845,72.6651
116.2211,72.7217
116.2211,72.7217
116.2211,72.7217
116.2211,72.7217
116.3661,72.7505
116.3661,72.7505
116.5139,72.7505
117.7005,72.7505
117.7675,72.7702
117.8133,72.8230
117.8245,72.8745
117.8245,73.1657
117.8274,73.2026
117.8274,73.2026
117.8733,73.3604
117.8733,73.3604
117.9569,73.5019
117.9569,73.5019
118.0731,73.6181
118.0731,73.6181
118.0731,73.6181
118.2146,73.7017
118.2273,73.7054
118.3724,73.7476
118.3724,73.7476
118.3724,73.7476
118.4093,73.7505
118.4093,73.7505
119.7157,73.7505
119.7157,73.7505
119.7526,73.7476
119.7526,73.7476
119.7526,73.7476
119.8977,73.7054
119.9323,73.7005
121.7379,73.7005
121.8354,73.6811
121.8829,73.6717
122.0194,73.6151
122.0687,73.5822
122.1424,73.5330
125.0580,70.6174
125.1401,70.4944
125.1967,70.3579
125.2022,70.3302
125.2345,70.2683
125.2587,70.2489
125.2687,70.2427
125.3927,70.1187
125.4848,69.9693
125.5400,69.8028
125.5505,69.7000
125.5505,69.6734
125.5640,69.6172
125.6339,69.4800
125.6947,69.2928
125.7255,69.0984
125.7255,64.8766
125.6947,64.6822
125.6339,64.4950
125.5445,64.3196
125.4288,64.1604
125.2896,64.0212
123.3868,62.1183
123.3533,62.0570
123.3505,62.0307
123.3505,61.6021
123.3505,61.6021
123.3505,61.6021
123.3441,61.5425
123.3277,61.4986
123.2938,61.4077
123.2938,61.4077
123.2075,61.2925
123.2075,61.2925
123.0923,61.2062
123.0923,61.2062
122.9575,61.1559
122.9575,61.1559
122.8979,61.1495
122.8979,61.1495
122.8979,61.1495
122.8979,61.1495
121.1021,61.1495
121.1021,61.1495
121.0425,61.1559
120.9077,61.2062
120.9077,61.2062
120.7925,61.2925
120.7925,61.2925
120.7062,61.4077
120.7062,61.4077
120.6559,61.5425
120.6495,61.6021
120.6495,61.6021
120.6495,61.6021
120.6495,63.3979
120.6495,63.3979
120.6559,63.4575
120.7062,63.5923
120.7062,63.5923
120.7925,63.7075
120.7925,63.7075
120.9077,63.7938
120.9077,63.7938
120.9151,63.7966
121.0425,63.8441
121.1021,63.8505
121.5307,63.8505
121.5977,63.8702
121.6183,63.8868
123.1882,65.4567
123.2217,65.5180
123.2245,65.5443
123.2245,69.0984
123.2553,69.2928
123.3161,69.4800
123.3161,69.4800
123.3860,69.6172
123.3995,69.6734
123.3995,69.7000
123.3995,69.7000
123.4100,69.8028
123.4100,69.8028
123.4652,69.9693
123.4660,69.9712
123.4662,69.9725
123.4675,69.9762
123.4668,69.9764
123.4765,70.0402
123.4480,70.1040
123.4413,70.1112
122.1614,71.3911
122.1001,71.4246
122.0304,71.4196
121.9861,71.3911
121.9269,71.3319
121.9269,71.3319
121.7854,71.2483
121.7854,71.2483
121.6276,71.2024
121.6276,71.2024
121.5907,71.1995
121.5907,71.1995
120.2843,71.1995
120.2843,71.1995
120.2474,71.2024
120.2474,71.2024
120.1023,71.2446
120.0677,71.2495
116.8022,71.2495
116.7352,71.2298
116.7145,71.2132
116.3118,70.8105
116.2783,70.7491
116.2755,70.7228
116.2755,70.3369
116.2952,70.2698
116.3144,70.2487
116.3135,70.2478
116.3187,70.2427
116.4427,70.1187
116.5348,69.9693
116.5900,69.8028
116.6005,69.7000
116.6005,69.6734
116.6140,69.6172
116.6839,69.4800
116.7447,69.2928
116.7755,69.0984
116.7755,64.4643
116.7952,64.3973
116.8118,64.3767
117.4215,63.7670
117.4529,63.7442
117.6278,63.6551
117.6793,63.6177
117.7998,63.5301
117.7998,63.5301
117.7998,63.5301
117.9501,63.3798
117.9501,63.3798
117.9501,63.3798
118.0750,63.2078
118.0750,63.2078
118.0751,63.2078
118.1716,63.0184
118.2372,62.8162
118.2705,62.6063
118.2705,62.3937
118.2372,62.1838
118.1716,61.9816
118.0751,61.7922
118.0750,61.7922
118.0750,61.7922
117.9501,61.6202
117.7998,61.4699
117.6278,61.3450
117.4384,61.2484
117.4384,61.2484
117.4384,61.2484
117.2362,61.1828
117.2362,61.1828
117.2362,61.1828
117.0750,61.1572
117.0263,61.1495
116.8137,61.1495
116.7650,61.1572
116.6038,61.1828
116.4016,61.2484
116.2122,61.3450
116.0402,61.4699
115.8899,61.6202
115.7650,61.7922
115.6758,61.9671
115.6530,61.9985
114.5712,63.0804
114.5712,63.0804
114.5215,63.1487
114.4555,63.2396
114.3657,63.4159
114.3646,63.4196
114.3053,63.6022
114.3053,63.6022
114.2745,63.7966
113.2005,63.7966
113.2005,62.0035
113.2007,61.9965
113.2027,61.9601
113.2177,61.6935
113.2193,61.6797
113.2695,61.3839
113.2726,61.3704
113.2951,61.2925
113.3557,61.0821
113.3603,61.0689
113.4503,60.8515
113.4751,60.7918
113.4811,60.7793
113.6262,60.5167
113.6336,60.5049
113.8072,60.2602
113.8159,60.2494
114.0158,60.0256
114.0256,60.0158
114.2494,59.8159
114.2602,59.8072
114.5049,59.6336
114.5167,59.6262
114.7793,59.4811
114.7918,59.4751
115.0689,59.3603
115.0821,59.3557
115.3704,59.2726
115.3839,59.2695
115.6797,59.2193
115.6935,59.2177
115.9965,59.2007
116.0035,59.2005
116.0399,59.2005
124.9601,59.2005
124.9965,59.2005
Z" /> 
<path style="fill:#D864FF; fill-opacity:0.4000; stroke:none;fill-rule:evenodd;"
d="M 114.9500,65.3500
114.9690,65.2543
115.0232,65.1732
115.1043,65.1190
115.2000,65.1000
115.8500,65.1000
115.9457,65.1190
116.0268,65.1732
116.0810,65.2543
116.1000,65.3500
116.1000,66.6500
116.0810,66.7457
116.0268,66.8268
115.9457,66.8810
115.8500,66.9000
115.2000,66.9000
115.1043,66.8810
115.0232,66.8268
114.9690,66.7457
114.9500,66.6500
Z" /> 
<path style="fill:#D864FF; fill-opacity:0.4000; stroke:none;fill-rule:evenodd;"
d="M 117.9000,65.3500
117.9190,65.2543
117.9732,65.1732
118.0543,65.1190
118.1500,65.1000
118.8000,65.1000
118.8957,65.1190
118.9768,65.1732
119.0310,65.2543
119.0500,65.3500
119.0500,66.6500
119.0310,66.7457
118.9768,66.8268
118.8957,66.8810
118.8000,66.9000
118.1500,66.9000
118.0543,66.8810
117.9732,66.8268
117.9190,66.7457
117.9000,66.6500
Z" /> 
<path style="fill:#D864FF; fill-opacity:0.4000; stroke:none;fill-rule:evenodd;"
d="M 125.0500,66.6500
125.0310,66.7457
124.9768,66.8268
124.8957,66.8810
124.8000,66.9000
124.1500,66.9000
124.0543,66.8810
123.9732,66.8268
123.9190,66.7457
123.9000,66.6500
123.9000,65.3500
123.9190,65.2543
123.9732,65.1732
124.0543,65.1190
124.1500,65.1000
124.8000,65.1000
124.8957,65.1190
124.9768,65.1732
125.0310,65.2543
125.0500,65.3500
Z" /> 
<path style="fill:#D864FF; fill-opacity:0.4000; stroke:none;fill-rule:evenodd;"
d="M 122.1000,66.6500
122.0810,66.7457
122.0268,66.8268
121.9457,66.8810
121.8500,66.9000
121.2000,66.9000
121.1043,66.8810
121.0232,66.8268
120.9690,66.7457
120.9500,66.6500
120.9500,65.3500
120.9690,65.2543
121.0232,65.1732
121.1043,65.1190
121.2000,65.1000
121.8500,65.1000
121.9457,65.1190
122.0268,65.1732
122.0810,65.2543
122.1000,65.3500
Z" /> 
<path style="fill:#D864FF; fill-opacity:0.4000; stroke:none;fill-rule:evenodd;"
d="M 114.9500,68.3500
114.9690,68.2543
115.0232,68.1732
115.1043,68.1190
115.2000,68.1000
115.8500,68.1000
115.9457,68.1190
116.0268,68.1732
116.0810,68.2543
116.1000,68.3500
116.1000,69.6500
116.0810,69.7457
116.0268,69.8268
115.9457,69.8810
115.8500,69.9000
115.2000,69.9000
115.1043,69.8810
115.0232,69.8268
114.9690,69.7457
114.9500,69.6500
Z" /> 
<path style="fill:#D864FF; fill-opacity:0.4000; stroke:none;fill-rule:evenodd;"
d="M 117.9000,68.3500
117.9190,68.2543
117.9732,68.1732
118.0543,68.1190
118.1500,68.1000
118.8000,68.1000
118.8957,68.1190
118.9768,68.1732
119.0310,68.2543
119.0500,68.3500
119.0500,69.6500
119.0310,69.7457
118.9768,69.8268
118.8957,69.8810
118.8000,69.9000
118.1500,69.9000
118.0543,69.8810
117.9732,69.8268
117.9190,69.7457
117.9000,69.6500
Z" /> 
<path style="fill:#D864FF; fill-opacity:0.4000; stroke:none;fill-rule:evenodd;"
d="M 125.0500,69.6500
125.0310,69.7457
124.9768,69.8268
124.8957,69.8810
124.8000,69.9000
124.1500,69.9000
124.0543,69.8810
123.9732,69.8268
123.9190,69.7457
123.9000,69.6500
123.9000,68.3500
123.9190,68.2543
123.9732,68.1732
124.0543,68.1190
124.1500,68.1000
124.8000,68.1000
124.8957,68.1190
124.9768,68.1732
125.0310,68.2543
125.0500,68.3500
Z" /> 
<path style="fill:#D864FF; fill-opacity:0.4000; stroke:none;fill-rule:evenodd;"
d="M 122.1000,69.6500
122.0810,69.7457
122.0268,69.8268
121.9457,69.8810
121.8500,69.9000
121.2000,69.9000
121.1043,69.8810
121.0232,69.8268
120.9690,69.7457
120.9500,69.6500
120.9500,68.3500
120.9690,68.2543
121.0232,68.1732
121.1043,68.1190
121.2000,68.1000
121.8500,68.1000
121.9457,68.1190
122.0268,68.1732
122.0810,68.2543
122.1000,68.3500
Z" /> 
<path style="fill:#D864FF; fill-opacity:0.4000; stroke:none;fill-rule:evenodd;"
d="M 118.3250,70.9000
118.3364,70.8426
118.3689,70.7939
118.4176,70.7614
118.4750,70.7500
119.6500,70.7500
119.7074,70.7614
119.7561,70.7939
119.7886,70.8426
119.8000,70.9000
119.8000,71.2000
119.7886,71.2574
119.7561,71.3061
119.7074,71.3386
119.6500,71.3500
118.4750,71.3500
118.4176,71.3386
118.3689,71.3061
118.3364,71.2574
118.3250,71.2000
Z" /> 
<path style="fill:#D864FF; fill-opacity:0.4000; stroke:none;fill-rule:evenodd;"
d="M 118.3250,72.8000
118.3364,72.7426
118.3689,72.6939
118.4176,72.6614
118.4750,72.6500
119.6500,72.6500
119.7074,72.6614
119.7561,72.6939
119.7886,72.7426
119.8000,72.8000
119.8000,73.1000
119.7886,73.1574
119.7561,73.2061
119.7074,73.2386
119.6500,73.2500
118.4750,73.2500
118.4176,73.2386
118.3689,73.2061
118.3364,73.1574
118.3250,73.1000
Z" /> 
<path style="fill:#D864FF; fill-opacity:0.4000; stroke:none;fill-rule:evenodd;"
d="M 120.2000,71.8500
120.2114,71.7926
120.2439,71.7439
120.2926,71.7114
120.3500,71.7000
121.5250,71.7000
121.5824,71.7114
121.6311,71.7439
121.6636,71.7926
121.6750,71.8500
121.6750,72.1500
121.6636,72.2074
121.6311,72.2561
121.5824,72.2886
121.5250,72.3000
120.3500,72.3000
120.2926,72.2886
120.2439,72.2561
120.2114,72.2074
120.2000,72.1500
Z" /> 
<path style="fill:#D864FF; fill-opacity:0.4000; stroke:none;fill-rule:evenodd;"
d="M 122.8500,63.3500
121.1500,63.3500
121.1500,61.6500
122.8500,61.6500
Z" /> 
</g>
<g style="fill:#D864FF; fill-opacity:0.4000; stroke:none;">
<circle cx="119.4600" cy="62.5000" r="0.8500" /> 
<circle cx="116.9200" cy="62.5000" r="0.8500" /> 
<path style="fill:#B4A09A; fill-opacity:0.9020; stroke:none;fill-rule:evenodd;"
d="M 114.9500,65.3500
114.9690,65.2543
115.0232,65.1732
115.1043,65.1190
115.2000,65.1000
115.8500,65.1000
115.9457,65.1190
116.0268,65.1732
116.0810,65.2543
116.1000,65.3500
116.1000,66.6500
116.0810,66.7457
116.0268,66.8268
115.9457,66.8810
115.8500,66.9000
115.2000,66.9000
115.1043,66.8810
115.0232,66.8268
114.9690,66.7457
114.9500,66.6500
Z" /> 
<path style="fill:#B4A09A; fill-opacity:0.9020; stroke:none;fill-rule:evenodd;"
d="M 117.9000,65.3500
117.9190,65.2543
117.9732,65.1732
118.0543,65.1190
118.1500,65.1000
118.8000,65.1000
118.8957,65.1190
118.9768,65.1732
119.0310,65.2543
119.0500,65.3500
119.0500,66.6500
119.0310,66.7457
118.9768,66.8268
118.8957,66.8810
118.8000,66.9000
118.1500,66.9000
118.0543,66.8810
117.9732,66.8268
117.9190,66.7457
117.9000,66.6500
Z" /> 
<path style="fill:#B4A09A; fill-opacity:0.9020; stroke:none;fill-rule:evenodd;"
d="M 125.0500,66.6500
125.0310,66.7457
124.9768,66.8268
124.8957,66.8810
124.8000,66.9000
124.1500,66.9000
124.0543,66.8810
123.9732,66.8268
123.9190,66.7457
123.9000,66.6500
123.9000,65.3500
123.9190,65.2543
123.9732,65.1732
124.0543,65.1190
124.1500,65.1000
124.8000,65.1000
124.8957,65.1190
124.9768,65.1732
125.0310,65.2543
125.0500,65.3500
Z" /> 
<path style="fill:#B4A09A; fill-opacity:0.9020; stroke:none;fill-rule:evenodd;"
d="M 122.1000,66.6500
122.0810,66.7457
122.0268,66.8268
121.9457,66.8810
121.8500,66.9000
121.2000,66.9000
121.1043,66.8810
121.0232,66.8268
120.9690,66.7457
120.9500,66.6500
120.9500,65.3500
120.9690,65.2543
121.0232,65.1732
121.1043,65.1190
121.2000,65.1000
121.8500,65.1000
121.9457,65.1190
122.0268,65.1732
122.0810,65.2543
122.1000,65.3500
Z" /> 
<path style="fill:#B4A09A; fill-opacity:0.9020; stroke:none;fill-rule:evenodd;"
d="M 114.9500,68.3500
114.9690,68.2543
115.0232,68.1732
115.1043,68.1190
115.2000,68.1000
115.8500,68.1000
115.9457,68.1190
116.0268,68.1732
116.0810,68.2543
116.1000,68.3500
116.1000,69.6500
116.0810,69.7457
116.0268,69.8268
115.9457,69.8810
115.8500,69.9000
115.2000,69.9000
115.1043,69.8810
115.0232,69.8268
114.9690,69.7457
114.9500,69.6500
Z" /> 
<path style="fill:#B4A09A; fill-opacity:0.9020; stroke:none;fill-rule:evenodd;"
d="M 117.9000,68.3500
117.9190,68.2543
117.9732,68.1732
118.0543,68.1190
118.1500,68.1000
118.8000,68.1000
118.8957,68.1190
118.9768,68.1732
119.0310,68.2543
119.0500,68.3500
119.0500,69.6500
119.0310,69.7457
118.9768,69.8268
118.8957,69.8810
118.8000,69.9000
118.1500,69.9000
118.0543,69.8810
117.9732,69.8268
117.9190,69.7457
117.9000,69.6500
Z" /> 
<path style="fill:#B4A09A; fill-opacity:0.9020; stroke:none;fill-rule:evenodd;"
d="M 125.0500,69.6500
125.0310,69.7457
124.9768,69.8268
124.8957,69.8810
124.8000,69.9000
124.1500,69.9000
124.0543,69.8810
123.9732,69.8268
123.9190,69.7457
123.9000,69.6500
123.9000,68.3500
123.9190,68.2543
123.9732,68.1732
124.0543,68.1190
124.1500,68.1000
124.8000,68.1000
124.8957,68.1190
124.9768,68.1732
125.0310,68.2543
125.0500,68.3500
Z" /> 
<path style="fill:#B4A09A; fill-opacity:0.9020; stroke:none;fill-rule:evenodd;"
d="M 122.1000,69.6500
122.0810,69.7457
122.0268,69.8268
121.9457,69.8810
121.8500,69.9000
121.2000,69.9000
121.1043,69.8810
121.0232,69.8268
120.9690,69.7457
120.9500,69.6500
120.9500,68.3500
120.9690,68.2543
121.0232,68.1732
121.1043,68.1190
121.2000,68.1000
121.8500,68.1000
121.9457,68.1190
122.0268,68.1732
122.0810,68.2543
122.1000,68.3500
Z" /> 
<path style="fill:#B4A09A; fill-opacity:0.9020; stroke:none;fill-rule:evenodd;"
d="M 118.3250,70.9000
118.3364,70.8426
118.3689,70.7939
118.4176,70.7614
118.4750,70.7500
119.6500,70.7500
119.7074,70.7614
119.7561,70.7939
119.7886,70.8426
119.8000,70.9000
119.8000,71.2000
119.7886,71.2574
119.7561,71.3061
119.7074,71.3386
119.6500,71.3500
118.4750,71.3500
118.4176,71.3386
118.3689,71.3061
118.3364,71.2574
118.3250,71.2000
Z" /> 
<path style="fill:#B4A09A; fill-opacity:0.9020; stroke:none;fill-rule:evenodd;"
d="M 118.3250,72.8000
118.3364,72.7426
118.3689,72.6939
118.4176,72.6614
118.4750,72.6500
119.6500,72.6500
119.7074,72.6614
119.7561,72.6939
119.7886,72.7426
119.8000,72.8000
119.8000,73.1000
119.7886,73.1574
119.7561,73.2061
119.7074,73.2386
119.6500,73.2500
118.4750,73.2500
118.4176,73.2386
118.3689,73.2061
118.3364,73.1574
118.3250,73.1000
Z" /> 
<path style="fill:#B4A09A; fill-opacity:0.9020; stroke:none;fill-rule:evenodd;"
d="M 120.2000,71.8500
120.2114,71.7926
120.2439,71.7439
120.2926,71.7114
120.3500,71.7000
121.5250,71.7000
121.5824,71.7114
121.6311,71.7439
121.6636,71.7926
121.6750,71.8500
121.6750,72.1500
121.6636,72.2074
121.6311,72.2561
121.5824,72.2886
121.5250,72.3000
120.3500,72.3000
120.2926,72.2886
120.2439,72.2561
120.2114,72.2074
120.2000,72.1500
Z" /> 
</g>
<g style="fill:none; 
stroke:#F2EDA1; stroke-width:0.1200; stroke-opacity:1; 
stroke-linecap:round; stroke-linejoin:round;">
<text x="118.5400" y="61.0000"
textLength="2.3533" font-size="0.9333" lengthAdjust="spacingAndGlyphs"
text-anchor="start" opacity="0" stroke-opacity="0">GND</text>
<g class="stroked-text"><desc>GND</desc>
<path d="M119.1523 60.2414
L119.0856 60.2081
" />
<path d="M119.0856 60.2081
L118.9856 60.2081
" />
<path d="M118.9856 60.2081
L118.8856 60.2414
" />
<path d="M118.8856 60.2414
L118.8189 60.3081
" />
<path d="M118.8189 60.3081
L118.7856 60.3748
" />
<path d="M118.7856 60.3748
L118.7523 60.5081
" />
<path d="M118.7523 60.5081
L118.7523 60.6081
" />
<path d="M118.7523 60.6081
L118.7856 60.7414
" />
<path d="M118.7856 60.7414
L118.8189 60.8081
" />
<path d="M118.8189 60.8081
L118.8856 60.8748
" />
<path d="M118.8856 60.8748
L118.9856 60.9081
" />
<path d="M118.9856 60.9081
L119.0523 60.9081
" />
<path d="M119.0523 60.9081
L119.1523 60.8748
" />
<path d="M119.1523 60.8748
L119.1856 60.8414
" />
<path d="M119.1856 60.8414
L119.1856 60.6081
" />
<path d="M119.1856 60.6081
L119.0523 60.6081
" />
<path d="M119.4856 60.9081
L119.4856 60.2081
" />
<path d="M119.4856 60.2081
L119.8856 60.9081
" />
<path d="M119.8856 60.9081
L119.8856 60.2081
" />
<path d="M120.2189 60.9081
L120.2189 60.2081
" />
<path d="M120.2189 60.2081
L120.3856 60.2081
" />
<path d="M120.3856 60.2081
L120.4856 60.2414
" />
<path d="M120.4856 60.2414
L120.5523 60.3081
" />
<path d="M120.5523 60.3081
L120.5856 60.3748
" />
<path d="M120.5856 60.3748
L120.6189 60.5081
" />
<path d="M120.6189 60.5081
L120.6189 60.6081
" />
<path d="M120.6189 60.6081
L120.5856 60.7414
" />
<path d="M120.5856 60.7414
L120.5523 60.8081
" />
<path d="M120.5523 60.8081
L120.4856 60.8748
" />
<path d="M120.4856 60.8748
L120.3856 60.9081
" />
<path d="M120.3856 60.9081
L120.2189 60.9081
" />
</g><text x="116.0000" y="61.0000"
textLength="1.4867" font-size="0.9333" lengthAdjust="spacingAndGlyphs"
text-anchor="start" opacity="0" stroke-opacity="0">6V</text>
<g class="stroked-text"><desc>6V</desc>
<path d="M116.5456 60.2081
L116.4123 60.2081
" />
<path d="M116.4123 60.2081
L116.3456 60.2414
" />
<path d="M116.3456 60.2414
L116.3123 60.2748
" />
<path d="M116.3123 60.2748
L116.2456 60.3748
" />
<path d="M116.2456 60.3748
L116.2123 60.5081
" />
<path d="M116.2123 60.5081
L116.2123 60.7748
" />
<path d="M116.2123 60.7748
L116.2456 60.8414
" />
<path d="M116.2456 60.8414
L116.2789 60.8748
" />
<path d="M116.2789 60.8748
L116.3456 60.9081
" />
<path d="M116.3456 60.9081
L116.4789 60.9081
" />
<path d="M116.4789 60.9081
L116.5456 60.8748
" />
<path d="M116.5456 60.8748
L116.5789 60.8414
" />
<path d="M116.5789 60.8414
L116.6123 60.7748
" />
<path d="M116.6123 60.7748
L116.6123 60.6081
" />
<path d="M116.6123 60.6081
L116.5789 60.5414
" />
<path d="M116.5789 60.5414
L116.5456 60.5081
" />
<path d="M116.5456 60.5081
L116.4789 60.4748
" />
<path d="M116.4789 60.4748
L116.3456 60.4748
" />
<path d="M116.3456 60.4748
L116.2789 60.5081
" />
<path d="M116.2789 60.5081
L116.2456 60.5414
" />
<path d="M116.2456 60.5414
L116.2123 60.6081
" />
<path d="M116.8123 60.2081
L117.0456 60.9081
" />
<path d="M117.0456 60.9081
L117.2789 60.2081
" />
</g><text x="121.0800" y="61.0000"
textLength="2.1533" font-size="0.9333" lengthAdjust="spacingAndGlyphs"
text-anchor="start" opacity="0" stroke-opacity="0">3V3</text>
<g class="stroked-text"><desc>3V3</desc>
<path d="M121.2589 60.2081
L121.6923 60.2081
" />
<path d="M121.6923 60.2081
L121.4589 60.4748
" />
<path d="M121.4589 60.4748
L121.5589 60.4748
" />
<path d="M121.5589 60.4748
L121.6256 60.5081
" />
<path d="M121.6256 60.5081
L121.6589 60.5414
" />
<path d="M121.6589 60.5414
L121.6923 60.6081
" />
<path d="M121.6923 60.6081
L121.6923 60.7748
" />
<path d="M121.6923 60.7748
L121.6589 60.8414
" />
<path d="M121.6589 60.8414
L121.6256 60.8748
" />
<path d="M121.6256 60.8748
L121.5589 60.9081
" />
<path d="M121.5589 60.9081
L121.3589 60.9081
" />
<path d="M121.3589 60.9081
L121.2923 60.8748
" />
<path d="M121.2923 60.8748
L121.2589 60.8414
" />
<path d="M121.8923 60.2081
L122.1256 60.9081
" />
<path d="M122.1256 60.9081
L122.3589 60.2081
" />
<path d="M122.5256 60.2081
L122.9589 60.2081
" />
<path d="M122.9589 60.2081
L122.7256 60.4748
" />
<path d="M122.7256 60.4748
L122.8256 60.4748
" />
<path d="M122.8256 60.4748
L122.8923 60.5081
" />
<path d="M122.8923 60.5081
L122.9256 60.5414
" />
<path d="M122.9256 60.5414
L122.9589 60.6081
" />
<path d="M122.9589 60.6081
L122.9589 60.7748
" />
<path d="M122.9589 60.7748
L122.9256 60.8414
" />
<path d="M122.9256 60.8414
L122.8923 60.8748
" />
<path d="M122.8923 60.8748
L122.8256 60.9081
" />
<path d="M122.8256 60.9081
L122.6256 60.9081
" />
<path d="M122.6256 60.9081
L122.5589 60.8748
" />
<path d="M122.5589 60.8748
L122.5256 60.8414
" />
</g><text x="117.0077" y="66.3500"
textLength="1.5867" font-size="0.9333" lengthAdjust="spacingAndGlyphs"
text-anchor="middle" opacity="0" stroke-opacity="0">C1</text>
<g class="stroked-text"><desc>C1</desc>
<path d="M116.8910 66.2509
L116.8577 66.2843
" />
<path d="M116.8577 66.2843
L116.7577 66.3176
" />
<path d="M116.7577 66.3176
L116.6910 66.3176
" />
<path d="M116.6910 66.3176
L116.5910 66.2843
" />
<path d="M116.5910 66.2843
L116.5243 66.2176
" />
<path d="M116.5243 66.2176
L116.4910 66.1509
" />
<path d="M116.4910 66.1509
L116.4577 66.0176
" />
<path d="M116.4577 66.0176
L116.4577 65.9176
" />
<path d="M116.4577 65.9176
L116.4910 65.7843
" />
<path d="M116.4910 65.7843
L116.5243 65.7176
" />
<path d="M116.5243 65.7176
L116.5910 65.6509
" />
<path d="M116.5910 65.6509
L116.6910 65.6176
" />
<path d="M116.6910 65.6176
L116.7577 65.6176
" />
<path d="M116.7577 65.6176
L116.8577 65.6509
" />
<path d="M116.8577 65.6509
L116.8910 65.6843
" />
<path d="M117.5577 66.3176
L117.1577 66.3176
" />
<path d="M117.3577 66.3176
L117.3577 65.6176
" />
<path d="M117.3577 65.6176
L117.2910 65.7176
" />
<path d="M117.2910 65.7176
L117.2243 65.7843
" />
<path d="M117.2243 65.7843
L117.1577 65.8176
" />
</g><text x="117.0000" y="64.3500"
textLength="2.7867" font-size="0.9333" lengthAdjust="spacingAndGlyphs"
text-anchor="middle" opacity="0" stroke-opacity="0">10uF</text>
<g class="stroked-text"><desc>10uF</desc>
<path d="M116.2500 64.3176
L115.8500 64.3176
" />
<path d="M116.0500 64.3176
L116.0500 63.6176
" />
<path d="M116.0500 63.6176
L115.9833 63.7176
" />
<path d="M115.9833 63.7176
L115.9167 63.7843
" />
<path d="M115.9167 63.7843
L115.8500 63.8176
" />
<path d="M116.6833 63.6176
L116.7500 63.6176
" />
<path d="M116.7500 63.6176
L116.8167 63.6509
" />
<path d="M116.8167 63.6509
L116.8500 63.6843
" />
<path d="M116.8500 63.6843
L116.8833 63.7509
" />
<path d="M116.8833 63.7509
L116.9167 63.8843
" />
<path d="M116.9167 63.8843
L116.9167 64.0509
" />
<path d="M116.9167 64.0509
L116.8833 64.1843
" />
<path d="M116.8833 64.1843
L116.8500 64.2509
" />
<path d="M116.8500 64.2509
L116.8167 64.2843
" />
<path d="M116.8167 64.2843
L116.7500 64.3176
" />
<path d="M116.7500 64.3176
L116.6833 64.3176
" />
<path d="M116.6833 64.3176
L116.6167 64.2843
" />
<path d="M116.6167 64.2843
L116.5833 64.2509
" />
<path d="M116.5833 64.2509
L116.5500 64.1843
" />
<path d="M116.5500 64.1843
L116.5167 64.0509
" />
<path d="M116.5167 64.0509
L116.5167 63.8843
" />
<path d="M116.5167 63.8843
L116.5500 63.7509
" />
<path d="M116.5500 63.7509
L116.5833 63.6843
" />
<path d="M116.5833 63.6843
L116.6167 63.6509
" />
<path d="M116.6167 63.6509
L116.6833 63.6176
" />
<path d="M117.5167 63.8509
L117.5167 64.3176
" />
<path d="M117.2167 63.8509
L117.2167 64.2176
" />
<path d="M117.2167 64.2176
L117.2500 64.2843
" />
<path d="M117.2500 64.2843
L117.3167 64.3176
" />
<path d="M117.3167 64.3176
L117.4167 64.3176
" />
<path d="M117.4167 64.3176
L117.4833 64.2843
" />
<path d="M117.4833 64.2843
L117.5167 64.2509
" />
<path d="M118.0833 63.9509
L117.8500 63.9509
" />
<path d="M117.8500 64.3176
L117.8500 63.6176
" />
<path d="M117.8500 63.6176
L118.1833 63.6176
" />
</g><text x="122.9923" y="66.3500"
textLength="1.5867" font-size="0.9333" lengthAdjust="spacingAndGlyphs"
text-anchor="middle" opacity="0" stroke-opacity="0">C4</text>
<g class="stroked-text"><desc>C4</desc>
<path d="M122.8757 66.2509
L122.8423 66.2843
" />
<path d="M122.8423 66.2843
L122.7423 66.3176
" />
<path d="M122.7423 66.3176
L122.6757 66.3176
" />
<path d="M122.6757 66.3176
L122.5757 66.2843
" />
<path d="M122.5757 66.2843
L122.5090 66.2176
" />
<path d="M122.5090 66.2176
L122.4757 66.1509
" />
<path d="M122.4757 66.1509
L122.4423 66.0176
" />
<path d="M122.4423 66.0176
L122.4423 65.9176
" />
<path d="M122.4423 65.9176
L122.4757 65.7843
" />
<path d="M122.4757 65.7843
L122.5090 65.7176
" />
<path d="M122.5090 65.7176
L122.5757 65.6509
" />
<path d="M122.5757 65.6509
L122.6757 65.6176
" />
<path d="M122.6757 65.6176
L122.7423 65.6176
" />
<path d="M122.7423 65.6176
L122.8423 65.6509
" />
<path d="M122.8423 65.6509
L122.8757 65.6843
" />
<path d="M123.4757 65.8509
L123.4757 66.3176
" />
<path d="M123.3090 65.5843
L123.1423 66.0843
" />
<path d="M123.1423 66.0843
L123.5757 66.0843
" />
</g><text x="123.0000" y="64.3500"
textLength="3.4533" font-size="0.9333" lengthAdjust="spacingAndGlyphs"
text-anchor="middle" opacity="0" stroke-opacity="0">100nF</text>
<g class="stroked-text"><desc>100nF</desc>
<path d="M121.9167 64.3176
L121.5167 64.3176
" />
<path d="M121.7167 64.3176
L121.7167 63.6176
" />
<path d="M121.7167 63.6176
L121.6500 63.7176
" />
<path d="M121.6500 63.7176
L121.5833 63.7843
" />
<path d="M121.5833 63.7843
L121.5167 63.8176
" />
<path d="M122.3500 63.6176
L122.4167 63.6176
" />
<path d="M122.4167 63.6176
L122.4833 63.6509
" />
<path d="M122.4833 63.6509
L122.5167 63.6843
" />
<path d="M122.5167 63.6843
L122.5500 63.7509
" />
<path d="M122.5500 63.7509
L122.5833 63.8843
" />
<path d="M122.5833 63.8843
L122.5833 64.0509
" />
<path d="M122.5833 64.0509
L122.5500 64.1843
" />
<path d="M122.5500 64.1843
L122.5167 64.2509
" />
<path d="M122.5167 64.2509
L122.4833 64.2843
" />
<path d="M122.4833 64.2843
L122.4167 64.3176
" />
<path d="M122.4167 64.3176
L122.3500 64.3176
" />
<path d="M122.3500 64.3176
L122.2833 64.2843
" />
<path d="M122.2833 64.2843
L122.2500 64.2509
" />
<path d="M122.2500 64.2509
L122.2167 64.1843
" />
<path d="M122.2167 64.1843
L122.1833 64.0509
" />
<path d="M122.1833 64.0509
L122.1833 63.8843
" />
<path d="M122.1833 63.8843
L122.2167 63.7509
" />
<path d="M122.2167 63.7509
L122.2500 63.6843
" />
<path d="M122.2500 63.6843
L122.2833 63.6509
" />
<path d="M122.2833 63.6509
L122.3500 63.6176
" />
<path d="M123.0167 63.6176
L123.0833 63.6176
" />
<path d="M123.0833 63.6176
L123.1500 63.6509
" />
<path d="M123.1500 63.6509
L123.1833 63.6843
" />
<path d="M123.1833 63.6843
L123.2167 63.7509
" />
<path d="M123.2167 63.7509
L123.2500 63.8843
" />
<path d="M123.2500 63.8843
L123.2500 64.0509
" />
<path d="M123.2500 64.0509
L123.2167 64.1843
" />
<path d="M123.2167 64.1843
L123.1833 64.2509
" />
<path d="M123.1833 64.2509
L123.1500 64.2843
" />
<path d="M123.1500 64.2843
L123.0833 64.3176
" />
<path d="M123.0833 64.3176
L123.0167 64.3176
" />
<path d="M123.0167 64.3176
L122.9500 64.2843
" />
<path d="M122.9500 64.2843
L122.9167 64.2509
" />
<path d="M122.9167 64.2509
L122.8833 64.1843
" />
<path d="M122.8833 64.1843
L122.8500 64.0509
" />
<path d="M122.8500 64.0509
L122.8500 63.8843
" />
<path d="M122.8500 63.8843
L122.8833 63.7509
" />
<path d="M122.8833 63.7509
L122.9167 63.6843
" />
<path d="M122.9167 63.6843
L122.9500 63.6509
" />
<path d="M122.9500 63.6509
L123.0167 63.6176
" />
<path d="M123.5500 63.8509
L123.5500 64.3176
" />
<path d="M123.5500 63.9176
L123.5833 63.8843
" />
<path d="M123.5833 63.8843
L123.6500 63.8509
" />
<path d="M123.6500 63.8509
L123.7500 63.8509
" />
<path d="M123.7500 63.8509
L123.8167 63.8843
" />
<path d="M123.8167 63.8843
L123.8500 63.9509
" />
<path d="M123.8500 63.9509
L123.8500 64.3176
" />
<path d="M124.4167 63.9509
L124.1833 63.9509
" />
<path d="M124.1833 64.3176
L124.1833 63.6176
" />
<path d="M124.1833 63.6176
L124.5167 63.6176
" />
</g><text x="117.0077" y="69.3500"
textLength="1.5867" font-size="0.9333" lengthAdjust="spacingAndGlyphs"
text-anchor="middle" opacity="0" stroke-opacity="0">C2</text>
<g class="stroked-text"><desc>C2</desc>
<path d="M116.8910 69.2509
L116.8577 69.2843
" />
<path d="M116.8577 69.2843
L116.7577 69.3176
" />
<path d="M116.7577 69.3176
L116.6910 69.3176
" />
<path d="M116.6910 69.3176
L116.5910 69.2843
" />
<path d="M116.5910 69.2843
L116.5243 69.2176
" />
<path d="M116.5243 69.2176
L116.4910 69.1509
" />
<path d="M116.4910 69.1509
L116.4577 69.0176
" />
<path d="M116.4577 69.0176
L116.4577 68.9176
" />
<path d="M116.4577 68.9176
L116.4910 68.7843
" />
<path d="M116.4910 68.7843
L116.5243 68.7176
" />
<path d="M116.5243 68.7176
L116.5910 68.6509
" />
<path d="M116.5910 68.6509
L116.6910 68.6176
" />
<path d="M116.6910 68.6176
L116.7577 68.6176
" />
<path d="M116.7577 68.6176
L116.8577 68.6509
" />
<path d="M116.8577 68.6509
L116.8910 68.6843
" />
<path d="M117.1577 68.6843
L117.1910 68.6509
" />
<path d="M117.1910 68.6509
L117.2577 68.6176
" />
<path d="M117.2577 68.6176
L117.4243 68.6176
" />
<path d="M117.4243 68.6176
L117.4910 68.6509
" />
<path d="M117.4910 68.6509
L117.5243 68.6843
" />
<path d="M117.5243 68.6843
L117.5577 68.7509
" />
<path d="M117.5577 68.7509
L117.5577 68.8176
" />
<path d="M117.5577 68.8176
L117.5243 68.9176
" />
<path d="M117.5243 68.9176
L117.1243 69.3176
" />
<path d="M117.1243 69.3176
L117.5577 69.3176
" />
</g><text x="117.0000" y="71.3500"
textLength="3.4533" font-size="0.9333" lengthAdjust="spacingAndGlyphs"
text-anchor="middle" opacity="0" stroke-opacity="0">100nF</text>
<g class="stroked-text"><desc>100nF</desc>
<path d="M115.9167 71.3176
L115.5167 71.3176
" />
<path d="M115.7167 71.3176
L115.7167 70.6176
" />
<path d="M115.7167 70.6176
L115.6500 70.7176
" />
<path d="M115.6500 70.7176
L115.5833 70.7843
" />
<path d="M115.5833 70.7843
L115.5167 70.8176
" />
<path d="M116.3500 70.6176
L116.4167 70.6176
" />
<path d="M116.4167 70.6176
L116.4833 70.6509
" />
<path d="M116.4833 70.6509
L116.5167 70.6843
" />
<path d="M116.5167 70.6843
L116.5500 70.7509
" />
<path d="M116.5500 70.7509
L116.5833 70.8843
" />
<path d="M116.5833 70.8843
L116.5833 71.0509
" />
<path d="M116.5833 71.0509
L116.5500 71.1843
" />
<path d="M116.5500 71.1843
L116.5167 71.2509
" />
<path d="M116.5167 71.2509
L116.4833 71.2843
" />
<path d="M116.4833 71.2843
L116.4167 71.3176
" />
<path d="M116.4167 71.3176
L116.3500 71.3176
" />
<path d="M116.3500 71.3176
L116.2833 71.2843
" />
<path d="M116.2833 71.2843
L116.2500 71.2509
" />
<path d="M116.2500 71.2509
L116.2167 71.1843
" />
<path d="M116.2167 71.1843
L116.1833 71.0509
" />
<path d="M116.1833 71.0509
L116.1833 70.8843
" />
<path d="M116.1833 70.8843
L116.2167 70.7509
" />
<path d="M116.2167 70.7509
L116.2500 70.6843
" />
<path d="M116.2500 70.6843
L116.2833 70.6509
" />
<path d="M116.2833 70.6509
L116.3500 70.6176
" />
<path d="M117.0167 70.6176
L117.0833 70.6176
" />
<path d="M117.0833 70.6176
L117.1500 70.6509
" />
<path d="M117.1500 70.6509
L117.1833 70.6843
" />
<path d="M117.1833 70.6843
L117.2167 70.7509
" />
<path d="M117.2167 70.7509
L117.2500 70.8843
" />
<path d="M117.2500 70.8843
L117.2500 71.0509
" />
<path d="M117.2500 71.0509
L117.2167 71.1843
" />
<path d="M117.2167 71.1843
L117.1833 71.2509
" />
<path d="M117.1833 71.2509
L117.1500 71.2843
" />
<path d="M117.1500 71.2843
L117.0833 71.3176
" />
<path d="M117.0833 71.3176
L117.0167 71.3176
" />
<path d="M117.0167 71.3176
L116.9500 71.2843
" />
<path d="M116.9500 71.2843
L116.9167 71.2509
" />
<path d="M116.9167 71.2509
L116.8833 71.1843
" />
<path d="M116.8833 71.1843
L116.8500 71.0509
" />
<path d="M116.8500 71.0509
L116.8500 70.8843
" />
<path d="M116.8500 70.8843
L116.8833 70.7509
" />
<path d="M116.8833 70.7509
L116.9167 70.6843
" />
<path d="M116.9167 70.6843
L116.9500 70.6509
" />
<path d="M116.9500 70.6509
L117.0167 70.6176
" />
<path d="M117.5500 70.8509
L117.5500 71.3176
" />
<path d="M117.5500 70.9176
L117.5833 70.8843
" />
<path d="M117.5833 70.8843
L117.6500 70.8509
" />
<path d="M117.6500 70.8509
L117.7500 70.8509
" />
<path d="M117.7500 70.8509
L117.8167 70.8843
" />
<path d="M117.8167 70.8843
L117.8500 70.9509
" />
<path d="M117.8500 70.9509
L117.8500 71.3176
" />
<path d="M118.4167 70.9509
L118.1833 70.9509
" />
<path d="M118.1833 71.3176
L118.1833 70.6176
" />
<path d="M118.1833 70.6176
L118.5167 70.6176
" />
</g><text x="123.0000" y="69.3500"
textLength="1.5867" font-size="0.9333" lengthAdjust="spacingAndGlyphs"
text-anchor="middle" opacity="0" stroke-opacity="0">C3</text>
<g class="stroked-text"><desc>C3</desc>
<path d="M122.8833 69.2509
L122.8500 69.2843
" />
<path d="M122.8500 69.2843
L122.7500 69.3176
" />
<path d="M122.7500 69.3176
L122.6833 69.3176
" />
<path d="M122.6833 69.3176
L122.5833 69.2843
" />
<path d="M122.5833 69.2843
L122.5167 69.2176
" />
<path d="M122.5167 69.2176
L122.4833 69.1509
" />
<path d="M122.4833 69.1509
L122.4500 69.0176
" />
<path d="M122.4500 69.0176
L122.4500 68.9176
" />
<path d="M122.4500 68.9176
L122.4833 68.7843
" />
<path d="M122.4833 68.7843
L122.5167 68.7176
" />
<path d="M122.5167 68.7176
L122.5833 68.6509
" />
<path d="M122.5833 68.6509
L122.6833 68.6176
" />
<path d="M122.6833 68.6176
L122.7500 68.6176
" />
<path d="M122.7500 68.6176
L122.8500 68.6509
" />
<path d="M122.8500 68.6509
L122.8833 68.6843
" />
<path d="M123.1167 68.6176
L123.5500 68.6176
" />
<path d="M123.5500 68.6176
L123.3167 68.8843
" />
<path d="M123.3167 68.8843
L123.4167 68.8843
" />
<path d="M123.4167 68.8843
L123.4833 68.9176
" />
<path d="M123.4833 68.9176
L123.5167 68.9509
" />
<path d="M123.5167 68.9509
L123.5500 69.0176
" />
<path d="M123.5500 69.0176
L123.5500 69.1843
" />
<path d="M123.5500 69.1843
L123.5167 69.2509
" />
<path d="M123.5167 69.2509
L123.4833 69.2843
" />
<path d="M123.4833 69.2843
L123.4167 69.3176
" />
<path d="M123.4167 69.3176
L123.2167 69.3176
" />
<path d="M123.2167 69.3176
L123.1500 69.2843
" />
<path d="M123.1500 69.2843
L123.1167 69.2509
" />
</g><text x="123.0000" y="71.3500"
textLength="2.7867" font-size="0.9333" lengthAdjust="spacingAndGlyphs"
text-anchor="middle" opacity="0" stroke-opacity="0">10uF</text>
<g class="stroked-text"><desc>10uF</desc>
<path d="M122.2500 71.3176
L121.8500 71.3176
" />
<path d="M122.0500 71.3176
L122.0500 70.6176
" />
<path d="M122.0500 70.6176
L121.9833 70.7176
" />
<path d="M121.9833 70.7176
L121.9167 70.7843
" />
<path d="M121.9167 70.7843
L121.8500 70.8176
" />
<path d="M122.6833 70.6176
L122.7500 70.6176
" />
<path d="M122.7500 70.6176
L122.8167 70.6509
" />
<path d="M122.8167 70.6509
L122.8500 70.6843
" />
<path d="M122.8500 70.6843
L122.8833 70.7509
" />
<path d="M122.8833 70.7509
L122.9167 70.8843
" />
<path d="M122.9167 70.8843
L122.9167 71.0509
" />
<path d="M122.9167 71.0509
L122.8833 71.1843
" />
<path d="M122.8833 71.1843
L122.8500 71.2509
" />
<path d="M122.8500 71.2509
L122.8167 71.2843
" />
<path d="M122.8167 71.2843
L122.7500 71.3176
" />
<path d="M122.7500 71.3176
L122.6833 71.3176
" />
<path d="M122.6833 71.3176
L122.6167 71.2843
" />
<path d="M122.6167 71.2843
L122.5833 71.2509
" />
<path d="M122.5833 71.2509
L122.5500 71.1843
" />
<path d="M122.5500 71.1843
L122.5167 71.0509
" />
<path d="M122.5167 71.0509
L122.5167 70.8843
" />
<path d="M122.5167 70.8843
L122.5500 70.7509
" />
<path d="M122.5500 70.7509
L122.5833 70.6843
" />
<path d="M122.5833 70.6843
L122.6167 70.6509
" />
<path d="M122.6167 70.6509
L122.6833 70.6176
" />
<path d="M123.5167 70.8509
L123.5167 71.3176
" />
<path d="M123.2167 70.8509
L123.2167 71.2176
" />
<path d="M123.2167 71.2176
L123.2500 71.2843
" />
<path d="M123.2500 71.2843
L123.3167 71.3176
" />
<path d="M123.3167 71.3176
L123.4167 71.3176
" />
<path d="M123.4167 71.3176
L123.4833 71.2843
" />
<path d="M123.4833 71.2843
L123.5167 71.2509
" />
<path d="M124.0833 70.9509
L123.8500 70.9509
" />
<path d="M123.8500 71.3176
L123.8500 70.6176
" />
<path d="M123.8500 70.6176
L124.1833 70.6176
" />
</g><text x="123.0000" y="73.3500"
textLength="1.6200" font-size="0.9333" lengthAdjust="spacingAndGlyphs"
text-anchor="middle" opacity="0" stroke-opacity="0">U1</text>
<g class="stroked-text"><desc>U1</desc>
<path d="M122.4667 72.6176
L122.4667 73.1843
" />
<path d="M122.4667 73.1843
L122.5000 73.2509
" />
<path d="M122.5000 73.2509
L122.5333 73.2843
" />
<path d="M122.5333 73.2843
L122.6000 73.3176
" />
<path d="M122.6000 73.3176
L122.7333 73.3176
" />
<path d="M122.7333 73.3176
L122.8000 73.2843
" />
<path d="M122.8000 73.2843
L122.8333 73.2509
" />
<path d="M122.8333 73.2509
L122.8667 73.1843
" />
<path d="M122.8667 73.1843
L122.8667 72.6176
" />
<path d="M123.5667 73.3176
L123.1667 73.3176
" />
<path d="M123.3667 73.3176
L123.3667 72.6176
" />
<path d="M123.3667 72.6176
L123.3000 72.7176
" />
<path d="M123.3000 72.7176
L123.2333 72.7843
" />
<path d="M123.2333 72.7843
L123.1667 72.8176
" />
</g><text x="120.0000" y="74.7500"
textLength="7.6200" font-size="0.9333" lengthAdjust="spacingAndGlyphs"
text-anchor="middle" opacity="0" stroke-opacity="0">ME6206A33XG</text>
<g class="stroked-text"><desc>ME6206A33XG</desc>
<path d="M116.4667 74.7176
L116.4667 74.0176
" />
<path d="M116.4667 74.0176
L116.7000 74.5176
" />
<path d="M116.7000 74.5176
L116.9333 74.0176
" />
<path d="M116.9333 74.0176
L116.9333 74.7176
" />
<path d="M117.2667 74.3509
L117.5000 74.3509
" />
<path d="M117.6000 74.7176
L117.2667 74.7176
" />
<path d="M117.2667 74.7176
L117.2667 74.0176
" />
<path d="M117.2667 74.0176
L117.6000 74.0176
" />
<path d="M118.2000 74.0176
L118.0667 74.0176
" />
<path d="M118.0667 74.0176
L118.0000 74.0509
" />
<path d="M118.0000 74.0509
L117.9667 74.0843
" />
<path d="M117.9667 74.0843
L117.9000 74.1843
" />
<path d="M117.9000 74.1843
L117.8667 74.3176
" />
<path d="M117.8667 74.3176
L117.8667 74.5843
" />
<path d="M117.8667 74.5843
L117.9000 74.6509
" />
<path d="M117.9000 74.6509
L117.9333 74.6843
" />
<path d="M117.9333 74.6843
L118.0000 74.7176
" />
<path d="M118.0000 74.7176
L118.1333 74.7176
" />
<path d="M118.1333 74.7176
L118.2000 74.6843
" />
<path d="M118.2000 74.6843
L118.2333 74.6509
" />
<path d="M118.2333 74.6509
L118.2667 74.5843
" />
<path d="M118.2667 74.5843
L118.2667 74.4176
" />
<path d="M118.2667 74.4176
L118.2333 74.3509
" />
<path d="M118.2333 74.3509
L118.2000 74.3176
" />
<path d="M118.2000 74.3176
L118.1333 74.2843
" />
<path d="M118.1333 74.2843
L118.0000 74.2843
" />
<path d="M118.0000 74.2843
L117.9333 74.3176
" />
<path d="M117.9333 74.3176
L117.9000 74.3509
" />
<path d="M117.9000 74.3509
L117.8667 74.4176
" />
<path d="M118.5333 74.0843
L118.5667 74.0509
" />
<path d="M118.5667 74.0509
L118.6333 74.0176
" />
<path d="M118.6333 74.0176
L118.8000 74.0176
" />
<path d="M118.8000 74.0176
L118.8667 74.0509
" />
<path d="M118.8667 74.0509
L118.9000 74.0843
" />
<path d="M118.9000 74.0843
L118.9333 74.1509
" />
<path d="M118.9333 74.1509
L118.9333 74.2176
" />
<path d="M118.9333 74.2176
L118.9000 74.3176
" />
<path d="M118.9000 74.3176
L118.5000 74.7176
" />
<path d="M118.5000 74.7176
L118.9333 74.7176
" />
<path d="M119.3667 74.0176
L119.4333 74.0176
" />
<path d="M119.4333 74.0176
L119.5000 74.0509
" />
<path d="M119.5000 74.0509
L119.5333 74.0843
" />
<path d="M119.5333 74.0843
L119.5667 74.1509
" />
<path d="M119.5667 74.1509
L119.6000 74.2843
" />
<path d="M119.6000 74.2843
L119.6000 74.4509
" />
<path d="M119.6000 74.4509
L119.5667 74.5843
" />
<path d="M119.5667 74.5843
L119.5333 74.6509
" />
<path d="M119.5333 74.6509
L119.5000 74.6843
" />
<path d="M119.5000 74.6843
L119.4333 74.7176
" />
<path d="M119.4333 74.7176
L119.3667 74.7176
" />
<path d="M119.3667 74.7176
L119.3000 74.6843
" />
<path d="M119.3000 74.6843
L119.2667 74.6509
" />
<path d="M119.2667 74.6509
L119.2333 74.5843
" />
<path d="M119.2333 74.5843
L119.2000 74.4509
" />
<path d="M119.2000 74.4509
L119.2000 74.2843
" />
<path d="M119.2000 74.2843
L119.2333 74.1509
" />
<path d="M119.2333 74.1509
L119.2667 74.0843
" />
<path d="M119.2667 74.0843
L119.3000 74.0509
" />
<path d="M119.3000 74.0509
L119.3667 74.0176
" />
<path d="M120.2000 74.0176
L120.0667 74.0176
" />
<path d="M120.0667 74.0176
L120.0000 74.0509
" />
<path d="M120.0000 74.0509
L119.9667 74.0843
" />
<path d="M119.9667 74.0843
L119.9000 74.1843
" />
<path d="M119.9000 74.1843
L119.8667 74.3176
" />
<path d="M119.8667 74.3176
L119.8667 74.5843
" />
<path d="M119.8667 74.5843
L119.9000 74.6509
" />
<path d="M119.9000 74.6509
L119.9333 74.6843
" />
<path d="M119.9333 74.6843
L120.0000 74.7176
" />
<path d="M120.0000 74.7176
L120.1333 74.7176
" />
<path d="M120.1333 74.7176
L120.2000 74.6843
" />
<path d="M120.2000 74.6843
L120.2333 74.6509
" />
<path d="M120.2333 74.6509
L120.2667 74.5843
" />
<path d="M120.2667 74.5843
L120.2667 74.4176
" />
<path d="M120.2667 74.4176
L120.2333 74.3509
" />
<path d="M120.2333 74.3509
L120.2000 74.3176
" />
<path d="M120.2000 74.3176
L120.1333 74.2843
" />
<path d="M120.1333 74.2843
L120.0000 74.2843
" />
<path d="M120.0000 74.2843
L119.9333 74.3176
" />
<path d="M119.9333 74.3176
L119.9000 74.3509
" />
<path d="M119.9000 74.3509
L119.8667 74.4176
" />
<path d="M120.5333 74.5176
L120.8667 74.5176
" />
<path d="M120.4667 74.7176
L120.7000 74.0176
" />
<path d="M120.7000 74.0176
L120.9333 74.7176
" />
<path d="M121.1000 74.0176
L121.5333 74.0176
" />
<path d="M121.5333 74.0176
L121.3000 74.2843
" />
<path d="M121.3000 74.2843
L121.4000 74.2843
" />
<path d="M121.4000 74.2843
L121.4667 74.3176
" />
<path d="M121.4667 74.3176
L121.5000 74.3509
" />
<path d="M121.5000 74.3509
L121.5333 74.4176
" />
<path d="M121.5333 74.4176
L121.5333 74.5843
" />
<path d="M121.5333 74.5843
L121.5000 74.6509
" />
<path d="M121.5000 74.6509
L121.4667 74.6843
" />
<path d="M121.4667 74.6843
L121.4000 74.7176
" />
<path d="M121.4000 74.7176
L121.2000 74.7176
" />
<path d="M121.2000 74.7176
L121.1333 74.6843
" />
<path d="M121.1333 74.6843
L121.1000 74.6509
" />
<path d="M121.7667 74.0176
L122.2000 74.0176
" />
<path d="M122.2000 74.0176
L121.9667 74.2843
" />
<path d="M121.9667 74.2843
L122.0667 74.2843
" />
<path d="M122.0667 74.2843
L122.1333 74.3176
" />
<path d="M122.1333 74.3176
L122.1667 74.3509
" />
<path d="M122.1667 74.3509
L122.2000 74.4176
" />
<path d="M122.2000 74.4176
L122.2000 74.5843
" />
<path d="M122.2000 74.5843
L122.1667 74.6509
" />
<path d="M122.1667 74.6509
L122.1333 74.6843
" />
<path d="M122.1333 74.6843
L122.0667 74.7176
" />
<path d="M122.0667 74.7176
L121.8667 74.7176
" />
<path d="M121.8667 74.7176
L121.8000 74.6843
" />
<path d="M121.8000 74.6843
L121.7667 74.6509
" />
<path d="M122.4333 74.0176
L122.9000 74.7176
" />
<path d="M122.9000 74.0176
L122.4333 74.7176
" />
<path d="M123.5333 74.0509
L123.4667 74.0176
" />
<path d="M123.4667 74.0176
L123.3667 74.0176
" />
<path d="M123.3667 74.0176
L123.2667 74.0509
" />
<path d="M123.2667 74.0509
L123.2000 74.1176
" />
<path d="M123.2000 74.1176
L123.1667 74.1843
" />
<path d="M123.1667 74.1843
L123.1333 74.3176
" />
<path d="M123.1333 74.3176
L123.1333 74.4176
" />
<path d="M123.1333 74.4176
L123.1667 74.5509
" />
<path d="M123.1667 74.5509
L123.2000 74.6176
" />
<path d="M123.2000 74.6176
L123.2667 74.6843
" />
<path d="M123.2667 74.6843
L123.3667 74.7176
" />
<path d="M123.3667 74.7176
L123.4333 74.7176
" />
<path d="M123.4333 74.7176
L123.5333 74.6843
" />
<path d="M123.5333 74.6843
L123.5667 74.6509
" />
<path d="M123.5667 74.6509
L123.5667 74.4176
" />
<path d="M123.5667 74.4176
L123.4333 74.4176
" />
</g><path d="M114.9000 67.2000
L119.1000 67.2000
" />
<path d="M119.1000 64.8000
L114.9000 64.8000
" />
<path d="M114.9000 64.8000 A1.9010 1.9010 0.0 0 0 114.9000 67.2000" />
<path d="M119.1000 67.2000 A1.8501 1.8501 0.0 0 0 119.1000 64.8000" />
<path d="M120.9000 67.2000
L125.1000 67.2000
" />
<path d="M125.1000 64.8000
L120.9000 64.8000
" />
<path d="M120.9000 64.8000 A1.8501 1.8501 0.0 0 0 120.9000 67.2000" />
<path d="M125.1000 67.2000 A1.9010 1.9010 0.0 0 0 125.1000 64.8000" />
<path d="M114.9000 70.2000
L119.1000 70.2000
" />
<path d="M119.1000 67.8000
L114.9000 67.8000
" />
<path d="M114.9000 67.8000 A1.9010 1.9010 0.0 0 0 114.9000 70.2000" />
<path d="M119.1000 70.2000 A1.8501 1.8501 0.0 0 0 119.1000 67.8000" />
<path d="M120.9000 70.2000
L125.1000 70.2000
" />
<path d="M125.1000 67.8000
L120.9000 67.8000
" />
<path d="M120.9000 67.8000 A1.8501 1.8501 0.0 0 0 120.9000 70.2000" />
<path d="M125.1000 70.2000 A1.9010 1.9010 0.0 0 0 125.1000 67.8000" />
<path d="M120.0000 70.4400
L119.3500 70.4400
" />
<path d="M120.0000 70.4400
L120.6500 70.4400
" />
<path d="M120.0000 73.5600
L119.3500 73.5600
" />
<path d="M120.0000 73.5600
L120.6500 73.5600
" />
<path style="fill:#F2EDA1; fill-opacity:1.0000; 
stroke:#F2EDA1; stroke-width:0.1200; stroke-opacity:1; 
stroke-linecap:round; stroke-linejoin:round;fill-rule:evenodd;"
d="M 118.8375,70.4900
118.5975,70.1600
119.0775,70.1600
Z" /> 
</g> 
</svg>
